<?xml version="1.0" encoding="utf-8"?>
<!-- Generator: Adobe Illustrator 28.2.0, SVG Export Plug-In . SVG Version: 6.00 Build 0)  -->
<svg version="1.1" id="Calque_1" xmlns="http://www.w3.org/2000/svg" xmlns:xlink="http://www.w3.org/1999/xlink" x="0px" y="0px"
	 viewBox="0 0 512 512" style="enable-background:new 0 0 512 512;" xml:space="preserve">
<style type="text/css">
	.st0{fill:#BDCE45;}
	.st1{fill:#2C3124;}
</style>
<g id="_x23_bdce45ff">
	<path class="st0" d="M253.4,48.1c2.9-0.1,5.3-2.2,8.2-2.3c4.1-0.4,8.4-0.6,12.5,0.5c3.1,2.8,6.5,5.4,10.6,6.1
		c4.9,1.9,9.5,4.6,13.7,7.8c0.1,1.4,0.2,2.9,0.3,4.3c3.2-0.3,5.7,2.3,8.8,1.9c6.2-0.6,12.7,2.3,18.8,0.2c3.9-2.7,8.5-4.6,13.3-4.1
		c2.6,1.1,5.6,1.7,7.3,4.1c1.9,2.3,5.2,2.8,7.1,5c1.1,1.4,1.4,3.3,2,5c2,0.5,4.2,0.8,6,1.8c1.7,1,2.4,2.9,3.4,4.6
		c3-2.4,6.5,0.3,8.4,2.7c1.2,2.5,1.6,5.4,2.1,8.1c1.6-0.2,3.1-0.5,4.6-0.7c2.5,0.3,3.8,2.8,5.5,4.3c1.3,1.4,3.4,2.1,4,4
		c1.2,2.5,0.9,5.3,1,8c3.2,1.1,7.1-0.4,9.8,2.2c2.1,1.8,5.1,2,7.2,3.8c0.9,1.3,1.4,2.9,1.9,4.5c4.3-0.5,7.3,3.2,8.8,6.8
		c0.8,4.8,3.8,9.1,3.5,14.2c2.2,1.9,4.3,4,6.5,5.9c3,2.7,3.4,7,6,10c2.9,3.7,2.4,8.5,2.3,12.9c-2.2,3.8-3.7,8.2-1.8,12.5
		c0.1,4.5,3.8,7.5,7.7,8.9c-0.1,2.2-0.8,5.7,2.6,5.3c-0.2-1.2-0.4-2.5-0.6-3.7c0.8,1.5,1.3,3.2,1.9,4.8c1.2,3,4,4.9,5.9,7.5
		c0.5,2.4,0.8,4.9,1.4,7.4c2.3,3.2,5.4,6.9,4.1,11.2c-1.2,2.9-5.2,4.1-5.4,7.5c0.3,4.3-0.4,8.8,1.9,12.8c1,0.3,1.9,0.6,2.9,0.8
		c2.4,4.3,4,9.2,3.7,14.2c0,3.9-2.7,7.1-4.4,10.4c-1.8,5,0.3,10.3,2.9,14.5c0.7,3.1,1.1,6.3,2.3,9.3c0.6,5.3-5.5,7.9-6.1,12.9
		c-1.1,0.1-2.2,0.2-3.2,0.3c0.1,2.1,0,4.2-0.4,6.4c-1.3,0.1-2.5,0.2-3.8,0.3c0.5,2,0.8,4,0.1,6c1.7,3.3,3.5,6.6,5.2,9.9
		c-0.2,3.2,0.1,6.8-2.1,9.4c-1.7,2.9-5.2,4.2-6.4,7.4c-1.4,3.6-4.7,5.8-6.4,9.2c-1.2-0.2-2.4-0.4-3.5-0.8c0.6,2.5,0.8,5,0.9,7.5
		c-2.8,2.4-6.9,3.1-8.5,6.7c-6.2,4.1-12,10.2-13.6,17.7c-1.4-0.6-1.7-0.2-1.1,1.3c0.2,3.9-3,7.2-4.7,10.5c-2.1,5.1-8,7.3-9.6,12.7
		c-3.6,1.8-6.6,4.5-9.8,7c-2.7-0.1-5.3-2.2-7.9-0.7c-0.7-0.8-1.5-1.5-2.2-2.3c-0.1,1.4-0.3,2.7-0.6,4.1c-1.5,0-3,0-4.5,0
		c0.2,1,0.3,1.9,0.5,2.9c-0.8,0.1-2.2,0.2-3,0.3c0.2,1.2,0.5,2.5,0.8,3.8c-4.2,4.9-10.1,7.6-15,11.6c-1.2-0.3-2.3-0.7-3.5-1
		c-1,2.7-1.6,5.6-2.8,8.2c-0.8,0-1.5,0.1-2.3,0.1c-1.6,3.5-6.1,2.6-8.7,0.8c-1.6,3.1-5.2,1.3-7.9,2.1c-2.2,0.5-4.2,2.3-6.6,1.7
		c-1.9,0.1-2.8-1.8-3.8-3c0.4,1.1,1.5,2.3,0.6,3.5c0.5-0.1,1.3-0.2,1.8-0.3c-0.9,1.4-1.4,3.5-3.1,4.1c-4.9,2.3-10.4,0.1-15.4,1.7
		c0.6,2,1.5,4.7-0.3,6.4c-3.4,1.6-7.2,0.8-10.9,1.2c0.4-0.9,0.9-1.9,1.3-2.8c-1.7,0.9-3.4,1.8-5.1,2.8c-1.1,0.6-2.1,1.4-3.2,2
		c-2.4,0.3-4-1.9-6-2.8c-5,0-9.9-0.9-14.9-1.2c-2.7,1.7-5.8,2.4-8.8,1.3c-0.5,0.8-1,1.6-1.5,2.4c-2.3,0-4.5,0.6-6.5,1.6
		c-2.8,1.2-5.7,0.1-8.3-1.1c-0.3-0.3-0.9-1-1.2-1.4c-2.6,0.4-5.2,1-7.8,0.7c0-0.8-0.1-2.5-0.1-3.4c-1.5,0.9-3.2,1.6-5,1.8
		c-0.4,0.1-1.2,0.2-1.6,0.3c-0.5-2.4,0.3-6.2-3.2-6.1c-0.5,0.2-1.4,0.6-1.9,0.7c-3.8,1.2-7.4-1.2-10.1-3.7c0.2,1.1,0.4,2.3,0.5,3.5
		c-4.6-1.9-9.5,0.6-14.2-0.9c-0.1-0.6-0.4-1.8-0.5-2.4c-2.8-0.5-5.6-1.3-8.5-1.7c0.3-0.3,0.9-1.1,1.2-1.4c-3.7-1.4-7.1-3.7-10.9-4.7
		c0.1-1.3,0.2-2.6,0.4-3.8c-2.7-0.2-5.4,0.2-7.6,2c-2.2,1.9-5-0.1-7.4-0.5c1.6-2-1.2-2.7-2.7-2.1l-1,0.1c1.2-1.4-0.5-2.4-1.7-2.5
		c-4.3-2.6-7.6-6.6-10.9-10.4c-2.6-4-7.2-6.4-8.9-10.9c-0.8-1.3-1.2-3.4-3-3.7c-4.1,0-8.3-0.8-11.8-3c-1.1-1.2-2.3-2.2-3.9-2.5
		c-1.7-0.4-2.3-2.1-3.2-3.3c1.6,1.8,2.6-1.6,0.2-0.9c-2.9-0.1-3.3-4.1-5.6-5.5c0-0.7,0.1-1.3,0.1-2c-2-0.9-3.1-2.7-3.3-4.8
		c-0.9-0.4-1.8-0.8-2.7-1.1c-0.9-2-1.9-4-2.8-6.1c-0.8,0.4-1.6,0.9-2.5,1.1c-3.3-1.9-5.2-5.4-8-7.8c-4-2.7-6-7.3-9.9-10
		c-1.5-4.2-2.5-8.7-4.2-12.9c-1.1-2.8,0.2-5.8,0-8.6c-0.7-2.5-1.3-5-1.9-7.5c-1.8-1-4-1.2-6-1.8c-1-1.4-2.3-2.7-4.1-2.8
		c-0.9-2.6-1.9-5.1-3.9-7c0.9-2.5,1.1-5.2,0.2-7.7c-1.2-3.3-1.7-7.1-4-9.8c-2.1-2.7-2.9-6.1-2.8-9.4c0.5-0.4,1.4-1.4,1.9-1.8
		c0-7.7,3.5-15,3.2-22.8c-0.9-0.9-1.5-2-2.1-3.1c-1.9,0.2-3.4-1.1-4.8-2.2c1.2-1.1,1-1.6-0.6-1.4l-0.9,0.2c-1-2.5-2.1-5.2-2.2-7.9
		c0.4-2.4,1.5-4.6,2.5-6.8c-0.4-0.3-1.2-0.9-1.7-1.1c2.4-4.6,3.8-9.6,6-14.3c0.9-1.5,2.5-2.4,4-3.3c-0.4-0.2-1.2-0.7-1.6-0.9
		c1-1.1,2.1-2.1,2.6-3.6c-1.7-1.7-4.5-2.2-5.2-4.8c-2.8-5.3-0.4-11.2,1.1-16.5c1.4-2.4,3.9-3.9,5.8-5.9c-0.9-1.3-1.7-2.6-2.5-3.9
		c4-3.7,7.5-8,10.1-12.8c0.8,0.1,1.7,0.2,2.5,0.3c0.6-1,1.1-2.1,1.5-3.1c-0.6,0.2-1.9,0.5-2.5,0.6c-0.5-2-1.1-4-1.6-6
		c-2.6-1.2-2.8-4.4-2.2-6.9c2.5-5.5,6.3-10.5,11.2-14c1.8-0.4,3.7-0.4,5.6-0.5c1.7-4.3,0.6-9.2,2.1-13.6c1.3-3.7,2.4-8,6.2-9.9
		c3-2.3,5.9-4.8,8.5-7.6c1.3-0.1,2.7-0.3,4-0.5c1.5-3.1,3.1-6.4,5.5-8.9c1.5-1.1,3.7-1.4,4.6-3.2c1.4-1.6,0.7-3.8,1.5-5.6
		c1.1-2.3,2.2-4.6,3.3-6.9c1.5-1.3,3.4-2.1,5-3.1c0.1,0.5,0.2,1.5,0.2,2c0.4-0.4,1.3-1.2,1.7-1.6c2.8,0.9,4.5-1.4,5.7-3.6
		c0.9,0.2,1.7,0.4,2.6,0.6c2.9-2.3,1.6-6.2,2.6-9.3c4.5-2.4,8.9-5.3,13.7-7.1c2.4,0.3,4.8-0.1,7-1.2c3.2,2.1,6.9,2.4,10.5,3.1
		c2.2,1.8,4.6,3.1,7.3,4c1.1-1.3,2.3-2.6,3.7-3.8c0.3-1.9,0-4.1,1-5.8c5.2-1.1,9.7-4.3,13-8.3c0.1,0.3,0.4,0.9,0.6,1.2
		c2.2-1.6,4.7-3,6.9-4.6c0.7,0.1,1.5,0.2,2.2,0.4c-0.1-0.7-0.2-1.3-0.3-2c2.6-1,4.9-2.9,7.7-3.1c1.6,0.5,2.4,2.4,3.6,3.5
		c2.3,0.5,2-2.7,2.9-4.1c1.8,1.2,3.3,2.8,4.8,4.3c2.5-1.4,1.5-5.3,3.2-7.5c1.8-0.4,3.9-0.5,5.2-2c2.4-3,6.6-1.5,9.6-3.3
		C245.2,48.9,249.3,48.5,253.4,48.1 M277.6,53.1C276.2,56.2,281,53,277.6,53.1 M223.8,64.9c-0.2,0.3-0.7,0.9-0.9,1.1
		C223.7,69,227.2,64.1,223.8,64.9 M372.9,91.9C373,95.3,375.8,90.4,372.9,91.9 M271.5,122.6c-4.9,0-9.5,2-14.2,3
		c-5.5,1.1-9.7,4.9-14.5,7.5c-4.6,2.2-7.3,6.7-10.6,10.3c-4.8,5-7.6,11.5-10.1,17.9c-0.6,3.6-1.5,7.1-2.4,10.6c0.5,3,1.2,6,0.6,9.1
		c0.7,7.2-0.1,14.6,1.4,21.8c-3.1,6.6-1.8,14.1-1.3,21.1c0.1,1.3,0.3,3-1.3,3.5c-3.5,0.9-7.1,2-10.7,0.9c-2.1-0.6-4.3,0-6.4,0.4
		c-0.7-0.7-1.5-1.4-2.2-2c-1.1,1-2.4,2.7-4.1,2c-4-1.6-8.4-0.8-12.5-0.3c-1.8,0.2-4.2,0.5-4.4,2.8c-0.3,6.6-0.4,13.2-0.2,19.9
		c-1,6.3,0.3,12.7,0.1,19c-0.1,2.4,0.2,5.3,2.3,6.8c3.7,1.1,6.5-2.3,9.9-3c-0.5,1.2-1.3,2.1-2.4,2.7c3.3,1.1,6.8,2.4,10.4,1.5
		c4.1-0.8,8.1,1.3,12.2,0.2c2.8-0.4,6.1-1,8.4,1c0.6,1.9,1.1,3.9,0.8,6c-0.9,6.2,0.3,12.4,0,18.6c-0.8,11.4,0.5,22.8-0.5,34.1
		c0.2,6.7-0.6,13.5,0.7,20.1c0.8,8.3-0.4,16.6,0.2,24.9c0.3,6.9-0.6,13.9,1.2,20.7c1.3,0.4,2.7,0.7,3.4,2c0.8-0.4,1.5-0.9,2.3-1.3
		c2.9,1.9,6.6-0.1,9.3,2.4c3-0.7,6.1,0.2,9.2-0.4c5.5-0.8,11,0,16.5-0.5c3.4-0.8,6.9-1.9,10.5-1.3c2,0.5,3.8-1.4,3.9-3.4
		c2.4-13-0.8-26.1-0.2-39.2c-0.1-3.2,1.6-6.4,0.6-9.5c-0.9-3.2-0.1-6.6-0.4-9.8c-0.7-8.8,0.1-17.7,0.7-26.5
		c0.2-12.3-0.1-24.5,0.1-36.8c0.3-0.3,0.9-0.8,1.2-1.1c5.2-0.5,10.6,0.4,15.7-1.2c2.3-0.8,4.7-0.3,7,0c2.8,0.7,4.9-2.3,7.7-1.7
		c2.6,0.2,5.2,0.6,7.8,0.5c3.4,0.1,7-2,8.5-5c-1-9.7,1.5-19.2,1-28.9c0.1-3.7,0.9-7.3,1.1-11c-6.3-1.8-12.8-2.7-19.2-3.9
		c-10.3-0.8-20.7-1.1-30.9-3.3c0-4.7,0.1-9.4-1-14c0.6-5.6-0.4-11.2,0.1-16.8c1.8-7-0.7-14.9,3.6-21.3c2.8-4.3,8.4-3.8,12.9-4.3
		c7.2-1.6,15.6,2.9,21.9-2.2c0.2,0.4,0.6,1,0.8,1.4c5.7,1.2,11.2-2.3,14.7-6.7c-0.1-2.3-0.3-4.7-0.5-7c0.3-0.2,0.8-0.7,1-1
		c-1.1-3.9-0.7-7.9-0.8-11.9c-1.2-3.6-0.9-7.3-1-10.9c-2.2-3.3-6.4-4.4-10-5.1c-5.3-0.9-10.4-2.8-15.8-2.9c-1.9-0.1-3.6-1-5.4-1.7
		c-0.3,0.5-0.8,1.6-1,2.2c-1.2-0.7-2.3-1.8-3.8-1.6c-4.3-0.1-8.6-0.1-12.9,0C277.5,120.3,274.8,122.6,271.5,122.6 M106.8,128
		c-1.4,0.6-1.4,1.3-0.2,2C108,129.3,108.1,128.7,106.8,128 M63.7,242.2C62.2,245.2,67,242.3,63.7,242.2 M57.9,247.9
		C58.1,251.2,60.8,246.3,57.9,247.9 M435.8,348.3c-1.6,1,0.4,3.3,1.8,2.3C439.1,349.5,437.2,347.1,435.8,348.3 M428.8,362.2
		c-1.1,0.4-1.8,2.2-1,3.2C429.2,365.9,430.4,362.4,428.8,362.2 M86.9,371.2C87.4,371.7,87.4,371.7,86.9,371.2 M124.7,405.1
		C123,408,128,405.4,124.7,405.1 M383.9,413c-1.4,0.6-1.4,1.3-0.1,2C385.1,414.4,385.2,413.7,383.9,413 M354.7,430.1
		C353,433,358,430.4,354.7,430.1 M324.8,446.1C325.4,446.6,325.4,446.6,324.8,446.1 M250.9,454.1
		C251.4,454.6,251.4,454.6,250.9,454.1 M217.1,456c0.2,1.4,0.8,1.6,2,0.7C219,455.3,218.3,455.1,217.1,456 M246.8,460.1
		C247.4,460.6,247.4,460.6,246.8,460.1z"/>
	<path class="st0" d="M279.7,128.2C283.1,128.4,278.2,131.1,279.7,128.2z"/>
	<path class="st0" d="M276.9,139.1C277.4,139.7,277.4,139.7,276.9,139.1z"/>
	<path class="st0" d="M283.7,141.1C287,141.2,282.2,144.1,283.7,141.1z"/>
	<path class="st0" d="M269.8,149C270.4,149.6,270.4,149.6,269.8,149z"/>
	<path class="st0" d="M330.3,152.8C330.2,152.3,330.2,152.3,330.3,152.8z"/>
	<path class="st0" d="M274.9,160.1C275.4,160.7,275.4,160.7,274.9,160.1z"/>
	<path class="st0" d="M281.8,164.1C282.4,164.7,282.4,164.7,281.8,164.1z"/>
	<path class="st0" d="M257.7,174c1.4-0.5,1.9,0,1.4,1.4C257.8,175.8,257.3,175.4,257.7,174z"/>
	<path class="st0" d="M246.8,212.1C247.4,212.6,247.4,212.6,246.8,212.1z"/>
	<path class="st0" d="M265.9,221.2C266.5,221.8,266.5,221.8,265.9,221.2z"/>
	<path class="st0" d="M264.9,223C265.4,223.6,265.4,223.6,264.9,223z"/>
	<path class="st0" d="M281.9,238C282.5,238.5,282.5,238.5,281.9,238z"/>
	<path class="st0" d="M219.8,241c1.6-0.6,2.2,0,1.6,1.6C219.8,243.1,219.3,242.6,219.8,241z"/>
	<path class="st0" d="M243.9,250.1C244.4,250.7,244.4,250.7,243.9,250.1z"/>
	<path class="st0" d="M292.9,253.1C293.4,253.7,293.4,253.7,292.9,253.1z"/>
	<path class="st0" d="M237.9,278.1C238.4,278.6,238.4,278.6,237.9,278.1z"/>
	<path class="st0" d="M270.8,291.8C273.8,290.3,270.9,295.2,270.8,291.8z"/>
	<path class="st0" d="M234.8,321C235.4,321.6,235.4,321.6,234.8,321z"/>
	<path class="st0" d="M257.8,323.9C260.8,322.3,257.9,327.2,257.8,323.9z"/>
	<path class="st0" d="M241.8,326.9C244.8,325.3,241.9,330.2,241.8,326.9z"/>
	<path class="st0" d="M251.8,330.9c1.3,0.7,1.2,1.4-0.1,2C250.4,332.3,250.4,331.6,251.8,330.9z"/>
	<path class="st0" d="M242.9,335.1C243.5,335.6,243.5,335.6,242.9,335.1z"/>
	<path class="st0" d="M242.7,337C246,337.2,241.1,340,242.7,337z"/>
	<path class="st0" d="M245.8,342C248.8,340.4,246,345.3,245.8,342z"/>
	<path class="st0" d="M236.8,344.1c1.4-0.6,1.8-0.1,1.4,1.3C236.8,346,236.3,345.6,236.8,344.1z"/>
	<path class="st0" d="M232.8,352.1C233.4,352.6,233.4,352.6,232.8,352.1z"/>
	<path class="st0" d="M234.9,388.9C237.9,387.4,235.1,392.2,234.9,388.9z"/>
	<path class="st0" d="M236.7,405C237.3,405.5,237.3,405.5,236.7,405z"/>
</g>
<g id="_x23_2c3124ff">
	<path class="st1" d="M277.6,53.1C281,53,276.2,56.2,277.6,53.1z"/>
	<path class="st1" d="M223.8,64.9c3.4-0.8-0.1,4.1-0.9,1.1C223.1,65.7,223.6,65.2,223.8,64.9z"/>
	<path class="st1" d="M372.9,91.9C375.8,90.4,373,95.3,372.9,91.9z"/>
	<path class="st1" d="M271.5,122.6c3.3,0,6-2.2,9.1-2.7c4.3-0.1,8.6-0.1,12.9,0c1.5-0.1,2.6,1,3.8,1.6c0.3-0.5,0.8-1.6,1-2.2
		c1.7,0.7,3.5,1.6,5.4,1.7c5.4,0.1,10.5,2,15.8,2.9c3.7,0.7,7.8,1.8,10,5.1c0.1,3.7-0.2,7.4,1,10.9c0.1,4-0.3,8,0.8,11.9
		c-0.2,0.2-0.8,0.7-1,1c-0.1-0.5-0.1-0.5,0,0c0.2,2.3,0.4,4.6,0.5,7c-3.5,4.3-8.9,7.8-14.7,6.7c-0.2-0.4-0.6-1-0.8-1.4
		c-6.3,5.1-14.7,0.7-21.9,2.2c-4.5,0.5-10.1,0.1-12.9,4.3c-4.3,6.3-1.8,14.3-3.6,21.3c-0.6,5.6,0.5,11.2-0.1,16.8
		c1.1,4.6,1,9.3,1,14c10.2,2.2,20.5,2.4,30.9,3.3c6.4,1.1,12.9,2.1,19.2,3.9c-0.2,3.7-1.1,7.3-1.1,11c0.5,9.7-2,19.2-1,28.9
		c-1.5,3-5.1,5.1-8.5,5c-2.6,0.1-5.2-0.3-7.8-0.5c-2.8-0.6-4.9,2.4-7.7,1.7c-2.3-0.3-4.7-0.8-7,0c-5.1,1.6-10.5,0.7-15.7,1.2
		c-0.3,0.3-0.9,0.8-1.2,1.1c-0.2,12.2,0,24.5-0.1,36.8c-0.7,8.8-1.4,17.7-0.7,26.5c0.3,3.3-0.5,6.6,0.4,9.8c1,3.2-0.7,6.3-0.6,9.5
		c-0.6,13.1,2.6,26.2,0.2,39.2c-0.1,1.9-1.8,3.9-3.9,3.4c-3.6-0.6-7.1,0.4-10.5,1.3c-5.5,0.6-11-0.2-16.5,0.5
		c-3.1,0.6-6.2-0.4-9.2,0.4c-2.7-2.5-6.4-0.5-9.3-2.4c-0.8,0.4-1.5,0.9-2.3,1.3c-0.7-1.2-2.1-1.6-3.4-2c-1.8-6.8-0.9-13.8-1.2-20.7
		c-0.6-8.3,0.6-16.6-0.2-24.9c-1.3-6.6-0.5-13.4-0.7-20.1c1-11.4-0.3-22.7,0.5-34.1c0.3-6.2-0.9-12.4,0-18.6c0.3-2-0.2-4-0.8-6
		c-2.4-1.9-5.7-1.3-8.4-1c-4,1.1-8.1-1-12.2-0.2c-3.5,0.9-7-0.5-10.4-1.5c1.1-0.6,1.9-1.5,2.4-2.7c-3.4,0.7-6.2,4.2-9.9,3
		c-2.1-1.6-2.5-4.4-2.3-6.8c0.3-6.4-1.1-12.7-0.1-19c-0.2-6.6-0.2-13.3,0.2-19.9c0.1-2.3,2.6-2.5,4.4-2.8c4.2-0.4,8.5-1.2,12.5,0.3
		c1.7,0.8,2.9-1,4.1-2c0.7,0.7,1.5,1.4,2.2,2c2.1-0.5,4.3-1.1,6.4-0.4c3.6,1.1,7.2,0,10.7-0.9c1.6-0.5,1.3-2.2,1.3-3.5
		c-0.5-7-1.8-14.5,1.3-21.1c-1.4-7.2-0.7-14.5-1.4-21.8c0.6-3.1-0.1-6.1-0.6-9.1c0.9-3.5,1.8-7,2.4-10.6c2.5-6.4,5.3-12.9,10.1-17.9
		c3.3-3.6,6.1-8.1,10.6-10.3c4.8-2.6,9-6.4,14.5-7.5C262.1,124.6,266.6,122.5,271.5,122.6 M279.7,128.2
		C278.2,131.1,283.1,128.4,279.7,128.2 M276.9,139.1C277.4,139.7,277.4,139.7,276.9,139.1 M283.7,141.1
		C282.2,144.1,287,141.2,283.7,141.1 M269.8,149C270.4,149.6,270.4,149.6,269.8,149 M274.9,160.1
		C275.4,160.7,275.4,160.7,274.9,160.1 M281.8,164.1C282.4,164.7,282.4,164.7,281.8,164.1 M257.7,174c-0.5,1.4,0,1.9,1.4,1.4
		C259.6,174,259.1,173.5,257.7,174 M246.8,212.1C247.4,212.6,247.4,212.6,246.8,212.1 M265.9,221.2
		C266.5,221.8,266.5,221.8,265.9,221.2 M264.9,223C265.4,223.6,265.4,223.6,264.9,223 M281.9,238C282.5,238.5,282.5,238.5,281.9,238
		 M219.8,241c-0.5,1.6,0,2.2,1.6,1.6C222,241,221.4,240.4,219.8,241 M243.9,250.1C244.4,250.7,244.4,250.7,243.9,250.1 M292.9,253.1
		C293.4,253.7,293.4,253.7,292.9,253.1 M237.9,278.1C238.4,278.6,238.4,278.6,237.9,278.1 M270.8,291.8
		C270.9,295.2,273.8,290.3,270.8,291.8 M234.8,321C235.4,321.6,235.4,321.6,234.8,321 M257.8,323.9
		C257.9,327.2,260.8,322.3,257.8,323.9 M241.8,326.9C241.9,330.2,244.8,325.3,241.8,326.9 M251.8,330.9c-1.4,0.7-1.4,1.4-0.1,2
		C253,332.3,253,331.6,251.8,330.9 M242.9,335.1C243.5,335.6,243.5,335.6,242.9,335.1 M242.7,337C241.1,340,246,337.2,242.7,337
		 M245.8,342C246,345.3,248.8,340.4,245.8,342 M236.8,344.1c-0.4,1.5,0,1.9,1.4,1.3C238.6,344,238.1,343.5,236.8,344.1 M232.8,352.1
		C233.4,352.6,233.4,352.6,232.8,352.1 M234.9,388.9C235.1,392.2,237.9,387.4,234.9,388.9 M236.7,405
		C237.3,405.5,237.3,405.5,236.7,405z"/>
	<path class="st1" d="M106.8,128c1.3,0.7,1.2,1.4-0.2,2C105.4,129.3,105.4,128.6,106.8,128z"/>
	<path class="st1" d="M63.7,242.2C67,242.3,62.2,245.2,63.7,242.2z"/>
	<path class="st1" d="M57.9,247.9C60.8,246.3,58.1,251.2,57.9,247.9z"/>
	<path class="st1" d="M52.8,269.7c1.6-0.1,1.8,0.4,0.6,1.4C53.3,270.8,53,270.1,52.8,269.7z"/>
	<path class="st1" d="M428.8,362.2c1.6,0.3,0.4,3.8-1,3.2C427,364.3,427.6,362.6,428.8,362.2z"/>
	<path class="st1" d="M86.9,371.2C87.4,371.7,87.4,371.7,86.9,371.2z"/>
	<path class="st1" d="M413.4,387.3c-0.7-1.5-0.3-1.9,1.1-1.3C414.2,386.3,413.6,387,413.4,387.3z"/>
	<path class="st1" d="M116.7,404.7c2.3-0.7,1.4,2.7-0.2,0.9L116.7,404.7z"/>
	<path class="st1" d="M124.7,405.1C128,405.4,123,408,124.7,405.1z"/>
	<path class="st1" d="M119.7,408.9c1.6,0.3,2.8,1.3,3.9,2.5C122.3,412.9,118.3,410.8,119.7,408.9z"/>
	<path class="st1" d="M383.9,413c1.3,0.7,1.3,1.3-0.1,2C382.5,414.4,382.5,413.7,383.9,413z"/>
	<path class="st1" d="M354.7,430.1C358,430.4,353,433,354.7,430.1z"/>
	<path class="st1" d="M158.2,439.4c1.3,0.1,2.9,1.2,1.7,2.5C158.4,441.7,157.8,440.9,158.2,439.4z"/>
	<path class="st1" d="M160.9,441.8c1.5-0.6,4.3,0.2,2.7,2.1C162.4,444.5,160.2,443.2,160.9,441.8z"/>
	<path class="st1" d="M324.8,446.1C325.4,446.6,325.4,446.6,324.8,446.1z"/>
	<path class="st1" d="M250.9,454.1C251.4,454.6,251.4,454.6,250.9,454.1z"/>
	<path class="st1" d="M217.1,456c1.2-0.9,1.9-0.7,2,0.7C217.9,457.6,217.3,457.4,217.1,456z"/>
	<path class="st1" d="M220.7,457.6c0.5-0.2,1.5-0.6,1.9-0.7l-0.2,0.9C221.9,457.7,221.1,457.6,220.7,457.6z"/>
	<path class="st1" d="M246.8,460.1C247.4,460.6,247.4,460.6,246.8,460.1z"/>
	<path class="st1" d="M290.6,462.7c1.7-1,3.4-1.9,5.1-2.8c-0.4,0.9-0.9,1.9-1.3,2.8C293.1,462.7,291.9,462.7,290.6,462.7z"/>
	<path class="st1" d="M227.4,462.7c1.8-0.2,3.5-0.9,5-1.8c0,0.8,0.1,2.5,0.1,3.4c2.6,0.3,5.2-0.4,7.8-0.7c0.3,0.4,0.9,1,1.2,1.4
		l0.6,0.7c-4.3-1-8.6-1.2-13-1.4C228.7,463.8,227.8,463,227.4,462.7z"/>
	<path class="st1" d="M282.9,465.1C283.4,465.6,283.4,465.6,282.9,465.1z"/>
</g>
</svg>
