<?xml version="1.0" encoding="UTF-8"?>
<svg id="Layer_1" data-name="Layer 1" xmlns="http://www.w3.org/2000/svg" viewBox="0 0 526.945 490.549">
  <defs>
    <style>
      .cls-1 {
        fill: #93cc27;
      }

      .cls-1, .cls-2 {
        stroke-width: 0px;
      }

      .cls-2 {
        fill: #0c0d08;
      }
    </style>
  </defs>
  <rect class="cls-1" width="526.945" height="490.549" rx="49.055" ry="49.055"/>
  <path class="cls-2" d="M241.551,54.837c14.45-6.05,30.25-8.003,45.812-7.844,14.276.73,28.583.437,42.859,1.286,16.443-.008,32.871.786,49.314.842,2.707-.341,4.391,2.43,4.557,4.796.468,5.423-.842,10.79-.778,16.213-1.334,15.967-.762,32.013-.723,48.012.397,3.565-3.382,5.216-6.36,5.224-16.92-.405-33.831-1.644-50.767-1.247-10.107.468-20.77,4.422-26.781,12.926-6.034,8.734-6.947,19.691-6.908,29.988-.492,8.98-.826,17.991-.421,26.987.048,2.175.691,4.796,2.954,5.661,2.922.675,5.963.548,8.948.675,10.6.024,21.191-.008,31.791.024,12.95.405,25.915.786,38.873.826,1.683-.016,3.096,1.008,4.542,1.747.881,8.678-1.159,17.301-2.255,25.876-1.747,11.409-2.422,22.938-3.486,34.419-.572,4.677-.302,9.393-.484,14.093-.103,1.826-1.254,3.732-3.176,4.057-11.584.818-23.208,1.223-34.832.905-11.663.326-23.327-.778-34.975.04-2.85.127-5.987-.191-8.416,1.612-1.913,1.382-1.961,3.93-2.009,6.058-.103,16.951.381,33.919-.437,50.854.191,10.862.048,21.723.143,32.593.675,11.362-.286,22.731-.111,34.101.103,13.76-.397,27.535.294,41.287-.135,4.764.754,9.861-1.286,14.339-1.588,2.922-5.256,2.128-7.979,2.287-5.59.572-11.155-.437-16.745-.278-7.9-.834-15.832-.032-23.748-.119-8.988-.31-17.991-.508-26.971.127-4.669.159-9.369.445-14.022-.087-3.478-.389-4.502-4.565-4.335-7.487.532-5.709-.056-11.457.54-17.158.762-9.147-.437-18.341.54-27.471-.119-5.002.357-9.98.492-14.966-.349-21.271.897-42.509.985-63.772.723-15.53.429-31.092.691-46.63.135-2.072-1.032-4.081-2.938-4.915-6.082-1.175-12.315-1.262-18.492-.953-9.798.135-19.603-.119-29.393.349-2.279.04-4.613.238-6.844-.318-2.469-2.001-2.152-5.55-2.08-8.4.357-4.788.032-9.615.651-14.387.85-8.154-.111-16.38.762-24.526.842-8.996-.397-18.023.278-27.019.183-1.731-.222-3.851,1.358-5.05,1.302-1.429,3.335-1.239,5.081-1.548,5.256-.834,10.592-.349,15.879-.516,7.4-.286,14.8-.135,22.192-.611,4.081-.206,9.202.246,12.132-3.152,1.088-3.93.381-8.114.476-12.148.04-16.666-.246-33.347.262-50.012-.056-8.845-.429-17.872,1.921-26.487,5.089-22.692,21.81-42.462,43.422-51.1l.003-.003Z"/>
</svg>