<?xml version="1.0" encoding="utf-8"?>
<!-- Generator: Adobe Illustrator 28.2.0, SVG Export Plug-In . SVG Version: 6.00 Build 0)  -->
<svg version="1.1" id="Capa_1" xmlns="http://www.w3.org/2000/svg" xmlns:xlink="http://www.w3.org/1999/xlink" x="0px" y="0px"
	 viewBox="0 0 800 800" style="enable-background:new 0 0 800 800;" xml:space="preserve">
<style type="text/css">
	.st0{fill:#FFFFFF;}
</style>
<g>
	<path class="st0" d="M728.5,228.8c-105.7-173.6-264.8-52.8-264.8-52.8c-10.3,7.8-29.4,14.2-42.3,14.2l-42.6,0
		c-12.9,0-32-6.4-42.3-14.2c0,0-159.2-120.8-264.9,52.8C-34.1,402.3,8.5,591.3,8.5,591.3c7.5,46.3,32,77.2,78.4,73.3
		C133.2,660.8,233.6,540,233.6,540c8.3-10,25.7-18.1,38.6-18.1l255.6,0c12.9,0,30.3,8.1,38.6,18.1c0,0,100.4,120.8,146.8,124.6
		c46.3,3.9,71-27,78.4-73.3C791.5,591.3,834.1,402.3,728.5,228.8z M303.9,370.1h-54.8v52.8c0,0-11.6,8.9-29.6,8.6
		c-17.9-0.3-26-9.7-26-9.7v-51.8h-51.8c0,0-6.5-6.6-8.2-24.1c-1.7-17.4,7.1-31.5,7.1-31.5h54.8v-54.8c0,0,11.3-6,27.5-5.6
		c16.2,0.5,28.1,6.6,28.1,6.6l-0.2,53.8h51.8c0,0,9,11.6,9.8,25.6C313.2,354.1,303.9,370.1,303.9,370.1z M555.3,430.3
		c-24,0-43.4-19.4-43.4-43.4c0-24,19.3-43.4,43.4-43.4c23.9,0,43.4,19.4,43.4,43.4C598.7,410.9,579.2,430.3,555.3,430.3z
		 M555.3,310.9c-24,0-43.4-19.4-43.4-43.4c0-24,19.3-43.4,43.4-43.4c23.9,0,43.4,19.4,43.4,43.4
		C598.7,291.5,579.2,310.9,555.3,310.9z M663.4,375c-24,0-43.4-19.4-43.4-43.4c0-24,19.3-43.4,43.4-43.4c23.9,0,43.4,19.4,43.4,43.4
		C706.8,355.6,687.3,375,663.4,375z"/>
</g>
</svg>
