<?xml version="1.0" encoding="UTF-8" ?>
<!DOCTYPE svg PUBLIC "-//W3C//DTD SVG 1.1//EN" "http://www.w3.org/Graphics/SVG/1.1/DTD/svg11.dtd">
<svg width="512pt" height="512pt" viewBox="0 0 512 512" version="1.1" xmlns="http://www.w3.org/2000/svg">
<g id="#bdce45ff">
<path fill="#bdce45" opacity="1.00" d=" M 228.71 88.72 C 232.74 88.68 236.26 86.63 240.02 85.51 C 245.17 85.04 248.59 89.82 253.17 91.34 C 257.21 91.15 261.21 89.67 265.29 90.60 C 269.78 90.61 274.29 90.33 278.79 90.19 C 282.73 91.26 285.08 95.72 289.40 95.95 C 289.88 97.15 290.36 98.35 290.82 99.56 C 295.25 99.39 299.18 103.90 303.50 101.58 C 306.65 100.25 309.95 99.07 313.43 99.20 C 313.64 98.67 314.08 97.62 314.30 97.09 C 316.46 97.39 319.05 96.67 320.84 98.23 C 324.06 100.98 328.45 103.36 332.79 102.33 C 334.54 104.90 336.99 106.83 339.35 108.79 C 341.23 109.16 343.16 108.85 345.06 108.80 C 349.86 114.28 357.43 115.60 363.11 119.90 C 364.53 122.59 364.83 125.81 366.61 128.34 C 369.80 130.15 372.26 133.00 375.73 134.37 C 381.50 141.12 388.27 148.90 397.95 148.99 C 400.64 148.52 400.96 151.52 401.87 153.29 C 404.38 155.21 407.25 156.62 410.13 157.91 C 408.34 161.17 410.67 164.37 411.46 167.56 C 414.14 171.17 415.66 175.43 417.79 179.36 C 420.27 183.58 416.85 189.54 421.06 192.95 C 424.71 196.94 427.49 203.55 423.56 208.25 C 424.64 211.59 426.61 214.44 429.32 216.68 C 432.43 219.10 432.40 223.24 433.39 226.72 C 435.43 227.58 437.61 227.92 439.77 227.30 C 442.10 231.04 444.48 235.26 443.58 239.85 C 444.33 240.18 445.81 240.86 446.56 241.19 C 446.45 241.64 446.23 242.55 446.12 243.00 C 444.84 245.08 448.24 245.05 447.03 242.96 L 446.90 241.65 C 447.67 242.44 448.15 243.37 448.34 244.44 C 448.79 250.97 449.48 257.50 450.45 263.97 C 451.16 263.85 451.88 263.73 452.60 263.62 C 456.04 266.13 456.65 270.48 456.21 274.47 C 458.07 276.50 458.04 279.39 457.51 281.94 C 456.03 284.63 453.62 286.70 452.38 289.54 C 450.77 293.19 449.36 297.08 449.38 301.12 C 448.51 305.86 452.48 309.81 451.58 314.58 C 456.51 317.93 453.46 324.11 451.94 328.51 C 449.68 333.25 449.91 338.66 451.55 343.52 C 451.38 347.73 451.77 351.88 452.18 356.06 C 450.28 356.85 446.77 355.59 446.20 358.19 C 447.04 363.96 449.82 369.93 447.72 375.74 C 447.03 378.03 446.96 380.59 445.65 382.65 C 444.21 384.03 442.33 384.77 440.53 385.54 C 439.90 387.94 439.04 390.36 437.25 392.15 C 434.10 395.60 433.34 400.79 429.33 403.48 C 429.45 404.51 429.59 405.55 429.71 406.59 C 427.27 409.70 423.23 410.81 420.93 414.04 C 418.99 415.80 419.36 418.74 417.84 420.76 C 415.39 424.26 413.80 428.92 409.50 430.55 C 408.34 431.94 407.50 433.57 407.12 435.34 C 405.15 435.80 402.65 435.49 401.26 437.24 C 397.97 440.76 394.42 444.09 391.69 448.08 C 389.62 448.40 387.52 448.43 385.43 448.46 C 384.39 450.99 384.27 454.11 381.89 455.87 C 378.06 460.02 375.17 465.22 370.35 468.37 C 367.95 469.34 365.42 469.01 362.95 468.69 C 360.38 468.96 357.89 469.80 355.33 470.19 C 354.02 474.18 352.37 478.30 349.14 481.14 C 345.83 484.33 343.69 488.61 339.82 491.23 C 337.35 491.78 334.81 491.99 332.28 492.05 C 332.22 492.80 332.10 494.32 332.04 495.08 C 331.27 495.13 329.75 495.23 328.98 495.28 C 326.88 495.34 324.80 495.01 322.73 494.70 C 323.77 495.64 324.81 496.59 325.85 497.54 C 324.55 499.24 323.34 501.19 321.40 502.24 C 317.22 502.87 312.51 503.81 309.01 500.75 C 308.19 501.60 307.38 502.47 306.53 503.29 C 306.49 502.45 306.40 500.77 306.36 499.92 C 305.46 499.82 303.65 499.62 302.75 499.52 L 302.73 498.77 C 302.71 498.17 302.66 496.98 302.64 496.38 C 299.38 496.84 296.09 497.49 293.15 499.02 C 289.92 501.42 285.77 500.75 282.18 502.10 C 280.33 502.93 278.31 501.97 276.41 502.42 C 273.69 503.06 271.00 503.86 268.23 504.35 C 267.97 505.42 267.72 506.49 267.48 507.58 C 264.81 507.13 262.12 506.67 259.73 505.33 C 256.01 505.00 252.50 506.31 248.93 507.10 C 246.34 508.13 244.85 505.22 243.15 503.83 C 240.72 504.82 237.23 507.50 235.53 504.09 C 231.52 506.79 226.76 507.72 222.09 508.57 C 217.22 508.05 215.11 502.61 214.79 498.33 C 213.70 497.76 210.83 498.43 211.40 496.50 C 211.87 496.07 212.79 495.22 213.25 494.79 C 210.44 493.82 208.50 496.58 206.16 497.60 C 203.63 497.97 200.99 497.54 198.56 498.49 C 195.07 499.31 192.21 501.59 188.88 502.79 C 187.04 502.41 185.40 501.31 184.01 500.11 C 182.70 498.75 181.29 497.47 179.58 496.65 C 176.66 494.80 172.46 494.12 171.20 490.47 C 170.29 490.56 169.39 490.65 168.49 490.75 C 168.11 489.73 167.74 488.72 167.36 487.71 L 166.65 487.41 C 163.10 488.05 158.70 487.89 156.28 484.82 C 154.33 481.96 151.23 480.29 148.59 478.16 C 146.18 476.54 143.55 478.43 141.12 478.90 C 138.11 478.86 135.16 477.99 132.56 476.50 C 130.96 474.86 129.15 473.48 127.20 472.29 C 126.65 472.62 125.55 473.28 125.00 473.61 C 122.66 472.56 120.67 470.83 118.50 469.47 C 118.11 467.54 118.97 465.04 117.54 463.54 C 114.83 462.59 111.64 462.64 109.36 460.75 C 108.49 456.78 106.67 453.10 103.98 450.05 C 101.16 446.82 99.96 442.41 96.52 439.69 C 96.96 438.19 97.38 436.70 97.82 435.21 C 96.82 434.92 95.83 434.64 94.83 434.35 C 94.12 431.96 93.73 428.89 91.12 427.79 C 84.62 425.59 77.57 423.36 72.70 418.30 C 68.88 411.86 65.03 404.69 65.79 396.94 C 64.58 397.72 63.38 398.49 62.15 399.25 C 60.12 397.10 57.73 394.99 56.96 392.01 C 55.98 388.93 54.96 385.71 52.47 383.49 C 50.33 381.60 49.25 378.66 49.20 375.88 C 49.01 375.39 48.63 374.41 48.44 373.92 C 45.78 371.15 42.84 368.56 40.71 365.34 C 38.64 359.66 41.91 354.12 42.80 348.55 C 43.77 346.42 45.10 344.38 44.87 341.93 C 42.40 341.94 40.09 340.33 39.32 337.99 C 38.98 336.14 40.95 335.22 41.96 334.05 C 41.53 332.20 41.22 330.32 40.98 328.44 C 42.76 327.96 44.33 327.02 45.57 325.65 C 44.77 325.60 43.18 325.52 42.39 325.47 C 42.16 322.80 45.78 321.26 44.46 318.61 C 43.44 316.54 43.88 314.27 44.24 312.11 C 43.71 312.14 42.63 312.20 42.09 312.23 C 40.82 312.27 39.55 312.28 38.29 312.24 C 34.26 310.33 34.05 304.87 34.96 301.04 C 35.05 297.32 38.58 295.26 40.46 292.44 C 41.90 288.14 38.84 283.26 34.44 282.39 C 34.15 279.52 32.77 277.02 31.00 274.79 C 31.71 271.75 32.01 268.35 34.53 266.18 C 32.73 263.11 33.94 259.87 35.95 257.27 C 36.71 257.76 37.47 258.26 38.23 258.75 C 39.39 252.87 42.33 247.54 43.93 241.79 C 47.04 237.85 48.39 232.86 51.60 228.99 C 45.86 227.88 45.91 220.65 48.66 216.71 C 50.16 214.11 51.06 211.22 52.58 208.64 C 54.77 206.23 58.50 206.02 60.56 203.47 C 61.52 200.82 62.15 198.04 63.53 195.55 C 65.74 193.07 67.91 190.51 70.63 188.55 C 72.88 187.06 73.37 184.10 75.45 182.44 C 78.67 179.90 81.01 176.50 84.01 173.73 C 83.73 172.56 83.44 171.39 83.16 170.23 C 84.51 168.89 85.66 167.36 87.04 166.06 C 89.61 164.63 92.40 163.56 94.76 161.76 C 96.58 160.24 99.47 159.85 100.32 157.37 C 102.08 154.20 102.32 150.40 104.37 147.37 C 106.08 144.93 107.73 142.45 109.13 139.81 C 109.76 137.38 109.25 134.86 109.21 132.39 C 111.41 131.42 113.69 130.64 116.03 130.10 C 118.92 130.72 121.22 132.58 123.23 134.65 C 125.20 133.22 127.17 130.99 126.56 128.38 C 126.06 126.14 125.93 123.79 127.05 121.71 C 131.14 122.04 134.56 125.65 138.79 124.03 C 138.93 123.56 139.21 122.61 139.34 122.14 C 139.59 123.19 140.00 124.17 140.56 125.10 C 141.96 123.38 143.02 121.27 145.02 120.12 C 147.92 118.59 149.52 115.62 151.96 113.53 C 152.06 113.03 152.24 112.04 152.33 111.54 C 152.16 109.58 153.00 107.64 153.85 105.91 C 155.92 104.44 158.34 103.19 160.91 102.92 C 163.33 103.50 165.48 104.89 167.90 105.49 C 169.82 104.87 171.72 104.16 173.76 104.06 L 173.72 104.99 C 173.71 105.47 173.69 106.41 173.68 106.89 C 174.84 106.61 176.29 106.42 176.92 105.25 C 178.87 102.40 180.02 99.08 182.11 96.32 C 182.24 96.78 182.48 97.69 182.60 98.14 C 185.18 95.85 187.93 93.69 191.02 92.15 C 193.94 90.97 197.07 90.42 200.06 89.45 C 201.55 90.47 203.09 91.41 204.68 92.28 C 205.23 91.17 205.78 90.07 206.33 88.97 C 209.57 89.11 212.69 90.04 215.80 90.93 C 219.06 91.96 222.61 91.87 225.71 93.44 C 226.75 91.90 227.79 90.34 228.71 88.72 M 341.62 110.10 C 340.85 111.31 342.97 112.47 343.79 111.45 C 344.55 110.20 342.43 109.01 341.62 110.10 M 404.08 163.66 C 405.46 163.81 406.84 163.95 408.22 164.09 C 407.08 162.88 406.00 161.62 405.11 160.22 C 404.78 161.37 404.42 162.51 404.08 163.66 M 213.91 169.80 C 211.88 169.22 209.79 168.60 207.65 168.87 C 202.31 169.34 196.96 168.76 191.62 168.84 C 188.11 169.42 184.49 170.86 181.13 168.84 C 177.14 172.28 171.87 170.33 167.18 171.22 C 162.32 172.13 156.67 172.24 152.98 175.98 C 148.75 180.28 141.51 179.84 137.81 184.83 C 135.46 188.13 132.09 190.45 129.35 193.38 C 127.62 195.68 126.60 198.46 124.69 200.64 C 120.87 204.91 118.59 210.24 116.48 215.50 C 112.32 221.27 111.10 228.43 108.99 235.08 C 106.60 242.50 107.00 250.34 106.25 258.00 C 106.13 261.51 108.87 264.92 107.32 268.38 C 105.64 272.53 105.93 277.01 106.20 281.38 C 105.66 285.85 105.77 290.37 105.37 294.85 C 106.40 301.91 104.72 308.96 105.04 316.03 C 105.96 321.91 103.63 328.16 107.11 333.53 C 106.56 333.54 105.47 333.57 104.93 333.58 C 105.85 339.69 104.64 345.82 105.00 351.97 C 104.46 357.26 107.86 361.86 107.96 367.07 C 107.86 370.73 109.41 374.11 110.50 377.52 C 111.95 381.40 112.49 385.63 114.70 389.21 C 116.58 392.46 117.22 396.38 119.74 399.27 C 124.66 405.10 127.70 412.46 133.85 417.20 C 139.21 422.88 146.34 426.36 153.37 429.47 C 158.03 429.65 162.39 431.46 166.90 432.44 C 172.29 432.23 177.49 434.35 182.90 433.69 C 188.57 434.55 194.43 436.57 200.12 434.51 C 200.63 435.47 201.14 436.45 201.63 437.43 C 204.59 436.78 207.64 436.89 210.62 437.34 C 212.72 437.79 214.85 436.52 216.92 437.29 C 221.13 438.50 225.54 437.67 229.82 437.42 C 231.05 437.86 232.16 438.56 233.30 439.20 C 234.18 438.20 235.24 437.40 236.42 436.77 C 236.94 437.24 238.00 438.16 238.53 438.62 C 241.87 438.93 245.23 439.34 248.59 439.39 C 254.62 438.51 260.87 439.69 266.78 437.88 C 269.29 436.92 271.78 438.42 274.33 438.24 C 281.61 437.85 289.84 439.79 296.03 434.76 C 296.82 435.40 297.61 436.06 298.40 436.72 C 301.15 436.20 303.92 436.63 306.68 436.64 C 310.12 435.77 313.38 434.25 316.89 433.60 C 321.26 432.93 325.17 430.45 329.71 430.74 C 335.33 428.27 340.92 425.70 346.77 423.77 C 347.04 422.71 347.33 421.64 347.63 420.59 C 352.92 419.45 355.09 414.08 359.16 411.15 C 361.96 407.90 363.66 403.83 366.53 400.60 C 369.79 397.06 370.56 392.11 373.45 388.34 C 376.36 380.86 379.07 373.20 380.17 365.21 C 380.58 362.38 381.73 359.74 382.24 356.94 C 382.41 353.84 383.57 350.35 380.96 347.92 C 382.21 344.55 382.50 340.97 382.64 337.41 C 383.99 329.27 384.95 320.77 382.33 312.76 C 382.13 308.56 384.43 303.80 381.83 299.91 C 383.95 296.31 382.63 291.94 383.00 287.99 C 383.46 282.14 381.43 276.55 380.36 270.89 C 380.68 265.79 381.69 260.76 382.77 255.77 C 383.91 249.04 381.98 242.45 379.91 236.13 C 377.92 224.30 373.47 212.91 367.52 202.51 C 363.06 197.62 359.82 191.58 354.29 187.71 C 351.95 186.15 350.60 183.40 348.01 182.20 C 343.43 180.16 339.28 177.19 334.53 175.55 C 325.58 173.14 316.54 170.82 307.34 169.76 C 306.51 169.17 305.69 168.55 304.91 167.89 C 304.56 168.27 303.86 169.03 303.51 169.41 C 302.02 168.93 300.55 168.44 299.08 167.93 C 298.04 168.66 297.01 169.40 295.97 170.14 C 291.81 169.29 287.60 167.28 283.30 168.34 C 279.47 169.33 275.49 169.08 271.60 168.62 C 268.60 168.07 265.91 169.99 262.97 170.02 C 259.68 170.25 256.55 168.38 253.26 169.17 C 249.83 169.85 246.34 170.11 242.86 170.35 C 239.99 170.59 237.27 169.18 234.40 169.46 C 228.89 169.96 223.13 169.41 218.01 167.22 C 216.65 168.09 215.29 168.95 213.91 169.80 M 414.28 181.11 C 414.41 184.44 417.25 179.58 414.28 181.11 M 61.52 225.30 C 60.79 226.46 62.72 227.88 63.66 226.90 C 64.42 225.72 62.44 224.39 61.52 225.30 M 436.06 237.46 C 434.91 238.27 436.16 240.40 437.38 239.47 C 438.51 238.66 437.26 236.56 436.06 237.46 M 42.21 277.56 C 41.28 278.70 41.52 279.36 42.94 279.53 C 43.87 278.39 43.63 277.73 42.21 277.56 M 411.30 423.09 C 411.41 426.43 414.27 421.57 411.30 423.09 M 146.21 471.08 C 146.46 474.37 149.22 469.52 146.21 471.08 M 315.17 499.14 C 313.82 499.78 313.80 500.44 315.10 501.12 C 316.45 500.46 316.47 499.80 315.17 499.14 M 257.47 503.19 C 257.66 504.56 258.36 504.81 259.55 503.92 C 259.35 502.55 258.66 502.30 257.47 503.19 Z" />
<path fill="#bdce45" opacity="1.00" d=" M 218.47 188.11 C 219.87 187.66 220.36 188.14 219.91 189.54 C 218.52 189.97 218.04 189.49 218.47 188.11 Z" />
<path fill="#bdce45" opacity="1.00" d=" M 256.77 191.66 C 262.50 190.87 268.33 189.58 274.11 190.69 C 281.41 191.32 288.75 190.85 296.07 191.00 C 311.57 192.47 326.41 198.26 339.64 206.33 C 346.36 211.60 350.50 219.22 354.52 226.57 C 356.25 232.89 358.29 239.34 358.00 245.98 C 357.91 249.72 358.26 253.45 358.46 257.18 C 357.68 271.44 358.03 285.73 358.00 300.00 C 358.38 308.33 358.52 316.76 357.06 324.99 C 356.88 329.93 357.66 334.87 356.71 339.78 C 354.89 348.20 357.26 356.90 355.36 365.31 C 354.58 369.03 354.19 372.82 353.58 376.56 C 351.33 382.20 349.66 388.16 346.40 393.34 C 336.97 400.47 326.52 407.80 314.23 408.10 C 309.60 410.17 304.52 410.51 299.60 411.50 C 295.41 411.91 290.78 412.88 287.10 410.23 C 283.13 413.43 277.86 411.30 273.28 412.23 C 271.60 413.09 270.44 415.68 268.27 414.87 C 266.69 414.12 265.39 412.31 263.45 412.79 C 256.85 414.24 250.02 412.92 243.35 414.27 C 239.38 415.26 235.31 412.80 231.44 414.47 C 228.92 415.66 226.46 413.15 223.89 413.98 C 222.47 414.42 221.03 414.09 219.63 413.75 C 217.38 414.50 214.95 414.67 212.60 414.35 C 209.26 413.84 205.84 414.25 202.55 413.40 C 198.68 412.51 194.73 413.30 190.84 413.45 C 182.83 412.47 174.82 411.18 167.09 408.82 C 162.75 406.78 158.48 404.54 153.92 403.04 C 150.54 399.78 146.65 396.97 143.94 393.08 C 141.61 389.07 136.41 386.78 136.68 381.50 C 135.88 380.90 135.11 380.26 134.38 379.59 C 132.26 372.48 132.40 364.91 129.99 357.88 C 130.08 352.78 127.25 347.82 128.68 342.78 C 129.07 338.77 129.45 334.57 128.22 330.66 C 127.37 327.97 128.12 325.14 128.45 322.43 C 129.51 315.90 128.35 309.21 129.63 302.72 C 130.82 293.17 128.91 283.40 130.83 273.94 C 130.58 271.70 129.03 269.47 130.05 267.23 C 131.47 263.29 131.11 259.05 130.77 254.97 C 130.42 249.32 133.41 244.11 133.34 238.51 C 133.00 233.87 137.44 229.71 134.96 225.10 C 135.35 225.23 136.14 225.49 136.53 225.61 C 139.66 218.02 145.13 211.64 150.23 205.27 C 152.57 202.03 156.64 201.07 159.62 198.60 C 162.54 196.31 166.10 194.18 169.95 194.56 C 173.91 194.68 177.80 193.10 181.75 193.87 C 183.26 194.11 184.68 193.35 186.15 193.12 C 193.72 191.88 201.40 192.98 209.01 192.34 C 212.80 192.37 216.63 192.03 220.40 192.66 C 225.40 193.72 230.70 190.17 235.22 193.60 C 237.88 191.92 240.94 192.55 243.88 192.57 C 248.15 191.87 252.48 192.09 256.77 191.66 M 315.42 219.41 C 310.05 221.20 303.98 225.58 304.88 232.00 C 304.04 242.41 317.56 249.63 326.06 244.07 C 328.40 242.33 330.78 240.02 330.99 236.93 C 331.54 232.26 331.01 226.96 327.70 223.36 C 324.57 220.19 319.89 217.90 315.42 219.41 M 241.54 231.05 C 230.99 232.86 220.54 235.50 210.67 239.70 C 201.23 244.70 192.03 250.86 185.72 259.66 C 174.69 271.21 170.26 287.41 169.60 303.01 C 168.91 316.47 173.77 329.44 179.74 341.26 C 182.26 346.45 186.78 350.18 190.37 354.58 C 202.33 366.05 217.83 373.12 233.70 377.35 C 235.84 378.01 238.09 377.56 240.28 377.48 C 250.68 378.78 261.04 375.51 270.63 371.72 C 282.85 367.51 292.27 358.07 300.55 348.53 C 305.51 341.92 310.89 335.25 313.24 327.18 C 315.84 319.76 316.95 311.90 317.21 304.08 C 318.24 299.47 316.22 295.04 315.50 290.55 C 314.17 282.32 311.07 274.39 306.78 267.26 C 303.78 261.81 299.05 257.66 295.25 252.79 C 287.03 244.71 277.19 237.82 265.78 235.22 C 262.75 234.83 260.13 232.87 257.02 232.98 C 251.84 232.64 246.74 230.98 241.54 231.05 Z" />
<path fill="#bdce45" opacity="1.00" d=" M 116.19 230.16 C 117.82 229.65 118.37 230.21 117.84 231.84 C 116.23 232.33 115.68 231.77 116.19 230.16 Z" />
<path fill="#bdce45" opacity="1.00" d=" M 320.33 240.07 C 323.31 238.57 320.41 243.41 320.33 240.07 Z" />
<path fill="#bdce45" opacity="1.00" d=" M 255.26 250.20 C 255.80 250.74 255.80 250.74 255.26 250.20 Z" />
<path fill="#bdce45" opacity="1.00" d=" M 234.41 255.51 C 241.11 254.07 247.87 256.14 254.33 257.76 C 259.54 259.84 265.23 260.88 269.99 263.98 C 278.77 269.58 285.55 278.17 289.16 287.92 C 293.76 301.30 292.74 316.50 286.10 329.03 C 281.99 338.63 273.68 346.11 264.21 350.26 C 256.34 354.78 246.93 355.34 238.06 354.91 C 231.43 353.17 224.81 350.86 219.22 346.81 C 212.26 343.38 207.75 336.90 202.88 331.16 C 201.00 328.28 199.49 325.17 197.44 322.39 C 195.82 316.14 193.22 309.93 193.49 303.38 C 194.82 298.90 195.07 294.18 196.58 289.75 C 198.69 282.58 202.83 276.23 207.20 270.25 C 214.36 262.65 224.13 257.31 234.41 255.51 Z" />
<path fill="#bdce45" opacity="1.00" d=" M 119.32 283.15 C 122.24 281.55 119.53 286.49 119.32 283.15 Z" />
<path fill="#bdce45" opacity="1.00" d=" M 301.24 338.20 C 301.81 338.75 301.81 338.75 301.24 338.20 Z" />
<path fill="#bdce45" opacity="1.00" d=" M 284.32 343.25 C 284.85 343.79 284.85 343.79 284.32 343.25 Z" />
<path fill="#bdce45" opacity="1.00" d=" M 265.23 355.10 C 266.85 354.57 267.40 355.13 266.86 356.77 C 265.24 357.28 264.70 356.73 265.23 355.10 Z" />
<path fill="#bdce45" opacity="1.00" d=" M 274.19 419.17 C 274.77 419.74 274.77 419.74 274.19 419.17 Z" />
<path fill="#bdce45" opacity="1.00" d=" M 173.36 421.05 C 176.34 419.53 173.45 424.38 173.36 421.05 Z" />
</g>
<g id="#2c3123fe">
<path fill="#2c3123" opacity="1.00" d=" M 173.72 104.99 C 174.41 103.93 176.52 103.93 176.92 105.25 C 176.29 106.42 174.84 106.61 173.68 106.89 C 173.69 106.41 173.71 105.47 173.72 104.99 Z" />
<path fill="#2c3123" opacity="1.00" d=" M 341.62 110.10 C 342.43 109.01 344.55 110.20 343.79 111.45 C 342.97 112.47 340.85 111.31 341.62 110.10 Z" />
<path fill="#2c3123" opacity="1.00" d=" M 151.51 111.87 L 152.33 111.54 C 152.24 112.04 152.06 113.03 151.96 113.53 L 151.32 112.89 L 151.51 111.87 Z" />
<path fill="#2c3123" opacity="1.00" d=" M 213.91 169.80 C 215.29 168.95 216.65 168.09 218.01 167.22 C 223.13 169.41 228.89 169.96 234.40 169.46 C 237.27 169.18 239.99 170.59 242.86 170.35 C 246.34 170.11 249.83 169.85 253.26 169.17 C 256.55 168.38 259.68 170.25 262.97 170.02 C 265.91 169.99 268.60 168.07 271.60 168.62 C 275.49 169.08 279.47 169.33 283.30 168.34 C 287.60 167.28 291.81 169.29 295.97 170.14 C 297.01 169.40 298.04 168.66 299.08 167.93 C 300.55 168.44 302.02 168.93 303.51 169.41 C 303.86 169.03 304.56 168.27 304.91 167.89 C 305.69 168.55 306.51 169.17 307.34 169.76 C 316.54 170.82 325.58 173.14 334.53 175.55 C 339.28 177.19 343.43 180.16 348.01 182.20 C 350.60 183.40 351.95 186.15 354.29 187.71 C 359.82 191.58 363.06 197.62 367.52 202.51 C 373.47 212.91 377.92 224.30 379.91 236.13 C 381.98 242.45 383.91 249.04 382.77 255.77 C 381.69 260.76 380.68 265.79 380.36 270.89 C 381.43 276.55 383.46 282.14 383.00 287.99 C 382.63 291.94 383.95 296.31 381.83 299.91 C 384.43 303.80 382.13 308.56 382.33 312.76 C 384.95 320.77 383.99 329.27 382.64 337.41 C 382.50 340.97 382.21 344.55 380.96 347.92 C 383.57 350.35 382.41 353.84 382.24 356.94 C 381.73 359.74 380.58 362.38 380.17 365.21 C 379.07 373.20 376.36 380.86 373.45 388.34 C 370.56 392.11 369.79 397.06 366.53 400.60 C 363.66 403.83 361.96 407.90 359.16 411.15 C 355.09 414.08 352.92 419.45 347.63 420.59 C 347.33 421.64 347.04 422.71 346.77 423.77 C 340.92 425.70 335.33 428.27 329.71 430.74 C 325.17 430.45 321.26 432.93 316.89 433.60 C 313.38 434.25 310.12 435.77 306.68 436.64 C 303.92 436.63 301.15 436.20 298.40 436.72 C 297.61 436.06 296.82 435.40 296.03 434.76 C 289.84 439.79 281.61 437.85 274.33 438.24 C 271.78 438.42 269.29 436.92 266.78 437.88 C 260.87 439.69 254.62 438.51 248.59 439.39 C 245.23 439.34 241.87 438.93 238.53 438.62 C 238.00 438.16 236.94 437.24 236.42 436.77 C 235.24 437.40 234.18 438.20 233.30 439.20 C 232.16 438.56 231.05 437.86 229.82 437.42 C 225.54 437.67 221.13 438.50 216.92 437.29 C 214.85 436.52 212.72 437.79 210.62 437.34 C 207.64 436.89 204.59 436.78 201.63 437.43 C 201.14 436.45 200.63 435.47 200.12 434.51 C 194.43 436.57 188.57 434.55 182.90 433.69 C 177.49 434.35 172.29 432.23 166.90 432.44 C 162.39 431.46 158.03 429.65 153.37 429.47 C 146.34 426.36 139.21 422.88 133.85 417.20 C 127.70 412.46 124.66 405.10 119.74 399.27 C 117.22 396.38 116.58 392.46 114.70 389.21 C 112.49 385.63 111.95 381.40 110.50 377.52 C 109.41 374.11 107.86 370.73 107.96 367.07 C 107.86 361.86 104.46 357.26 105.00 351.97 C 104.64 345.82 105.85 339.69 104.93 333.58 C 105.47 333.57 106.56 333.54 107.11 333.53 C 103.63 328.16 105.96 321.91 105.04 316.03 C 104.72 308.96 106.40 301.91 105.37 294.85 C 105.77 290.37 105.66 285.85 106.20 281.38 C 105.93 277.01 105.64 272.53 107.32 268.38 C 108.87 264.92 106.13 261.51 106.25 258.00 C 107.00 250.34 106.60 242.50 108.99 235.08 C 111.10 228.43 112.32 221.27 116.48 215.50 C 118.59 210.24 120.87 204.91 124.69 200.64 C 126.60 198.46 127.62 195.68 129.35 193.38 C 132.09 190.45 135.46 188.13 137.81 184.83 C 141.51 179.84 148.75 180.28 152.98 175.98 C 156.67 172.24 162.32 172.13 167.18 171.22 C 171.87 170.33 177.14 172.28 181.13 168.84 C 184.49 170.86 188.11 169.42 191.62 168.84 C 196.96 168.76 202.31 169.34 207.65 168.87 C 209.79 168.60 211.88 169.22 213.91 169.80 M 218.47 188.11 C 218.04 189.49 218.52 189.97 219.91 189.54 C 220.36 188.14 219.87 187.66 218.47 188.11 M 256.77 191.66 C 252.48 192.09 248.15 191.87 243.88 192.57 C 240.94 192.55 237.88 191.92 235.22 193.60 C 230.70 190.17 225.40 193.72 220.40 192.66 C 216.63 192.03 212.80 192.37 209.01 192.34 C 201.40 192.98 193.72 191.88 186.15 193.12 C 184.68 193.35 183.26 194.11 181.75 193.87 C 177.80 193.10 173.91 194.68 169.95 194.56 C 166.10 194.18 162.54 196.31 159.62 198.60 C 156.64 201.07 152.57 202.03 150.23 205.27 C 145.13 211.64 139.66 218.02 136.53 225.61 C 136.14 225.49 135.35 225.23 134.96 225.10 C 137.44 229.71 133.00 233.87 133.34 238.51 C 133.41 244.11 130.42 249.32 130.77 254.97 C 131.11 259.05 131.47 263.29 130.05 267.23 C 129.03 269.47 130.58 271.70 130.83 273.94 C 128.91 283.40 130.82 293.17 129.63 302.72 C 128.35 309.21 129.51 315.90 128.45 322.43 C 128.12 325.14 127.37 327.97 128.22 330.66 C 129.45 334.57 129.07 338.77 128.68 342.78 C 127.25 347.82 130.08 352.78 129.99 357.88 C 132.40 364.91 132.26 372.48 134.38 379.59 C 135.11 380.26 135.88 380.90 136.68 381.50 C 136.41 386.78 141.61 389.07 143.94 393.08 C 146.65 396.97 150.54 399.78 153.92 403.04 C 158.48 404.54 162.75 406.78 167.09 408.82 C 174.82 411.18 182.83 412.47 190.84 413.45 C 194.73 413.30 198.68 412.51 202.55 413.40 C 205.84 414.25 209.26 413.84 212.60 414.35 C 214.95 414.67 217.38 414.50 219.63 413.75 C 221.03 414.09 222.47 414.42 223.89 413.98 C 226.46 413.15 228.92 415.66 231.44 414.47 C 235.31 412.80 239.38 415.26 243.35 414.27 C 250.02 412.92 256.85 414.24 263.45 412.79 C 265.39 412.31 266.69 414.12 268.27 414.87 C 270.44 415.68 271.60 413.09 273.28 412.23 C 277.86 411.30 283.13 413.43 287.10 410.23 C 290.78 412.88 295.41 411.91 299.60 411.50 C 304.52 410.51 309.60 410.17 314.23 408.10 C 326.52 407.80 336.97 400.47 346.40 393.34 C 349.66 388.16 351.33 382.20 353.58 376.56 C 354.19 372.82 354.58 369.03 355.36 365.31 C 357.26 356.90 354.89 348.20 356.71 339.78 C 357.66 334.87 356.88 329.93 357.06 324.99 C 358.52 316.76 358.38 308.33 358.00 300.00 C 358.03 285.73 357.68 271.44 358.46 257.18 C 358.26 253.45 357.91 249.72 358.00 245.98 C 358.29 239.34 356.25 232.89 354.52 226.57 C 350.50 219.22 346.36 211.60 339.64 206.33 C 326.41 198.26 311.57 192.47 296.07 191.00 C 288.75 190.85 281.41 191.32 274.11 190.69 C 268.33 189.58 262.50 190.87 256.77 191.66 M 116.19 230.16 C 115.68 231.77 116.23 232.33 117.84 231.84 C 118.37 230.21 117.82 229.65 116.19 230.16 M 119.32 283.15 C 119.53 286.49 122.24 281.55 119.32 283.15 M 274.19 419.17 C 274.77 419.74 274.77 419.74 274.19 419.17 M 173.36 421.05 C 173.45 424.38 176.34 419.53 173.36 421.05 Z" />
<path fill="#2c3123" opacity="1.00" d=" M 414.28 181.11 C 417.25 179.58 414.41 184.44 414.28 181.11 Z" />
<path fill="#2c3123" opacity="1.00" d=" M 315.42 219.41 C 319.89 217.90 324.57 220.19 327.70 223.36 C 331.01 226.96 331.54 232.26 330.99 236.93 C 330.78 240.02 328.40 242.33 326.06 244.07 C 317.56 249.63 304.04 242.41 304.88 232.00 C 303.98 225.58 310.05 221.20 315.42 219.41 M 320.33 240.07 C 320.41 243.41 323.31 238.57 320.33 240.07 Z" />
<path fill="#2c3123" opacity="1.00" d=" M 61.52 225.30 C 62.44 224.39 64.42 225.72 63.66 226.90 C 62.72 227.88 60.79 226.46 61.52 225.30 Z" />
<path fill="#2c3123" opacity="1.00" d=" M 241.54 231.05 C 246.74 230.98 251.84 232.64 257.02 232.98 C 260.13 232.87 262.75 234.83 265.78 235.22 C 277.19 237.82 287.03 244.71 295.25 252.79 C 299.05 257.66 303.78 261.81 306.78 267.26 C 311.07 274.39 314.17 282.32 315.50 290.55 C 316.22 295.04 318.24 299.47 317.21 304.08 C 316.95 311.90 315.84 319.76 313.24 327.18 C 310.89 335.25 305.51 341.92 300.55 348.53 C 292.27 358.07 282.85 367.51 270.63 371.72 C 261.04 375.51 250.68 378.78 240.28 377.48 C 238.09 377.56 235.84 378.01 233.70 377.35 C 217.83 373.12 202.33 366.05 190.37 354.58 C 186.78 350.18 182.26 346.45 179.74 341.26 C 173.77 329.44 168.91 316.47 169.60 303.01 C 170.26 287.41 174.69 271.21 185.72 259.66 C 192.03 250.86 201.23 244.70 210.67 239.70 C 220.54 235.50 230.99 232.86 241.54 231.05 M 255.26 250.20 C 255.80 250.74 255.80 250.74 255.26 250.20 M 234.41 255.51 C 224.13 257.31 214.36 262.65 207.20 270.25 C 202.83 276.23 198.69 282.58 196.58 289.75 C 195.07 294.18 194.82 298.90 193.49 303.38 C 193.22 309.93 195.82 316.14 197.44 322.39 C 199.49 325.17 201.00 328.28 202.88 331.16 C 207.75 336.90 212.26 343.38 219.22 346.81 C 224.81 350.86 231.43 353.17 238.06 354.91 C 246.93 355.34 256.34 354.78 264.21 350.26 C 273.68 346.11 281.99 338.63 286.10 329.03 C 292.74 316.50 293.76 301.30 289.16 287.92 C 285.55 278.17 278.77 269.58 269.99 263.98 C 265.23 260.88 259.54 259.84 254.33 257.76 C 247.87 256.14 241.11 254.07 234.41 255.51 M 301.24 338.20 C 301.81 338.75 301.81 338.75 301.24 338.20 M 284.32 343.25 C 284.85 343.79 284.85 343.79 284.32 343.25 M 265.23 355.10 C 264.70 356.73 265.24 357.28 266.86 356.77 C 267.40 355.13 266.85 354.57 265.23 355.10 Z" />
<path fill="#2c3123" opacity="1.00" d=" M 436.06 237.46 C 437.26 236.56 438.51 238.66 437.38 239.47 C 436.16 240.40 434.91 238.27 436.06 237.46 Z" />
<path fill="#2c3123" opacity="1.00" d=" M 446.12 243.00 L 447.03 242.96 C 448.24 245.05 444.84 245.08 446.12 243.00 Z" />
<path fill="#2c3123" opacity="1.00" d=" M 42.21 277.56 C 43.63 277.73 43.87 278.39 42.94 279.53 C 41.52 279.36 41.28 278.70 42.21 277.56 Z" />
<path fill="#2c3123" opacity="1.00" d=" M 38.29 312.24 C 39.55 312.28 40.82 312.27 42.09 312.23 C 41.00 313.35 39.83 314.38 38.52 315.24 C 38.46 314.49 38.35 312.99 38.29 312.24 Z" />
<path fill="#2c3123" opacity="1.00" d=" M 48.44 373.92 C 48.63 374.41 49.01 375.39 49.20 375.88 L 48.32 375.68 L 47.93 374.68 L 48.44 373.92 Z" />
<path fill="#2c3123" opacity="1.00" d=" M 411.30 423.09 C 414.27 421.57 411.41 426.43 411.30 423.09 Z" />
<path fill="#2c3123" opacity="1.00" d=" M 146.21 471.08 C 149.22 469.52 146.46 474.37 146.21 471.08 Z" />
<path fill="#2c3123" opacity="1.00" d=" M 322.73 494.70 C 324.80 495.01 326.88 495.34 328.98 495.28 C 328.29 496.35 327.61 497.43 326.92 498.51 C 326.65 498.27 326.12 497.78 325.85 497.54 C 324.81 496.59 323.77 495.64 322.73 494.70 Z" />
<path fill="#2c3123" opacity="1.00" d=" M 179.58 496.65 C 181.29 497.47 182.70 498.75 184.01 500.11 C 182.27 499.32 180.78 498.11 179.58 496.65 Z" />
<path fill="#2c3123" opacity="1.00" d=" M 293.15 499.02 C 296.09 497.49 299.38 496.84 302.64 496.38 C 302.66 496.98 302.71 498.17 302.73 498.77 C 300.01 496.29 296.21 498.41 293.15 499.02 Z" />
<path fill="#2c3123" opacity="1.00" d=" M 315.17 499.14 C 316.47 499.80 316.45 500.46 315.10 501.12 C 313.80 500.44 313.82 499.78 315.17 499.14 Z" />
<path fill="#2c3123" opacity="1.00" d=" M 257.47 503.19 C 258.66 502.30 259.35 502.55 259.55 503.92 C 258.36 504.81 257.66 504.56 257.47 503.19 Z" />
</g>
</svg>
