<?xml version="1.0" encoding="UTF-8"?>
<svg id="Calque_1" data-name="Calque 1" xmlns="http://www.w3.org/2000/svg" viewBox="0 0 279.054 272.17">
  <defs>
    <style>
      .cls-1 {
        fill: #202014;
      }

      .cls-1, .cls-2 {
        stroke-width: 0px;
      }

      .cls-2 {
        fill: #b9ce00;
      }
    </style>
  </defs>
  <g id="_bdce45ff" data-name="#bdce45ff">
    <path class="cls-1" d="M113.54,20.89c1.4-.45,1.89.03,1.44,1.43-1.39.43-1.87-.05-1.44-1.43Z"/>
    <path class="cls-1" d="M151.84,24.44c5.73-.79,11.56-2.08,17.34-.97,7.3.63,14.64.16,21.96.31,15.5,1.47,30.34,7.26,43.57,15.33,6.72,5.27,10.86,12.89,14.88,20.24,1.73,6.32,3.77,12.77,3.48,19.41-.09,3.74.26,7.47.46,11.2-.78,14.26-.43,28.55-.46,42.82.38,8.33.52,16.76-.94,24.99-.18,4.94.6,9.88-.35,14.79-1.82,8.42.55,17.12-1.35,25.53-.78,3.72-1.17,7.51-1.78,11.25-2.25,5.64-3.92,11.6-7.18,16.78-9.43,7.13-19.88,14.46-32.17,14.76-4.63,2.07-9.71,2.41-14.63,3.4-4.19.41-8.82,1.38-12.5-1.27-3.97,3.2-9.24,1.07-13.82,2-1.68.86-2.84,3.45-5.01,2.64-1.58-.75-2.88-2.56-4.82-2.08-6.6,1.45-13.43.13-20.1,1.48-3.97.99-8.04-1.47-11.91.2-2.52,1.19-4.98-1.32-7.55-.49-1.42.44-2.86.11-4.26-.23-2.25.75-4.68.92-7.03.6-3.34-.51-6.76-.1-10.05-.95-3.87-.89-7.82-.1-11.71.05-8.01-.98-16.02-2.27-23.75-4.63-4.34-2.04-8.61-4.28-13.17-5.78-3.38-3.26-7.27-6.07-9.98-9.96-2.33-4.01-7.53-6.3-7.26-11.58-.8-.6-1.57-1.24-2.3-1.91-2.12-7.11-1.98-14.68-4.39-21.71.09-5.1-2.74-10.06-1.31-15.1.39-4.01.77-8.21-.46-12.12-.85-2.69-.1-5.52.23-8.23,1.06-6.53-.1-13.22,1.18-19.71,1.19-9.55-.72-19.32,1.2-28.78-.25-2.24-1.8-4.47-.78-6.71,1.42-3.94,1.06-8.18.72-12.26-.35-5.65,2.64-10.86,2.57-16.46-.34-4.64,4.1-8.8,1.62-13.41.39.13,1.18.39,1.57.51,3.13-7.59,8.6-13.97,13.7-20.34,2.34-3.24,6.41-4.2,9.39-6.67,2.92-2.29,6.48-4.42,10.33-4.04,3.96.12,7.85-1.46,11.8-.69,1.51.24,2.93-.52,4.4-.75,7.57-1.24,15.25-.14,22.86-.78,3.79.03,7.62-.31,11.39.32,5,1.06,10.3-2.49,14.82.94,2.66-1.68,5.72-1.05,8.66-1.03,4.27-.7,8.6-.48,12.89-.91M210.49,52.19c-5.37,1.79-11.44,6.17-10.54,12.59-.84,10.41,12.68,17.63,21.18,12.07,2.34-1.74,4.72-4.05,4.93-7.14.55-4.67.02-9.97-3.29-13.57-3.13-3.17-7.81-5.46-12.28-3.95M136.61,63.83c-10.55,1.81-21,4.45-30.87,8.65-9.44,5-18.64,11.16-24.95,19.96-11.03,11.55-15.46,27.75-16.12,43.35-.69,13.46,4.17,26.43,10.14,38.25,2.52,5.19,7.04,8.92,10.63,13.32,11.96,11.47,27.46,18.54,43.33,22.77,2.14.66,4.39.21,6.58.13,10.4,1.3,20.76-1.97,30.35-5.76,12.22-4.21,21.64-13.65,29.92-23.19,4.96-6.61,10.34-13.28,12.69-21.35,2.6-7.42,3.71-15.28,3.97-23.1,1.03-4.61-.99-9.04-1.71-13.53-1.33-8.23-4.43-16.16-8.72-23.29-3-5.45-7.73-9.6-11.53-14.47-8.22-8.08-18.06-14.97-29.47-17.57-3.03-.39-5.65-2.35-8.76-2.24-5.18-.34-10.28-2-15.48-1.93Z"/>
    <path class="cls-1" d="M11.26,62.94c1.63-.51,2.18.05,1.65,1.68-1.61.49-2.16-.07-1.65-1.68Z"/>
    <path class="cls-1" d="M129.48,88.29c6.7-1.44,13.46.63,19.92,2.25,5.21,2.08,10.9,3.12,15.66,6.22,8.78,5.6,15.56,14.19,19.17,23.94,4.6,13.38,3.58,28.58-3.06,41.11-4.11,9.6-12.42,17.08-21.89,21.23-7.87,4.52-17.28,5.08-26.15,4.65-6.63-1.74-13.25-4.05-18.84-8.1-6.96-3.43-11.47-9.91-16.34-15.65-1.88-2.88-3.39-5.99-5.44-8.77-1.62-6.25-4.22-12.46-3.95-19.01,1.33-4.48,1.58-9.2,3.09-13.63,2.11-7.17,6.25-13.52,10.62-19.5,7.16-7.6,16.93-12.94,27.21-14.74Z"/>
    <path class="cls-1" d="M160.3,187.88c1.62-.53,2.17.03,1.63,1.67-1.62.51-2.16-.04-1.63-1.67Z"/>
  </g>
  <g id="_2c3123fe" data-name="#2c3123fe">
    <path class="cls-2" d="M108.98,2.58c1.38-.85,2.74-1.71,4.1-2.58,5.12,2.19,10.88,2.74,16.39,2.24,2.87-.28,5.59,1.13,8.46.89,3.48-.24,6.97-.5,10.4-1.18,3.29-.79,6.42,1.08,9.71.85,2.94-.03,5.63-1.95,8.63-1.4,3.89.46,7.87.71,11.7-.28,4.3-1.06,8.51.95,12.67,1.8,1.04-.74,2.07-1.48,3.11-2.21,1.47.51,2.94,1,4.43,1.48.35-.38,1.05-1.14,1.4-1.52.78.66,1.6,1.28,2.43,1.87,9.2,1.06,18.24,3.38,27.19,5.79,4.75,1.64,8.9,4.61,13.48,6.65,2.59,1.2,3.94,3.95,6.28,5.51,5.53,3.87,8.77,9.91,13.23,14.8,5.95,10.4,10.4,21.79,12.39,33.62,2.07,6.32,4,12.91,2.86,19.64-1.08,4.99-2.09,10.02-2.41,15.12,1.07,5.66,3.1,11.25,2.64,17.1-.37,3.95.95,8.32-1.17,11.92,2.6,3.89.3,8.65.5,12.85,2.62,8.01,1.66,16.51.31,24.65-.14,3.56-.43,7.14-1.68,10.51,2.61,2.43,1.45,5.92,1.28,9.02-.51,2.8-1.66,5.44-2.07,8.27-1.1,7.99-3.81,15.65-6.72,23.13-2.89,3.77-3.66,8.72-6.92,12.26-2.87,3.23-4.57,7.3-7.37,10.55-4.07,2.93-6.24,8.3-11.53,9.44-.3,1.05-.59,2.12-.86,3.18-5.85,1.93-11.44,4.5-17.06,6.97-4.54-.29-8.45,2.19-12.82,2.86-3.51.65-6.77,2.17-10.21,3.04-2.76-.01-5.53-.44-8.28.08-.79-.66-1.58-1.32-2.37-1.96-6.19,5.03-14.42,3.09-21.7,3.48-2.55.18-5.04-1.32-7.55-.36-5.91,1.81-12.16.63-18.19,1.51-3.36-.05-6.72-.46-10.06-.77-.53-.46-1.59-1.38-2.11-1.85-1.18.63-2.24,1.43-3.12,2.43-1.14-.64-2.25-1.34-3.48-1.78-4.28.25-8.69,1.08-12.9-.13-2.07-.77-4.2.5-6.3.05-2.98-.45-6.03-.56-8.99.09-.49-.98-1-1.96-1.51-2.92-5.69,2.06-11.55.04-17.22-.82-5.41.66-10.61-1.46-16-1.25-4.51-.98-8.87-2.79-13.53-2.97-7.03-3.11-14.16-6.59-19.52-12.27-6.15-4.74-9.19-12.1-14.11-17.93-2.52-2.89-3.16-6.81-5.04-10.06-2.21-3.58-2.75-7.81-4.2-11.69-1.09-3.41-2.64-6.79-2.54-10.45-.1-5.21-3.5-9.81-2.96-15.1-.36-6.15.85-12.28-.07-18.39.54-.01,1.63-.04,2.18-.05-3.48-5.37-1.15-11.62-2.07-17.5-.32-7.07,1.36-14.12.33-21.18.4-4.48.29-9,.83-13.47-.27-4.37-.56-8.85,1.12-13,1.55-3.46-1.19-6.87-1.07-10.38.75-7.66.35-15.5,2.74-22.92,2.11-6.65,3.33-13.81,7.49-19.58,2.11-5.26,4.39-10.59,8.21-14.86,1.91-2.18,2.93-4.96,4.66-7.26,2.74-2.93,6.11-5.25,8.46-8.55,3.7-4.99,10.94-4.55,15.17-8.85,3.69-3.74,9.34-3.85,14.2-4.76,4.69-.89,9.96,1.06,13.95-2.38,3.36,2.02,6.98.58,10.49,0,5.34-.08,10.69.5,16.03.03,2.14-.27,4.23.35,6.26.93M113.54,20.89c-.43,1.38.05,1.86,1.44,1.43.45-1.4-.04-1.88-1.44-1.43M151.84,24.44c-4.29.43-8.62.21-12.89.91-2.94-.02-6-.65-8.66,1.03-4.52-3.43-9.82.12-14.82-.94-3.77-.63-7.6-.29-11.39-.32-7.61.64-15.29-.46-22.86.78-1.47.23-2.89.99-4.4.75-3.95-.77-7.84.81-11.8.69-3.85-.38-7.41,1.75-10.33,4.04-2.98,2.47-7.05,3.43-9.39,6.67-5.1,6.37-10.57,12.75-13.7,20.34-.39-.12-1.18-.38-1.57-.51,2.48,4.61-1.96,8.77-1.62,13.41.07,5.6-2.92,10.81-2.57,16.46.34,4.08.7,8.32-.72,12.26-1.02,2.24.53,4.47.78,6.71-1.92,9.46-.01,19.23-1.2,28.78-1.28,6.49-.12,13.18-1.18,19.71-.33,2.71-1.08,5.54-.23,8.23,1.23,3.91.85,8.11.46,12.12-1.43,5.04,1.4,10,1.31,15.1,2.41,7.03,2.27,14.6,4.39,21.71.73.67,1.5,1.31,2.3,1.91-.27,5.28,4.93,7.57,7.26,11.58,2.71,3.89,6.6,6.7,9.98,9.96,4.56,1.5,8.83,3.74,13.17,5.78,7.73,2.36,15.74,3.65,23.75,4.63,3.89-.15,7.84-.94,11.71-.05,3.29.85,6.71.44,10.05.95,2.35.32,4.78.15,7.03-.6,1.4.34,2.84.67,4.26.23,2.57-.83,5.03,1.68,7.55.49,3.87-1.67,7.94.79,11.91-.2,6.67-1.35,13.5-.03,20.1-1.48,1.94-.48,3.24,1.33,4.82,2.08,2.17.81,3.33-1.78,5.01-2.64,4.58-.93,9.85,1.2,13.82-2,3.68,2.65,8.31,1.68,12.5,1.27,4.92-.99,10-1.33,14.63-3.4,12.29-.3,22.74-7.63,32.17-14.76,3.26-5.18,4.93-11.14,7.18-16.78.61-3.74,1-7.53,1.78-11.25,1.9-8.41-.47-17.11,1.35-25.53.95-4.91.17-9.85.35-14.79,1.46-8.23,1.32-16.66.94-24.99.03-14.27-.32-28.56.46-42.82-.2-3.73-.55-7.46-.46-11.2.29-6.64-1.75-13.09-3.48-19.41-4.02-7.35-8.16-14.97-14.88-20.24-13.23-8.07-28.07-13.86-43.57-15.33-7.32-.15-14.66.32-21.96-.31-5.78-1.11-11.61.18-17.34.97M11.26,62.94c-.51,1.61.04,2.17,1.65,1.68.53-1.63-.02-2.19-1.65-1.68M14.39,115.93c.21,3.34,2.92-1.6,0,0M169.26,251.95q.58.57,0,0M68.43,253.83c.09,3.33,2.98-1.52,0,0Z"/>
    <path class="cls-2" d="M210.49,52.19c4.47-1.51,9.15.78,12.28,3.95,3.31,3.6,3.84,8.9,3.29,13.57-.21,3.09-2.59,5.4-4.93,7.14-8.5,5.56-22.02-1.66-21.18-12.07-.9-6.42,5.17-10.8,10.54-12.59M215.4,72.85c.08,3.34,2.98-1.5,0,0Z"/>
    <path class="cls-2" d="M136.61,63.83c5.2-.07,10.3,1.59,15.48,1.93,3.11-.11,5.73,1.85,8.76,2.24,11.41,2.6,21.25,9.49,29.47,17.57,3.8,4.87,8.53,9.02,11.53,14.47,4.29,7.13,7.39,15.06,8.72,23.29.72,4.49,2.74,8.92,1.71,13.53-.26,7.82-1.37,15.68-3.97,23.1-2.35,8.07-7.73,14.74-12.69,21.35-8.28,9.54-17.7,18.98-29.92,23.19-9.59,3.79-19.95,7.06-30.35,5.76-2.19.08-4.44.53-6.58-.13-15.87-4.23-31.37-11.3-43.33-22.77-3.59-4.4-8.11-8.13-10.63-13.32-5.97-11.82-10.83-24.79-10.14-38.25.66-15.6,5.09-31.8,16.12-43.35,6.31-8.8,15.51-14.96,24.95-19.96,9.87-4.2,20.32-6.84,30.87-8.65M150.33,82.98q.54.54,0,0M129.48,88.29c-10.28,1.8-20.05,7.14-27.21,14.74-4.37,5.98-8.51,12.33-10.62,19.5-1.51,4.43-1.76,9.15-3.09,13.63-.27,6.55,2.33,12.76,3.95,19.01,2.05,2.78,3.56,5.89,5.44,8.77,4.87,5.74,9.38,12.22,16.34,15.65,5.59,4.05,12.21,6.36,18.84,8.1,8.87.43,18.28-.13,26.15-4.65,9.47-4.15,17.78-11.63,21.89-21.23,6.64-12.53,7.66-27.73,3.06-41.11-3.61-9.75-10.39-18.34-19.17-23.94-4.76-3.1-10.45-4.14-15.66-6.22-6.46-1.62-13.22-3.69-19.92-2.25M196.31,170.98q.57.55,0,0M179.39,176.03q.53.54,0,0M160.3,187.88c-.53,1.63.01,2.18,1.63,1.67.54-1.64-.01-2.2-1.63-1.67Z"/>
  </g>
</svg>