<?xml version="1.0" encoding="utf-8"?>
<!-- Generator: Adobe Illustrator 28.2.0, SVG Export Plug-In . SVG Version: 6.00 Build 0)  -->
<svg version="1.0" id="Calque_1" xmlns="http://www.w3.org/2000/svg" xmlns:xlink="http://www.w3.org/1999/xlink" x="0px" y="0px"
	 viewBox="0 0 363.6 340.9" style="enable-background:new 0 0 363.6 340.9;" xml:space="preserve">
<style type="text/css">
	.st0{fill:#9EC531;}
	.st1{fill:#050908;}
</style>
<path class="st0" d="M168.2,59.7c18.7-2.2,37.9,0,55.4,7c19.8,8.1,37.2,22,49.6,39.5c9.8,14.9,17.2,31.7,19.2,49.5
	c1.8,17.5,0.7,35.6-4.8,52.4c-4,11.7-9.6,23-17.6,32.4c-13.9,17.7-34,29.9-55.3,36.7c-19,5.4-39.3,6.6-58.6,2
	c-10.2-2.2-20.3-5.5-29.4-10.8c-5.9-3.7-11.7-7.5-17.1-11.9C99.1,247,89.5,236,83.3,222.9c-9.7-18.9-14.1-40.4-12.6-61.6
	c2.9-40.7,30.4-78.6,68.2-93.9C148.3,63.6,158.1,60.7,168.2,59.7z M151.3,120.3c-5.1-0.1-10.1,0.9-15.2,1.5
	c-7.8,1.1-15.7,2.3-23.3,4.5c-3.4,1.1-7.2,3.2-7.9,7.1c-1.5,5.3,0.7,12.5,6.3,14.5c5.3,0,10.3-2.2,15.6-2.8c10-1.3,20-3,30.2-3
	c19.8-0.7,40,0.2,59.1,6c11.5,3.1,22.8,7.1,33.3,12.8c3.4,1.7,7.1,4.5,11.1,3c3.1-1.9,4.4-5.6,5.4-8.9c0.4-4.3-1.5-9-5.3-11.2
	c-13.6-8.9-29.2-14.1-44.8-18.3c-12.1-2.5-24.2-5.4-36.7-5.4C169.7,119.5,160.5,119.6,151.3,120.3z M144.3,161.1
	c-8.9,0.9-18.1,1.8-26.5,5.3c-2.7,1.1-5.2,3-6.1,5.9c-1.6,3.4,0.3,7.2,2.8,9.5c3,1.6,6.5,2.2,9.8,1.1c7.4-2.2,15.1-3.1,22.8-4.1
	c20.5-1.3,41.3-0.2,61.2,5.2c10.9,2.9,21,8,31,13.2c5.6,1.4,9.7-3.9,10.6-8.8c-1-5.2-5.8-8.4-10.2-10.7
	C210.4,162.8,176.8,157.4,144.3,161.1z M154.2,195.7c-9.2,1-18.6,1.4-27.6,3.5c-2.9,0.8-6.3,1.1-8.1,3.8c-3.7,4.5-0.9,12.1,4.4,13.8
	c7-1.1,13.5-3.9,20.5-4.8c15.5-2.8,31.3-1.6,46.8,0.9c12.2,2.5,24.1,6.7,34.6,13.5c4.2,3,11.1-0.7,10.1-6c0.3-3.2-2.1-5.9-4.6-7.6
	C207.6,199.5,180.5,194.1,154.2,195.7L154.2,195.7z"/>
<path class="st1" d="M151.3,120.3c9.2-0.7,18.4-0.8,27.6,0c12.4,0,24.6,2.8,36.6,5.4c15.6,4.2,31.2,9.3,44.8,18.3
	c3.9,2.2,5.8,6.9,5.3,11.2c-1,3.3-2.3,7-5.4,8.9c-4,1.5-7.7-1.2-11.1-3c-10.5-5.7-21.8-9.6-33.3-12.8c-19.1-5.8-39.2-6.7-59.1-6
	c-10.1,0-20.1,1.7-30.2,3c-5.2,0.5-10.3,2.8-15.6,2.8c-5.6-2-7.8-9.2-6.3-14.5c0.7-3.9,4.5-6,7.9-7.1c7.6-2.3,15.5-3.4,23.3-4.5
	C141.2,121.2,146.2,120.3,151.3,120.3z"/>
<path class="st1" d="M144.3,161.1c32.5-3.7,66.1,1.8,95.3,16.6c4.4,2.3,9.2,5.6,10.2,10.7c-0.9,4.9-5,10.2-10.6,8.8
	c-10-5.2-20.1-10.3-31-13.2c-19.9-5.4-40.7-6.6-61.1-5.2c-7.6,1-15.3,1.9-22.8,4.1c-3.3,1-6.8,0.4-9.8-1.1c-2.5-2.3-4.4-6.1-2.8-9.5
	c0.9-2.9,3.4-4.8,6.1-5.9C126.2,162.9,135.4,162,144.3,161.1z"/>
<path class="st1" d="M154.2,195.7c26.3-1.6,53.3,3.8,76.1,17.2c2.5,1.7,4.9,4.3,4.6,7.6c1,5.3-6,9-10.1,6
	c-10.5-6.8-22.4-11-34.6-13.5c-15.4-2.5-31.3-3.7-46.8-0.9c-7,0.9-13.6,3.7-20.5,4.8c-5.3-1.6-8.1-9.3-4.4-13.8
	c1.8-2.7,5.2-3.1,8.1-3.8C135.7,197.1,145,196.7,154.2,195.7L154.2,195.7z"/>
</svg>
