<?xml version="1.0" encoding="utf-8"?>
<!-- Generator: Adobe Illustrator 28.2.0, SVG Export Plug-In . SVG Version: 6.00 Build 0)  -->
<svg version="1.0" id="Calque_1" xmlns="http://www.w3.org/2000/svg" xmlns:xlink="http://www.w3.org/1999/xlink" x="0px" y="0px"
	 viewBox="0 0 391.9 277.6" style="enable-background:new 0 0 391.9 277.6;" xml:space="preserve">
<style type="text/css">
	.st0{fill:#9EC531;}
	.st1{fill:#050908;}
</style>
<path class="st0" d="M183.7,52.3c27.9-0.5,55.7,0.3,83.6,1.5c8.6,0.2,17.1,1.3,25.6,2.5c9.8,1.6,20.5,5,26.3,13.6
	c7.3,10.9,7.1,24.6,8.7,37.1c1,17.2,1.8,34.5,1.1,51.8c-1.1,16.1-1.5,32.6-6.6,48.1c-3.2,9.1-10.9,16-19.8,19.1
	c-9.2,4-19.3,5-29.2,5.6c-42,0.6-84.1,2.4-126.1,1.1c-12.3,0-24.6-0.3-36.9-1.1c-10.7-1.5-21.9-4.4-30.1-11.8
	c-9.9-11-12.6-26.2-14.7-40.4c-0.4-5.9-1.4-11.7-1.3-17.6c-0.7-23.9-0.5-48,3.3-71.7c1.9-10,5-21,13.6-27.3
	c8.9-5.8,19.8-6.5,30.1-7.8C135.4,53,159.5,52.5,183.7,52.3z M167.7,104.3c-0.4,9.8-0.2,19.7-0.4,29.5c0,14.4-0.7,28.7-0.6,43.1
	c0,2.4,0.3,4.8,0.8,7.1c6.9-4.2,14-7.9,20.8-12.1c16.2-10.1,33.4-18.7,49.7-28.6c-15.8-9.4-32.2-17.8-48.1-27.1
	C182.6,112,175.4,107.8,167.7,104.3L167.7,104.3z"/>
<path class="st1" d="M167.7,104.3c7.7,3.5,14.9,7.7,22.2,11.8c15.9,9.3,32.3,17.7,48.1,27.1c-16.3,9.9-33.4,18.5-49.7,28.6
	c-6.9,4.2-14,8-20.8,12.1c-0.4-2.4-0.7-4.7-0.8-7.1c-0.1-14.3,0.6-28.7,0.6-43.1C167.5,124,167.3,114.1,167.7,104.3L167.7,104.3z"/>
</svg>
