<?xml version="1.0" encoding="UTF-8" ?>
<!DOCTYPE svg PUBLIC "-//W3C//DTD SVG 1.1//EN" "http://www.w3.org/Graphics/SVG/1.1/DTD/svg11.dtd">
<svg width="512pt" height="512pt" viewBox="0 0 512 512" version="1.1" xmlns="http://www.w3.org/2000/svg">
<g id="#bdcd44ff">
<path fill="#bdcd44" opacity="1.00" d=" M 220.40 33.59 C 226.53 33.31 232.30 31.02 238.35 30.26 C 241.82 29.89 245.23 31.19 248.70 30.66 C 252.46 30.12 256.29 30.12 260.03 30.84 C 262.64 30.97 264.62 33.13 267.24 33.22 C 270.14 33.25 273.05 33.21 275.96 33.18 C 275.42 33.57 274.34 34.37 273.80 34.77 C 274.57 35.11 275.34 35.44 276.13 35.76 C 277.75 36.52 279.35 37.34 280.92 38.21 C 280.70 37.56 280.51 36.91 280.35 36.24 C 280.63 36.01 281.17 35.56 281.44 35.33 C 287.16 37.74 292.70 40.66 298.94 41.53 C 298.80 40.88 298.53 39.59 298.40 38.94 C 305.59 38.93 313.94 35.95 320.18 40.82 C 321.60 41.82 322.78 43.11 324.01 44.34 C 325.66 43.96 327.27 43.40 328.96 43.20 C 333.08 44.71 335.38 48.92 339.54 50.46 C 341.25 54.84 346.86 53.68 349.57 56.49 C 349.72 56.99 350.03 58.00 350.19 58.50 C 353.91 59.31 357.67 60.12 361.12 61.80 C 362.17 63.32 362.45 65.11 362.46 66.91 C 365.99 68.11 370.13 67.43 373.22 69.79 C 374.69 71.41 375.43 73.52 376.73 75.26 C 379.18 76.80 381.47 79.87 384.67 78.43 C 388.30 83.71 391.40 89.50 396.27 93.77 C 398.00 95.65 401.02 95.28 402.60 97.31 C 404.50 99.75 407.05 101.57 409.10 103.88 C 410.14 106.14 411.11 108.46 412.70 110.41 C 414.07 111.39 415.80 111.86 417.01 113.05 C 418.38 116.65 418.37 120.90 421.12 123.89 C 423.98 127.32 425.57 131.53 427.39 135.55 C 429.48 139.30 432.66 142.33 434.49 146.26 C 436.47 149.14 435.52 152.86 436.95 155.95 C 437.96 158.46 437.65 161.44 439.32 163.68 C 442.57 168.53 443.85 174.39 444.65 180.09 C 445.71 179.89 446.77 179.67 447.84 179.43 C 447.81 181.00 447.15 182.72 448.06 184.15 C 449.58 187.07 449.72 190.38 450.32 193.55 C 451.30 194.94 452.54 196.14 453.54 197.53 C 453.97 200.11 453.76 202.76 453.51 205.35 C 453.43 209.11 450.16 212.03 450.80 215.91 C 450.11 222.88 452.89 229.51 452.64 236.45 C 453.46 240.15 454.53 243.90 454.48 247.73 C 453.70 251.88 452.79 256.07 450.88 259.86 C 449.12 263.42 449.36 267.71 446.99 270.99 C 445.06 273.34 447.63 276.54 445.92 278.93 C 444.16 281.64 443.51 284.80 442.95 287.92 C 442.61 290.13 440.82 291.66 439.92 293.62 C 439.50 298.98 439.10 304.29 439.99 309.63 C 432.92 313.99 433.46 323.45 430.16 330.18 C 426.95 335.01 426.49 341.19 422.81 345.75 C 421.26 347.62 419.84 349.60 418.68 351.74 C 417.08 354.07 415.81 356.61 415.57 359.47 C 411.76 361.52 409.81 365.98 405.38 367.02 C 404.39 366.12 403.40 365.23 402.37 364.41 C 402.09 370.65 398.89 376.30 394.46 380.56 C 392.81 383.48 391.43 386.63 389.01 389.04 C 382.79 391.84 377.39 396.12 371.50 399.50 C 369.35 402.66 365.27 403.05 362.74 405.76 C 360.22 408.52 356.10 406.70 352.99 408.07 C 351.25 408.90 349.35 409.21 347.45 409.40 C 346.16 410.81 344.91 412.54 342.89 412.91 C 337.08 414.07 331.57 416.54 325.62 417.00 C 323.91 420.27 322.76 424.48 319.02 425.98 C 314.50 427.65 309.83 429.37 304.92 428.79 C 304.29 431.07 303.85 434.65 300.70 434.48 C 294.56 434.65 288.55 431.76 282.33 432.91 C 281.02 434.08 280.67 435.98 279.74 437.44 C 275.25 436.45 270.68 436.59 266.13 436.89 C 263.59 438.34 260.94 439.22 258.07 438.13 C 257.14 439.12 256.22 440.11 255.29 441.09 C 254.51 440.21 253.79 439.30 252.99 438.46 C 246.32 440.17 239.64 444.00 232.57 442.48 C 229.75 442.26 228.62 438.73 225.85 438.47 C 222.67 438.53 219.50 438.70 216.32 438.84 C 216.11 437.58 214.15 436.09 215.42 434.96 C 215.63 434.62 216.05 433.95 216.26 433.61 C 215.89 433.57 215.15 433.50 214.78 433.46 C 212.46 433.82 210.10 433.65 207.81 434.25 C 204.06 435.14 200.84 432.22 197.20 432.20 C 194.74 432.97 192.48 434.31 189.97 434.92 C 185.94 434.39 182.68 431.96 179.89 429.16 C 178.04 428.09 178.06 425.81 177.54 423.99 C 173.43 423.98 169.27 424.65 165.20 423.87 C 162.24 422.75 161.10 419.35 160.69 416.46 C 158.07 415.16 155.79 413.30 153.36 411.71 C 151.57 411.03 149.83 411.96 148.14 412.45 C 144.46 410.31 141.46 407.24 137.84 405.04 C 138.19 404.44 138.88 403.26 139.23 402.67 C 137.73 402.05 136.23 401.42 134.84 400.58 C 130.53 403.50 125.07 403.25 120.69 400.65 C 121.82 400.61 123.42 398.94 121.95 398.14 C 120.81 398.23 120.23 398.92 120.21 400.20 C 118.42 399.18 116.56 398.29 114.83 397.17 C 113.69 395.61 112.85 393.85 111.62 392.37 C 110.14 391.41 108.43 390.94 106.81 390.31 C 107.47 390.11 108.78 389.72 109.44 389.52 C 106.90 387.75 104.43 385.53 101.09 386.17 C 102.16 385.87 103.24 385.56 104.31 385.26 C 101.83 382.52 99.24 379.79 97.51 376.50 C 96.38 374.01 96.10 371.00 93.82 369.21 C 91.73 367.37 90.99 364.60 89.67 362.25 C 88.23 362.44 86.79 362.66 85.34 362.87 C 83.08 360.71 80.70 358.58 79.30 355.72 C 77.23 352.49 76.70 348.48 74.17 345.52 C 74.41 344.69 74.55 343.85 74.60 343.00 C 73.63 343.23 72.73 343.63 71.92 344.21 C 70.29 342.09 68.53 340.03 67.30 337.65 C 66.31 335.08 65.57 332.33 63.74 330.19 C 62.43 328.84 62.25 326.96 61.90 325.21 C 61.02 325.40 60.13 325.59 59.25 325.80 C 57.54 322.55 55.86 319.26 53.47 316.46 C 50.57 312.00 54.08 306.80 52.94 301.94 C 52.91 296.23 45.69 293.79 46.06 287.99 C 45.33 282.40 48.88 277.43 48.21 271.87 C 44.13 269.53 41.09 265.02 40.79 260.28 C 40.38 258.47 39.33 256.88 38.64 255.18 C 37.76 255.32 36.88 255.46 36.00 255.62 C 36.49 253.92 36.90 252.21 37.22 250.48 C 35.95 250.17 34.69 249.85 33.43 249.52 C 32.84 244.90 33.57 240.38 34.70 235.90 C 35.93 235.35 37.13 234.74 38.41 234.31 C 39.89 234.03 40.03 233.46 38.81 232.60 C 39.39 230.71 40.74 229.22 41.68 227.51 C 41.65 221.70 38.73 215.68 40.98 209.99 C 42.62 205.96 44.92 202.12 46.04 197.92 C 45.99 190.79 47.80 183.73 51.16 177.46 C 49.34 176.78 47.50 176.15 45.66 175.55 C 48.45 172.52 50.33 168.70 49.56 164.47 C 48.27 161.86 45.75 159.85 45.35 156.80 C 46.06 153.46 47.12 150.01 49.93 147.83 C 52.45 146.06 51.41 142.50 53.40 140.42 C 56.95 135.84 59.02 130.27 63.05 126.03 C 66.18 126.27 69.33 126.21 72.46 125.99 C 73.55 122.79 74.30 119.28 76.83 116.85 C 78.80 114.97 77.00 111.08 80.01 110.05 C 82.64 108.99 83.41 106.06 85.30 104.22 C 90.04 100.80 94.51 96.47 100.61 95.79 C 102.45 92.54 103.74 89.09 104.43 85.42 C 107.55 81.09 111.87 77.43 117.17 76.22 C 119.53 72.92 122.15 69.78 125.60 67.57 C 127.36 66.63 127.18 64.42 127.78 62.77 C 130.90 61.46 134.18 60.33 137.61 60.42 C 138.36 58.17 140.10 56.57 141.80 55.01 C 141.55 53.75 141.31 52.48 141.06 51.22 C 143.97 48.21 148.43 47.84 152.31 48.63 C 154.13 49.23 154.84 51.27 156.06 52.57 C 157.37 50.84 158.12 48.81 158.76 46.75 C 161.57 45.81 164.08 44.22 166.33 42.33 C 169.08 39.93 172.88 40.12 176.25 39.41 C 179.95 38.59 183.17 42.70 186.84 41.28 C 193.77 38.87 200.56 36.01 207.63 34.06 L 208.45 34.21 C 208.66 34.77 209.08 35.89 209.28 36.45 C 213.11 36.05 216.98 35.47 220.40 33.59 M 215.98 40.41 C 215.57 41.81 216.07 42.31 217.47 41.90 C 217.86 40.52 217.36 40.02 215.98 40.41 M 301.88 41.61 C 304.98 41.43 308.05 40.92 311.10 40.30 C 307.96 40.11 304.78 40.33 301.88 41.61 M 180.09 42.26 C 178.53 45.27 183.38 42.46 180.09 42.26 M 184.16 45.07 C 184.35 48.40 187.12 43.51 184.16 45.07 M 328.09 50.55 C 327.68 51.95 328.18 52.42 329.59 51.97 C 329.97 50.57 329.47 50.10 328.09 50.55 M 103.21 97.44 C 102.15 97.41 100.47 98.49 101.13 99.69 C 102.34 100.74 105.17 98.11 103.21 97.44 M 239.84 127.73 C 239.09 128.19 238.34 128.65 237.60 129.11 C 235.83 128.44 233.98 128.01 232.10 127.79 C 232.40 128.85 232.70 129.92 233.01 130.98 C 227.55 127.53 220.32 128.59 214.65 131.06 C 214.60 130.55 214.49 129.53 214.44 129.02 C 209.18 129.38 204.03 130.69 198.73 130.69 C 191.11 130.50 183.62 132.45 175.99 132.02 C 171.64 131.69 167.15 133.26 162.97 131.50 C 157.68 132.18 152.37 132.86 147.02 132.66 C 140.55 133.87 133.97 134.71 127.64 136.62 C 122.94 138.11 119.65 141.93 116.07 145.10 C 112.71 148.17 110.27 152.05 107.81 155.84 C 107.17 156.81 107.32 158.05 107.11 159.15 C 107.09 161.27 104.92 162.36 103.64 163.74 C 103.73 172.55 98.60 180.64 99.60 189.51 C 100.27 190.74 101.11 191.87 101.89 193.04 C 98.93 203.14 99.67 213.74 98.03 224.02 C 98.05 232.31 97.63 240.67 98.97 248.89 C 98.36 254.36 100.54 259.72 99.15 265.11 C 98.76 268.16 101.50 270.76 100.81 273.85 C 100.29 277.54 99.14 281.51 100.95 285.05 C 101.99 286.84 101.15 288.85 101.20 290.77 C 103.61 296.98 103.86 303.87 107.29 309.71 C 109.56 316.73 114.82 322.04 119.29 327.71 C 122.74 330.87 126.86 333.57 131.16 335.32 C 135.96 334.52 140.14 337.27 144.52 338.68 C 147.65 339.07 151.00 338.25 153.87 339.97 C 158.50 342.71 163.84 338.50 168.45 341.26 C 171.46 341.58 174.76 340.12 177.58 342.02 C 179.70 342.01 181.83 342.06 183.94 342.26 C 183.98 341.73 184.04 340.69 184.07 340.16 C 185.09 340.95 186.11 341.74 187.15 342.51 C 188.41 341.95 189.67 341.40 190.95 340.86 C 191.33 341.21 192.11 341.90 192.50 342.25 C 193.31 341.76 194.11 341.27 194.93 340.79 C 195.97 341.57 197.00 342.37 198.04 343.16 C 199.33 342.50 200.59 341.75 201.97 341.27 C 204.42 341.65 206.85 342.28 209.12 343.29 C 210.77 342.69 212.47 342.23 214.22 342.75 C 219.72 343.96 225.14 341.11 230.63 342.33 C 234.87 343.19 239.20 341.40 243.40 342.62 C 245.60 343.40 247.83 342.68 249.96 342.05 C 253.53 345.53 258.37 341.82 262.62 342.58 C 267.25 343.54 271.95 342.58 276.59 342.51 C 285.30 344.23 293.99 341.50 302.73 342.41 C 308.16 341.53 314.15 343.17 319.12 340.30 C 320.33 340.73 321.50 341.36 322.79 341.53 C 324.65 340.86 326.33 339.79 328.18 339.12 C 330.30 339.16 332.47 340.33 334.53 339.38 C 338.35 337.74 342.63 337.72 346.62 338.70 C 350.36 335.75 354.73 333.73 359.22 332.19 C 362.41 331.40 363.77 327.60 367.07 327.05 C 371.05 326.34 372.76 322.08 375.97 320.04 C 379.15 317.90 379.70 314.03 380.52 310.61 C 383.01 306.50 385.15 302.12 386.49 297.49 C 387.67 293.51 386.69 289.33 386.92 285.28 C 388.20 281.47 387.13 277.44 387.76 273.52 C 387.67 269.86 390.36 266.84 390.56 263.28 C 389.43 257.52 391.18 251.79 391.27 246.01 C 390.80 238.07 390.48 230.00 391.77 222.12 C 389.42 216.92 389.94 211.10 388.35 205.70 C 387.65 202.91 388.50 200.18 390.03 197.84 C 387.46 192.40 387.56 186.28 387.34 180.41 C 387.19 176.35 384.40 172.97 384.05 168.97 C 383.66 163.81 380.73 159.32 377.59 155.40 C 375.85 150.85 372.34 147.40 369.15 143.86 C 364.95 140.04 359.06 139.33 354.04 137.05 C 348.23 134.44 341.65 135.74 335.91 133.00 C 326.02 134.56 316.35 130.26 306.43 131.15 C 301.90 131.60 297.32 130.98 292.88 130.04 C 279.05 127.54 264.94 128.35 250.99 127.10 C 247.20 127.01 243.51 129.92 239.84 127.73 M 42.27 242.17 C 42.38 245.50 45.25 240.63 42.27 242.17 M 40.25 245.21 C 40.80 245.76 40.80 245.76 40.25 245.21 M 439.23 287.23 C 439.76 287.78 439.76 287.78 439.23 287.23 M 437.27 296.66 C 436.37 297.60 436.46 299.37 437.32 300.31 C 438.91 300.37 438.83 296.63 437.27 296.66 M 56.18 317.23 C 56.72 317.77 56.72 317.77 56.18 317.23 M 58.16 321.42 C 57.74 322.83 58.22 323.33 59.61 322.91 C 60.03 321.50 59.55 321.00 58.16 321.42 M 164.13 341.09 C 164.39 344.41 167.08 339.49 164.13 341.09 M 422.20 342.37 C 420.66 345.39 425.54 342.39 422.20 342.37 M 387.35 383.16 C 387.51 386.48 390.33 381.60 387.35 383.16 M 322.23 418.26 C 320.87 418.89 320.85 419.55 322.17 420.24 C 323.53 419.61 323.55 418.95 322.23 418.26 M 297.71 432.27 C 297.68 433.82 301.41 433.91 301.37 432.30 C 300.42 431.43 298.65 431.41 297.71 432.27 Z" />
<path fill="#bdcd44" opacity="1.00" d=" M 316.28 136.26 C 316.81 136.80 316.81 136.80 316.28 136.26 Z" />
<path fill="#bdcd44" opacity="1.00" d=" M 316.29 139.32 C 316.84 139.87 316.84 139.87 316.29 139.32 Z" />
<path fill="#bdcd44" opacity="1.00" d=" M 209.08 146.18 C 212.39 146.35 207.53 149.16 209.08 146.18 Z" />
<path fill="#bdcd44" opacity="1.00" d=" M 287.08 155.20 C 290.42 155.34 285.54 158.17 287.08 155.20 Z" />
<path fill="#bdcd44" opacity="1.00" d=" M 258.13 165.19 C 261.44 165.30 256.61 168.21 258.13 165.19 Z" />
<path fill="#bdcd44" opacity="1.00" d=" M 300.33 169.23 C 300.90 169.80 300.90 169.80 300.33 169.23 Z" />
<path fill="#bdcd44" opacity="1.00" d=" M 317.27 182.20 C 317.83 182.76 317.83 182.76 317.27 182.20 Z" />
<path fill="#bdcd44" opacity="1.00" d=" M 153.30 183.24 C 153.87 183.81 153.87 183.81 153.30 183.24 Z" />
<path fill="#bdcd44" opacity="1.00" d=" M 212.02 194.16 C 212.19 191.73 212.93 189.38 213.53 187.03 C 240.92 202.94 268.12 219.25 294.26 237.16 C 287.51 242.30 279.86 246.08 272.77 250.71 C 257.18 259.79 241.73 269.10 226.00 277.92 C 220.96 280.48 216.10 283.52 210.60 285.01 C 210.50 281.45 210.57 277.88 210.52 274.31 C 210.42 271.34 211.91 268.49 211.39 265.51 C 210.32 258.05 211.03 250.51 211.94 243.08 C 212.09 226.77 211.93 210.46 212.02 194.16 Z" />
<path fill="#bdcd44" opacity="1.00" d=" M 184.36 191.02 C 187.34 189.49 184.46 194.36 184.36 191.02 Z" />
<path fill="#bdcd44" opacity="1.00" d=" M 183.08 195.41 C 186.37 195.56 181.55 198.44 183.08 195.41 Z" />
<path fill="#bdcd44" opacity="1.00" d=" M 338.20 205.21 C 338.77 205.77 338.77 205.77 338.20 205.21 Z" />
<path fill="#bdcd44" opacity="1.00" d=" M 134.16 215.25 C 134.72 215.80 134.72 215.80 134.16 215.25 Z" />
<path fill="#bdcd44" opacity="1.00" d=" M 188.12 216.29 C 188.70 216.87 188.70 216.87 188.12 216.29 Z" />
<path fill="#bdcd44" opacity="1.00" d=" M 307.19 216.24 C 307.74 216.80 307.74 216.80 307.19 216.24 Z" />
<path fill="#bdcd44" opacity="1.00" d=" M 158.20 217.39 C 161.51 217.55 156.65 220.38 158.20 217.39 Z" />
<path fill="#bdcd44" opacity="1.00" d=" M 302.23 230.10 C 305.20 228.58 302.32 233.44 302.23 230.10 Z" />
<path fill="#bdcd44" opacity="1.00" d=" M 166.09 231.11 C 167.71 230.63 168.28 231.21 167.82 232.83 C 166.21 233.30 165.63 232.73 166.09 231.11 Z" />
<path fill="#bdcd44" opacity="1.00" d=" M 128.12 234.00 C 131.07 232.41 128.32 237.33 128.12 234.00 Z" />
<path fill="#bdcd44" opacity="1.00" d=" M 304.25 240.24 C 304.80 240.79 304.80 240.79 304.25 240.24 Z" />
<path fill="#bdcd44" opacity="1.00" d=" M 204.12 242.28 C 207.45 242.61 202.42 245.14 204.12 242.28 Z" />
<path fill="#bdcd44" opacity="1.00" d=" M 122.37 243.12 C 125.34 241.58 122.50 246.44 122.37 243.12 Z" />
<path fill="#bdcd44" opacity="1.00" d=" M 307.12 247.38 C 308.92 246.88 309.74 250.16 307.49 249.59 C 305.38 249.90 304.62 247.24 307.12 247.38 Z" />
<path fill="#bdcd44" opacity="1.00" d=" M 134.23 248.17 C 134.81 248.74 134.81 248.74 134.23 248.17 Z" />
<path fill="#bdcd44" opacity="1.00" d=" M 317.15 252.38 C 320.47 252.51 315.62 255.37 317.15 252.38 Z" />
<path fill="#bdcd44" opacity="1.00" d=" M 138.20 255.26 C 138.74 255.80 138.74 255.80 138.20 255.26 Z" />
<path fill="#bdcd44" opacity="1.00" d=" M 145.24 257.97 C 148.18 256.37 145.48 261.30 145.24 257.97 Z" />
<path fill="#bdcd44" opacity="1.00" d=" M 318.27 258.27 C 318.82 258.81 318.82 258.81 318.27 258.27 Z" />
<path fill="#bdcd44" opacity="1.00" d=" M 338.32 261.20 C 338.88 261.76 338.88 261.76 338.32 261.20 Z" />
<path fill="#bdcd44" opacity="1.00" d=" M 164.26 262.32 C 164.81 262.88 164.81 262.88 164.26 262.32 Z" />
<path fill="#bdcd44" opacity="1.00" d=" M 205.10 263.04 C 208.06 261.45 205.30 266.38 205.10 263.04 Z" />
<path fill="#bdcd44" opacity="1.00" d=" M 171.05 265.10 C 174.37 265.34 169.45 268.05 171.05 265.10 Z" />
<path fill="#bdcd44" opacity="1.00" d=" M 297.20 274.19 C 297.75 274.74 297.75 274.74 297.20 274.19 Z" />
<path fill="#bdcd44" opacity="1.00" d=" M 279.21 275.21 C 279.75 275.76 279.75 275.76 279.21 275.21 Z" />
<path fill="#bdcd44" opacity="1.00" d=" M 203.01 276.12 C 206.34 276.34 201.41 279.06 203.01 276.12 Z" />
<path fill="#bdcd44" opacity="1.00" d=" M 341.02 276.20 C 344.36 276.42 339.43 279.13 341.02 276.20 Z" />
<path fill="#bdcd44" opacity="1.00" d=" M 324.10 278.27 C 327.41 278.37 322.59 281.28 324.10 278.27 Z" />
<path fill="#bdcd44" opacity="1.00" d=" M 198.29 283.20 C 198.84 283.74 198.84 283.74 198.29 283.20 Z" />
<path fill="#bdcd44" opacity="1.00" d=" M 233.31 293.22 C 233.85 293.75 233.85 293.75 233.31 293.22 Z" />
<path fill="#bdcd44" opacity="1.00" d=" M 291.10 305.15 C 294.42 305.29 289.56 308.11 291.10 305.15 Z" />
<path fill="#bdcd44" opacity="1.00" d=" M 206.27 308.15 C 207.71 307.69 208.14 308.16 207.59 309.56 C 206.15 310.00 205.72 309.53 206.27 308.15 Z" />
<path fill="#bdcd44" opacity="1.00" d=" M 333.20 308.14 C 334.83 307.63 335.38 308.18 334.87 309.81 C 333.25 310.30 332.69 309.74 333.20 308.14 Z" />
<path fill="#bdcd44" opacity="1.00" d=" M 365.28 317.17 C 368.22 315.59 365.46 320.50 365.28 317.17 Z" />
<path fill="#bdcd44" opacity="1.00" d=" M 262.21 321.07 C 265.14 319.46 262.44 324.41 262.21 321.07 Z" />
</g>
<g id="#2c3023fe">
<path fill="#2c3023" opacity="1.00" d=" M 276.07 35.37 C 277.83 34.94 279.66 35.17 281.44 35.33 C 281.17 35.56 280.63 36.01 280.35 36.24 C 280.51 36.91 280.70 37.56 280.92 38.21 C 279.35 37.34 277.75 36.52 276.13 35.76 L 276.07 35.37 Z" />
<path fill="#2c3023" opacity="1.00" d=" M 215.98 40.41 C 217.36 40.02 217.86 40.52 217.47 41.90 C 216.07 42.31 215.57 41.81 215.98 40.41 Z" />
<path fill="#2c3023" opacity="1.00" d=" M 301.88 41.61 C 304.78 40.33 307.96 40.11 311.10 40.30 C 308.05 40.92 304.98 41.43 301.88 41.61 Z" />
<path fill="#2c3023" opacity="1.00" d=" M 180.09 42.26 C 183.38 42.46 178.53 45.27 180.09 42.26 Z" />
<path fill="#2c3023" opacity="1.00" d=" M 184.16 45.07 C 187.12 43.51 184.35 48.40 184.16 45.07 Z" />
<path fill="#2c3023" opacity="1.00" d=" M 328.09 50.55 C 329.47 50.10 329.97 50.57 329.59 51.97 C 328.18 52.42 327.68 51.95 328.09 50.55 Z" />
<path fill="#2c3023" opacity="1.00" d=" M 350.19 58.50 C 350.03 58.00 349.72 56.99 349.57 56.49 C 353.72 57.36 358.10 58.66 361.12 61.80 C 357.67 60.12 353.91 59.31 350.19 58.50 Z" />
<path fill="#2c3023" opacity="1.00" d=" M 103.21 97.44 C 105.17 98.11 102.34 100.74 101.13 99.69 C 100.47 98.49 102.15 97.41 103.21 97.44 Z" />
<path fill="#2c3023" opacity="1.00" d=" M 239.84 127.73 C 243.51 129.92 247.20 127.01 250.99 127.10 C 264.94 128.35 279.05 127.54 292.88 130.04 C 297.32 130.98 301.90 131.60 306.43 131.15 C 316.35 130.26 326.02 134.56 335.91 133.00 C 341.65 135.74 348.23 134.44 354.04 137.05 C 359.06 139.33 364.95 140.04 369.15 143.86 C 372.34 147.40 375.85 150.85 377.59 155.40 C 380.73 159.32 383.66 163.81 384.05 168.97 C 384.40 172.97 387.19 176.35 387.34 180.41 C 387.56 186.28 387.46 192.40 390.03 197.84 C 388.50 200.18 387.65 202.91 388.35 205.70 C 389.94 211.10 389.42 216.92 391.77 222.12 C 390.48 230.00 390.80 238.07 391.27 246.01 C 391.18 251.79 389.43 257.52 390.56 263.28 C 390.36 266.84 387.67 269.86 387.76 273.52 C 387.13 277.44 388.20 281.47 386.92 285.28 C 386.69 289.33 387.67 293.51 386.49 297.49 C 385.15 302.12 383.01 306.50 380.52 310.61 C 379.70 314.03 379.15 317.90 375.97 320.04 C 372.76 322.08 371.05 326.34 367.07 327.05 C 363.77 327.60 362.41 331.40 359.22 332.19 C 354.73 333.73 350.36 335.75 346.62 338.70 C 342.63 337.72 338.35 337.74 334.53 339.38 C 332.47 340.33 330.30 339.16 328.18 339.12 C 326.33 339.79 324.65 340.86 322.79 341.53 C 321.50 341.36 320.33 340.73 319.12 340.30 C 314.15 343.17 308.16 341.53 302.73 342.41 C 293.99 341.50 285.30 344.23 276.59 342.51 C 271.95 342.58 267.25 343.54 262.62 342.58 C 258.37 341.82 253.53 345.53 249.96 342.05 C 247.83 342.68 245.60 343.40 243.40 342.62 C 239.20 341.40 234.87 343.19 230.63 342.33 C 225.14 341.11 219.72 343.96 214.22 342.75 C 212.47 342.23 210.77 342.69 209.12 343.29 C 206.85 342.28 204.42 341.65 201.97 341.27 C 200.59 341.75 199.33 342.50 198.04 343.16 C 197.00 342.37 195.97 341.57 194.93 340.79 C 194.11 341.27 193.31 341.76 192.50 342.25 C 192.11 341.90 191.33 341.21 190.95 340.86 C 189.67 341.40 188.41 341.95 187.15 342.51 C 186.11 341.74 185.09 340.95 184.07 340.16 C 184.04 340.69 183.98 341.73 183.94 342.26 C 181.83 342.06 179.70 342.01 177.58 342.02 C 174.76 340.12 171.46 341.58 168.45 341.26 C 163.84 338.50 158.50 342.71 153.87 339.97 C 151.00 338.25 147.65 339.07 144.52 338.68 C 140.14 337.27 135.96 334.52 131.16 335.32 C 126.86 333.57 122.74 330.87 119.29 327.71 C 114.82 322.04 109.56 316.73 107.29 309.71 C 103.86 303.87 103.61 296.98 101.20 290.77 C 101.15 288.85 101.99 286.84 100.95 285.05 C 99.14 281.51 100.29 277.54 100.81 273.85 C 101.50 270.76 98.76 268.16 99.15 265.11 C 100.54 259.72 98.36 254.36 98.97 248.89 C 97.63 240.67 98.05 232.31 98.03 224.02 C 99.67 213.74 98.93 203.14 101.89 193.04 C 101.11 191.87 100.27 190.74 99.60 189.51 C 98.60 180.64 103.73 172.55 103.64 163.74 C 104.92 162.36 107.09 161.27 107.11 159.15 C 107.32 158.05 107.17 156.81 107.81 155.84 C 110.27 152.05 112.71 148.17 116.07 145.10 C 119.65 141.93 122.94 138.11 127.64 136.62 C 133.97 134.71 140.55 133.87 147.02 132.66 C 152.37 132.86 157.68 132.18 162.97 131.50 C 167.15 133.26 171.64 131.69 175.99 132.02 C 183.62 132.45 191.11 130.50 198.73 130.69 C 204.03 130.69 209.18 129.38 214.44 129.02 C 214.49 129.53 214.60 130.55 214.65 131.06 C 220.32 128.59 227.55 127.53 233.01 130.98 C 232.70 129.92 232.40 128.85 232.10 127.79 C 233.98 128.01 235.83 128.44 237.60 129.11 C 238.34 128.65 239.09 128.19 239.84 127.73 M 316.28 136.26 C 316.81 136.80 316.81 136.80 316.28 136.26 M 316.29 139.32 C 316.84 139.87 316.84 139.87 316.29 139.32 M 209.08 146.18 C 207.53 149.16 212.39 146.35 209.08 146.18 M 287.08 155.20 C 285.54 158.17 290.42 155.34 287.08 155.20 M 258.13 165.19 C 256.61 168.21 261.44 165.30 258.13 165.19 M 300.33 169.23 C 300.90 169.80 300.90 169.80 300.33 169.23 M 317.27 182.20 C 317.83 182.76 317.83 182.76 317.27 182.20 M 153.30 183.24 C 153.87 183.81 153.87 183.81 153.30 183.24 M 212.02 194.16 C 211.93 210.46 212.09 226.77 211.94 243.08 C 211.03 250.51 210.32 258.05 211.39 265.51 C 211.91 268.49 210.42 271.34 210.52 274.31 C 210.57 277.88 210.50 281.45 210.60 285.01 C 216.10 283.52 220.96 280.48 226.00 277.92 C 241.73 269.10 257.18 259.79 272.77 250.71 C 279.86 246.08 287.51 242.30 294.26 237.16 C 268.12 219.25 240.92 202.94 213.53 187.03 C 212.93 189.38 212.19 191.73 212.02 194.16 M 184.36 191.02 C 184.46 194.36 187.34 189.49 184.36 191.02 M 183.08 195.41 C 181.55 198.44 186.37 195.56 183.08 195.41 M 338.20 205.21 C 338.77 205.77 338.77 205.77 338.20 205.21 M 134.16 215.25 C 134.72 215.80 134.72 215.80 134.16 215.25 M 188.12 216.29 C 188.70 216.87 188.70 216.87 188.12 216.29 M 307.19 216.24 C 307.74 216.80 307.74 216.80 307.19 216.24 M 158.20 217.39 C 156.65 220.38 161.51 217.55 158.20 217.39 M 302.23 230.10 C 302.32 233.44 305.20 228.58 302.23 230.10 M 166.09 231.11 C 165.63 232.73 166.21 233.30 167.82 232.83 C 168.28 231.21 167.71 230.63 166.09 231.11 M 128.12 234.00 C 128.32 237.33 131.07 232.41 128.12 234.00 M 304.25 240.24 C 304.80 240.79 304.80 240.79 304.25 240.24 M 204.12 242.28 C 202.42 245.14 207.45 242.61 204.12 242.28 M 122.37 243.12 C 122.50 246.44 125.34 241.58 122.37 243.12 M 307.12 247.38 C 304.62 247.24 305.38 249.90 307.49 249.59 C 309.74 250.16 308.92 246.88 307.12 247.38 M 134.23 248.17 C 134.81 248.74 134.81 248.74 134.23 248.17 M 317.15 252.38 C 315.62 255.37 320.47 252.51 317.15 252.38 M 138.20 255.26 C 138.74 255.80 138.74 255.80 138.20 255.26 M 145.24 257.97 C 145.48 261.30 148.18 256.37 145.24 257.97 M 318.27 258.27 C 318.82 258.81 318.82 258.81 318.27 258.27 M 338.32 261.20 C 338.88 261.76 338.88 261.76 338.32 261.20 M 164.26 262.32 C 164.81 262.88 164.81 262.88 164.26 262.32 M 205.10 263.04 C 205.30 266.38 208.06 261.45 205.10 263.04 M 171.05 265.10 C 169.45 268.05 174.37 265.34 171.05 265.10 M 297.20 274.19 C 297.75 274.74 297.75 274.74 297.20 274.19 M 279.21 275.21 C 279.75 275.76 279.75 275.76 279.21 275.21 M 203.01 276.12 C 201.41 279.06 206.34 276.34 203.01 276.12 M 341.02 276.20 C 339.43 279.13 344.36 276.42 341.02 276.20 M 324.10 278.27 C 322.59 281.28 327.41 278.37 324.10 278.27 M 198.29 283.20 C 198.84 283.74 198.84 283.74 198.29 283.20 M 233.31 293.22 C 233.85 293.75 233.85 293.75 233.31 293.22 M 291.10 305.15 C 289.56 308.11 294.42 305.29 291.10 305.15 M 206.27 308.15 C 205.72 309.53 206.15 310.00 207.59 309.56 C 208.14 308.16 207.71 307.69 206.27 308.15 M 333.20 308.14 C 332.69 309.74 333.25 310.30 334.87 309.81 C 335.38 308.18 334.83 307.63 333.20 308.14 M 365.28 317.17 C 365.46 320.50 368.22 315.59 365.28 317.17 M 262.21 321.07 C 262.44 324.41 265.14 319.46 262.21 321.07 Z" />
<path fill="#2c3023" opacity="1.00" d=" M 38.41 234.31 C 38.51 233.89 38.71 233.03 38.81 232.60 C 40.03 233.46 39.89 234.03 38.41 234.31 Z" />
<path fill="#2c3023" opacity="1.00" d=" M 42.27 242.17 C 45.25 240.63 42.38 245.50 42.27 242.17 Z" />
<path fill="#2c3023" opacity="1.00" d=" M 40.25 245.21 C 40.80 245.76 40.80 245.76 40.25 245.21 Z" />
<path fill="#2c3023" opacity="1.00" d=" M 439.23 287.23 C 439.76 287.78 439.76 287.78 439.23 287.23 Z" />
<path fill="#2c3023" opacity="1.00" d=" M 437.27 296.66 C 438.83 296.63 438.91 300.37 437.32 300.31 C 436.46 299.37 436.37 297.60 437.27 296.66 Z" />
<path fill="#2c3023" opacity="1.00" d=" M 56.18 317.23 C 56.72 317.77 56.72 317.77 56.18 317.23 Z" />
<path fill="#2c3023" opacity="1.00" d=" M 58.16 321.42 C 59.55 321.00 60.03 321.50 59.61 322.91 C 58.22 323.33 57.74 322.83 58.16 321.42 Z" />
<path fill="#2c3023" opacity="1.00" d=" M 164.13 341.09 C 167.08 339.49 164.39 344.41 164.13 341.09 Z" />
<path fill="#2c3023" opacity="1.00" d=" M 422.20 342.37 C 425.54 342.39 420.66 345.39 422.20 342.37 Z" />
<path fill="#2c3023" opacity="1.00" d=" M 71.92 344.21 C 72.73 343.63 73.63 343.23 74.60 343.00 C 74.55 343.85 74.41 344.69 74.17 345.52 C 72.83 345.99 72.08 345.56 71.92 344.21 Z" />
<path fill="#2c3023" opacity="1.00" d=" M 418.68 351.74 C 419.84 349.60 421.26 347.62 422.81 345.75 C 422.95 348.55 420.47 350.04 418.68 351.74 Z" />
<path fill="#2c3023" opacity="1.00" d=" M 387.35 383.16 C 390.33 381.60 387.51 386.48 387.35 383.16 Z" />
<path fill="#2c3023" opacity="1.00" d=" M 120.21 400.20 C 120.23 398.92 120.81 398.23 121.95 398.14 C 123.42 398.94 121.82 400.61 120.69 400.65 L 120.21 400.20 Z" />
<path fill="#2c3023" opacity="1.00" d=" M 297.71 432.27 C 298.65 431.41 300.42 431.43 301.37 432.30 C 301.41 433.91 297.68 433.82 297.71 432.27 Z" />
<path fill="#2c3023" opacity="1.00" d=" M 214.78 433.46 C 215.15 433.50 215.89 433.57 216.26 433.61 C 216.05 433.95 215.63 434.62 215.42 434.96 L 214.69 434.41 L 214.78 433.46 Z" />
</g>
</svg>
