<?xml version="1.0" encoding="UTF-8"?>
<svg id="Shape_1_copy_2_Image" data-name="Shape 1 copy 2 Image" xmlns="http://www.w3.org/2000/svg" viewBox="0 0 909.564 1618.917">
  <defs>
    <style>
      .cls-1 {
        stroke-width: 0px;
      }
    </style>
  </defs>
  <path class="cls-1" d="M874.002,1130.719c-7.195-2.536,20.213.595,17.77-22.331-5.485-6.952,2.277-9.562,1.265-15.091-14.669-2.118-31.969-2.057-47.374,2.615-57.108,10.002-115.074,4.815-172.81-.739-26.037-5.11-66.572,10.626-85.083-7.539-3.227-31.41-37.502-71.383-18.542-98.846,6.698-12.685-2.381-30.581,20.206-25.594,4.297-.73,27.814-1.042,17.167,5.514-17.87,1.607,40.8,4.125,42.362,6.103,3.797,3.233,40.693-1.889,44.47-2.926-.968-2.375,17.493,5.185,40.894,5.438,35.979.389,71.332,12.749,109.131,9.388,22.737-2.022,29.022,4.214,47.876.251,8.275.757-5.842-6.655-2.378-23.774-1.062-8.597,12.78-14.843,7.076-23.376-7.161-13.677,8.015-23.036,3.629-35.446-20.145-9.363-52.248,2.764-76.549,1.622-31.623-.68-66.713,3.993-100.655.117-22.215,2.979-70.038-13.775-78.06,4.841-21.78-22.272-67.895-3.047-95.847-16.442,1.119-5.228,2.336-44.253-15.947-53.472-.828,6.067-13.247,5.859-19.632,6.273-9.158.72-22.708,14.622-19.228,19.285,2.063,1.559-.075,6.406-2.25,4.042-14.137-2.71-17.3-23.264-24.322-32.316-27.678-.432-24.395,71.26-27.876,66.098-.521,6.727-7.267.988-4.89-3.297,1.591-17.373-57.104-3.776-72.982-9.576-6.389.848-20.309-10.298-33.547-3.904-3.725-1.638,4.151,9.797.336,11.204-10.666,4.091-21.784.099-30.734-1.828-.722-1.013-4.824,13.234-7.541,11.045-.938-4.583,4.401-7.012,3.06-13.719-32.424,1.823-69.726,16.632-100.553,14.428-24.219-14.879-77.811-.45-110.429-1.36-13.035,10.208-5.64,17.124-10.002,36.336-1.736,7.646,0,0-2.752-6.693-10.849-20.923-1.615,24.387-1.799,32.019,54.706,22.47,130.284,2.268,190.471,12.653-5.782-.102-4.02,7.329,1.391,4.231,56.291-4.386,111.145-5.596,166.397,7.305,43.974-1.701,44.293,3.193,42.315,2.974,14.556,16.366,33.321,88.354,29.957,91.841-3.463,3.589-119.506,8.783-178.065,14.263-43.851,2.688-100.199,18.102-138.456,9.831-38.238,3.759-83.088-5.314-92.159,10.166.844,7.81-5.552,7.371-6.697,11.206,2.904,7.986,8.121,33.505,17.008,43.883,12.622,5.978,29.535,25.478,23.876,25.48-29.048,17.858,112.381-8.009,126.298-5.109,35.114-3.725,70.73-5.495,105.974-3.554,10.481-2.442.319-9.547,9.001-15.412,2.732,18.939,14.556,10.57,12.762,14.538,3.033,13.731,36.769,7.323,48.626,4.727,14.783-.924,4.752-13.118,16.05-12.942,9.643-.828,7.134,8.172,10.223,11.649,3.03-3.561,45.128,7.207,53.135,3.134,67.583,6.081,132.505-3.429,201.007-2.512,7.686,3.633,22.307-8.279,39.56,4.747,21.919,2.995,60.132.791,60.132.791,0,0,26.281,7.418,34.813-4.747-2.44-6.738,37.081-7.691,39.301-8.349,4.843,7.248,9.644,7.991,17.014,4.117,11.185,2.297-1.391-16.706,3.248-22.02,1.196-3.673,6.45-2.648,8.883-6.563.883-1.421-14.644-27.316-35.525-34.677ZM466.771,994.936c.138.871.773,1.242,1.266,1.297-.426-.479-.848-.916-1.266-1.297ZM840.499,1560.591c3.814-8.576-5.551-10.255-10.553-11.196-21.529-18.09,45.404-30.191,10.184-45.792-4.276-.778-.799-4.161.184-6.672-3.893-6.683-2.569-27.965-13.428-17.263-13.867-2.164-29.388-31.42-41.851-26.453-.16-14.306-17.976-24.439-26.195-34.914-3.212-1.576-8.466-.173-6.84-8.509-26.046-26.585-56.296-48.123-87.33-71.64,13.907-5.343,20.472,13.853,31.284,11.253-19.105-29.347,67.609-3.394,83.556.598-31.601.696,36.372,26.365,24.529,6.088,8.247-1.678,13.916.142,33.88,3.527,19.964,3.385,5.685-51.614,9.561-51.965,8.373-11.859-20.548-23.332-30.338-23.727-8.868-2.995-.401,7.517-2.539,9.946-4.533-1.731-14.857-6.383-19.513-7.909-4.497,2.641-39.965,3.867-41.865-1.095-5.776,1.211-55.035,5.192-57.953-5.084-20.97-14.498-57.054-10.435-83.231-18.518-15.433,10.193-40.806,3.432-59.192,2.37-35.902-2.315-79.13-8.831-106.032-4.05-33.122-15.096-98.888-7.103-142.909-11.103-6.595,3.706-91.11-5.95-77.139,6.843,38.021-5.376,49.406,10.754,3.068,12.077-27.403,6.167-60.853-4.898-84.04,9.241-6.684,7.747,7.252,12.448-2.324,17.356.493,3.381,15.005,2.076,14.317,9.906-1.965,14.702,6.054,33.715,22.933,30.142,22.113-4.261,57.993-1.754,65.372-2.386,18.462-1.582,42.883,6.247,34.435,16.59-16.343,18.481-39.031,34.654-48.731,56.02.51,3.409-19.767,16.615-6.276-1.402,13.491-18.017-12.402,8.67-21.099,20.044-8.697,11.374-43.266,45.162-61.187,64.879-19.408,11.782-11.694,10.105-12.659,14.242-3.358,20.029-14.287,7.589-12.254,17.373,4.888,5.651,1.325,12.417,5.708,10.264,6.691,1.23-7.088,23.566,1.689,21.597,1.477.509,3.536-3.288,4.528.024.673,11.019-3.671,46.589,3.728,33.55,4.194-4.591,13.148,2.732,15.374-3.784,2.642-3.941,5.891-.306,3.794,2.813,11.523,14.622,24.406,6.216,26.896,8.61,3.317,9.395-15.004,17.31-10.798,26.432,9.657-6.881,18.581-25.727,28.838-33.388,4.569,4.259,17.805-6.57,19.279-14.522,7.173-.132,10.02-10.889,17.399-12.557,23.574-22.015.975-16.044,15.596-31.782-13.074,38.287,46.969-32.357,45.883-49.56-1.087-17.203,3.025,5.904,5.208,3.265s59.946-72.722,74.59-84.356c25.001-25.564,65.504-47.043,81.463-76.182,5.163,6.916,13.488-5.455,13.719-.267,55.138,24.951,107.806,75.492,163.459,109.125,4.447,3.099,9.738,3.274,12.61,4.953,2.032,3.488,3.353-3.15,5.327-.535.808,3.053-3.976,5.483.677,7.485,26.242,13.434,43.179,41.417,65.344,61.099,19.905,17.712,37.667,51.375,60.373,61.352,5.984,10.81,27.594,37.568,30.189,11.788-1.83-7.414,9.929-9.984,8.391.029-.943,5.122,3.623,6.155,6.273,8.02,3.837,2.762,30.708,9.97,33.952,12.057,1.87,1.044,4.928,2.499,5.422-.82,13.781-18.655-28.666-16.489-22.731-33.53ZM92.304,664.197c3.872-.65,8.49,6.034,12.198,1.716,15.368-18.605,22.285-52.333,50.641-42.64-5.63,2.279-1.165,17.291,5.186,11.578,5.312-5.674-2.131,2.171,7.824,24.698,13.186,18.749,45.942,23.021,46.552,37.32,12.255,4.832,16.847,15.62,24.602,22.466.73,7.374,10.075,7.498,11.08,7.111,12.634-7.589,30.751,12.711,36.833,14.9,4.834.793,18.286,14.963,24.683,12.418,2.579-.393,5.928-.498,8.121,4.246-11.984,3.223,19.875,1.346,23.247.501-3.745,14.95,10.216,5.284,15.959,14.728.32.855,28.712,6.079,36.692,1.615-1.339-7.002,75.227,15.729,61.511-1.401-4.884-8.424,18.806-.014,16.339,8.155,2.023-4.225,69.416,8.672,53.632-4.49-5.986,1.407-6.766-7.989-.374-4.679,6.951,4.687,15.018-1.398,22.746,1.757,5.864,3.233,10.745-3.793,16.095-2.39,19.75,10.594,47.636-4.981,65.332,5.678-18.781,20.398,42.576-1.092,46.84-7.594,6.765-5.786,29.754-5.281,25.002-15.738-6.751-18.969-18.493-2.162-17.67-13.418,2.182-2.044,25.682,1.797,22.829,7.92-1.141,1.534-.82,3.938.385,5.139,21.202-9.337,43.282-26.722,62.585-42.311,6.881-8.755,19.91-10.446,23.231-20.82-.658-2.948,8.486-6.148,8.819-2.749,1.918,7.589-23.875,37.712-24.143,49.285-54.979,83.796,26.635-17.076,37.692-43.563,7.724-3.114,24.313-32.113,32.662-27.207,5.112-5.797,7.787-27.7,10.157-22.882,6.021-13.989,20.409-152.41,30.113-81.776,10.753,39.917,5.861-15.093-2.289-26.662,4.299-46.775,16.405-97.3,3.044-146.745-7.795-14.789.717-58.071-20.001-58.345,12.479-10.602-3.534-32.132-9.891-42.859-8.84-27.062-32.874-17.317-29.489-19.722,23.517.868,7.233-24.07,4.772-37.15-5.542-4.421-25.325-15.658-21.757-24.953-9.92,3.292-8.49-15.383-10.097-22.278-18.013-25.237-36.645-54.349-62.306-70.751-.052,7.05,8.258,10.083,8.679,16.028.713,11.109,14.42,11.97,17.953,23.619-2.541,16.261-9.686-17.507-15.997-9.5-15.211-17.396-26.121-40.496-46.251-52.214,6.663,7.737,10.009,44.318,6.707,35.426-4.413-6.547-1.002-17.384-10.81-15.102,2.801-9.678.318-17.998-2.705-26.221C628.725,19.972,526.8,15.184,435.684.666c-161.49-4.93,69.193,18.429,90.496,40.008-86.46-21.524-76.949-25.782-165.815-15.384-8.277-1.778-13.659,4.357-20.995,3.777-18.672,2.68-.432,11.929,4.987,19.018,6.764,5.495-6.231,6.631-7.85.08-2.524-3.911-4.24,1.114-6.437,1.079-3.035,1.159-18.985-12.516-22.49-8.774,4.144,3.711-11.438-3.552-12.572,3.906-1.581,1.584-36.28,23.653-42.956,33.119-2.896,4.327,1.089,13.755-5.482,14.118-9.228,2.213-9.474,20.83-10.265,13.527-14.361-7.618-13.21,20.206-20.237,26.954-8.822,1.516-17.795,4.074-26.423,5.713-4.255,5.357-37.085,36.536-39.875,32.017-22.606,8.531-105.208,150.243-63.474,153.754,13.521,10.414-13.638,8.379-19.579,12.065-19.763,48.189,7.986,113.03,17.956,163.521,1.464,12.352-11.988,32.883-21.654,37.468-1.56-.576-4.293.655-2.651,2.974,3.251,7.723,4.376,15.981-3.945,19.126-2.049,7.358-18.387,27.652-23.612,35.047l-4.295,9.917c-13.698,2.538-48.506,52.103-12.548,28.144,2.772,13.772-22.455,25.14-14.359,40.92-4.49,21.616,19.142,52.833,8.698,68.595-1.576,2.371-.26,9.155,1.654,10.317,3.445.408,1.334-7.56,3.655-7.955,4.265-.769,7.851,1.306,4.852,5.951,10.21-1.697,23.416-10.092,12.04,3.48-5.823,2.61-6.927,10.638-12.304,13.747-.411,3.506,2.85,6.495,3.179,10.031,6.48-4.85,8.822-15.768,15.925-20.928,21.057-24.792,38.993-53.417,58.735-79.586,5.278-6.003-7.889-5.235-5.74-12.218ZM214.971,354.783c3.557-17.851,25.82-33.182,17.782-46.38,2.905-4.91,10.764,1.708,9.925-8.96,11.873-14.469,24.332-30.801,30.586-50.099,4.935-2.65,19.735-27.429,26.87-33.451,7.324-6.182,19.865-20.647,32.845-21.456,23.957,20.745,66.082-5.224,96.826-5.893-63.302-17.589,20.334-8.297,42.619-7.843,15.821-3.182,29.983,6.305,44.279,8.18-17.557-18.197,98.737,11.059,79.48,24.653,51.494.18,86.118,63.061,118.48,100.329,9.218,4.694,11.027,35.643,22.4,24.384,4.989.602,3.942,3.336,2.942,12.777-.575,8.53-9.216,1.719-.781,13.613,3.248-.585,22.112,9.066,17.64,37.84,20.14,77.891-19.764,164.852-74.154,218.258-1.075,7.885-6.286,1.971-9.503,5.754-2.555,1.557-4.758,7.172-7.786.681-13.025,7.027-49.264,1.87-49.968,19.66,2.409,3.873-3.427,7.504-2.968,1.885-4.646-13.709-23.158,1.389-33.45,1.186-5.419-1.243-1.038,6.584-5.091,7.85-3.921-1.826-3.907-9.555-9.481-5.689-34.227,10.892-70.04,8.206-105.143,4.191-28.254,10.185-158.662-64.142-116.897-3.206-4.7,15.593-19.183-56.893-23.343-31.953-23.781-14.402-50.681-31.89-72.549-57.657-19.954-23.513,8.493-36.625,6.807-41.895,4.835-7.035,13.954-13.38,19.484-21.628,12.505-11.211,10.844-19.104,23.381-28.561-1.846-4.736,19.943-20.467,22.154-27.429.2-2.432-9.495-6.33-10.267-11.212-2.579-16.287-7.123-16.988-9.263-16.096.294-.301.648-.687,1.068-1.176,3.709-20.354-22.681-45.89-32.558-50.103-21.772,11.07-15.259,19.674-19.896,40.949-.553,2.539-7.602-.236-9.261-.868-12.231-2.277-12.811,19.162-22.21,16.977-6.386-1.485-5.021-47.432-.998-67.614Z"/>
</svg>