<?xml version="1.0" encoding="utf-8"?>
<!-- Generator: Adobe Illustrator 28.2.0, SVG Export Plug-In . SVG Version: 6.00 Build 0)  -->
<svg version="1.0" id="Calque_1" xmlns="http://www.w3.org/2000/svg" xmlns:xlink="http://www.w3.org/1999/xlink" x="0px" y="0px"
	 viewBox="0 0 512 512" style="enable-background:new 0 0 512 512;" xml:space="preserve">
<style type="text/css">
	.st0{fill:#202014;}
	.st1{fill:#B9CE00;}
</style>
<g id="_x23_bdce45ff">
	<path class="st0" d="M243.8,46.7c4,0,7.5-2.1,11.3-3.2c5.2-0.5,8.6,4.3,13.2,5.8c4-0.2,8-1.7,12.1-0.7c4.5,0,9-0.3,13.5-0.4
		c3.9,1.1,6.3,5.5,10.6,5.8c0.5,1.2,1,2.4,1.4,3.6c4.4-0.2,8.4,4.3,12.7,2c3.1-1.3,6.5-2.5,9.9-2.4c0.2-0.5,0.6-1.6,0.9-2.1
		c2.2,0.3,4.8-0.4,6.5,1.1c3.2,2.8,7.6,5.1,12,4.1c1.8,2.6,4.2,4.5,6.6,6.5c1.9,0.4,3.8,0.1,5.7,0c4.8,5.5,12.4,6.8,18,11.1
		c1.4,2.7,1.7,5.9,3.5,8.4c3.2,1.8,5.7,4.7,9.1,6c5.8,6.8,12.5,14.5,22.2,14.6c2.7-0.5,3,2.5,3.9,4.3c2.5,1.9,5.4,3.3,8.3,4.6
		c-1.8,3.3,0.5,6.5,1.3,9.6c2.7,3.6,4.2,7.9,6.3,11.8c2.5,4.2-0.9,10.2,3.3,13.6c3.6,4,6.4,10.6,2.5,15.3c1.1,3.3,3,6.2,5.8,8.4
		c3.1,2.4,3.1,6.6,4.1,10c2,0.9,4.2,1.2,6.4,0.6c2.3,3.7,4.7,8,3.8,12.6c0.8,0.3,2.2,1,3,1.3c-0.1,0.4-0.3,1.4-0.4,1.8
		c-1.3,2.1,2.1,2.1,0.9,0l-0.1-1.3c0.8,0.8,1.2,1.7,1.4,2.8c0.5,6.5,1.1,13.1,2.1,19.5c0.7-0.1,1.4-0.2,2.1-0.4
		c3.4,2.5,4,6.9,3.6,10.9c1.9,2,1.8,4.9,1.3,7.5c-1.5,2.7-3.9,4.8-5.1,7.6c-1.6,3.6-3,7.5-3,11.6c-0.9,4.7,3.1,8.7,2.2,13.5
		c4.9,3.4,1.9,9.5,0.4,13.9c-2.3,4.7-2,10.1-0.4,15c-0.2,4.2,0.2,8.4,0.6,12.5c-1.9,0.8-5.4-0.5-6,2.1c0.8,5.8,3.6,11.7,1.5,17.5
		c-0.7,2.3-0.8,4.9-2.1,6.9c-1.4,1.4-3.3,2.1-5.1,2.9c-0.6,2.4-1.5,4.8-3.3,6.6c-3.1,3.5-3.9,8.6-7.9,11.3c0.1,1,0.3,2.1,0.4,3.1
		c-2.4,3.1-6.5,4.2-8.8,7.5c-1.9,1.8-1.6,4.7-3.1,6.7c-2.4,3.5-4,8.2-8.3,9.8c-1.2,1.4-2,3-2.4,4.8c-2,0.5-4.5,0.1-5.9,1.9
		c-3.3,3.5-6.8,6.9-9.6,10.8c-2.1,0.3-4.2,0.4-6.3,0.4c-1,2.5-1.2,5.6-3.5,7.4c-3.8,4.1-6.7,9.4-11.5,12.5c-2.4,1-4.9,0.6-7.4,0.3
		c-2.6,0.3-5.1,1.1-7.6,1.5c-1.3,4-3,8.1-6.2,11c-3.3,3.2-5.5,7.5-9.3,10.1c-2.5,0.5-5,0.8-7.5,0.8c-0.1,0.8-0.2,2.3-0.2,3
		c-0.8,0.1-2.3,0.2-3.1,0.2c-2.1,0.1-4.2-0.3-6.2-0.6c1,0.9,2.1,1.9,3.1,2.8c-1.3,1.7-2.5,3.6-4.5,4.7c-4.2,0.6-8.9,1.6-12.4-1.5
		c-0.8,0.9-1.6,1.7-2.5,2.5c0-0.8-0.1-2.5-0.2-3.4c-0.9-0.1-2.7-0.3-3.6-0.4l0-0.8c0-0.6-0.1-1.8-0.1-2.4c-3.3,0.5-6.6,1.1-9.5,2.6
		c-3.2,2.4-7.4,1.7-11,3.1c-1.9,0.8-3.9-0.1-5.8,0.3c-2.7,0.6-5.4,1.4-8.2,1.9c-0.3,1.1-0.5,2.1-0.8,3.2c-2.7-0.4-5.4-0.9-7.8-2.2
		c-3.7-0.3-7.2,1-10.8,1.8c-2.6,1-4.1-1.9-5.8-3.3c-2.4,1-5.9,3.7-7.6,0.3c-4,2.7-8.8,3.6-13.4,4.5c-4.9-0.5-7-6-7.3-10.2
		c-1.1-0.6-4,0.1-3.4-1.8c0.5-0.4,1.4-1.3,1.9-1.7c-2.8-1-4.8,1.8-7.1,2.8c-2.5,0.4-5.2-0.1-7.6,0.9c-3.5,0.8-6.3,3.1-9.7,4.3
		c-1.8-0.4-3.5-1.5-4.9-2.7c-1.3-1.4-2.7-2.6-4.4-3.5c-2.9-1.9-7.1-2.5-8.4-6.2c-0.9,0.1-1.8,0.2-2.7,0.3c-0.4-1-0.8-2-1.1-3
		l-0.7-0.3c-3.5,0.6-7.9,0.5-10.4-2.6c-1.9-2.9-5.1-4.5-7.7-6.7c-2.4-1.6-5,0.3-7.5,0.7c-3,0-6-0.9-8.6-2.4c-1.6-1.6-3.4-3-5.4-4.2
		c-0.5,0.3-1.6,1-2.2,1.3c-2.3-1-4.3-2.8-6.5-4.1c-0.4-1.9,0.5-4.4-1-5.9c-2.7-1-5.9-0.9-8.2-2.8c-0.9-4-2.7-7.6-5.4-10.7
		c-2.8-3.2-4-7.6-7.5-10.4c0.4-1.5,0.9-3,1.3-4.5c-1-0.3-2-0.6-3-0.9c-0.7-2.4-1.1-5.5-3.7-6.6c-6.5-2.2-13.6-4.4-18.4-9.5
		c-3.8-6.4-7.7-13.6-6.9-21.4c-1.2,0.8-2.4,1.5-3.6,2.3c-2-2.1-4.4-4.3-5.2-7.2c-1-3.1-2-6.3-4.5-8.5c-2.1-1.9-3.2-4.8-3.3-7.6
		c-0.2-0.5-0.6-1.5-0.8-2c-2.7-2.8-5.6-5.4-7.7-8.6c-2.1-5.7,1.2-11.2,2.1-16.8c1-2.1,2.3-4.2,2.1-6.6c-2.5,0-4.8-1.6-5.5-3.9
		c-0.3-1.8,1.6-2.8,2.6-3.9c-0.4-1.8-0.7-3.7-1-5.6c1.8-0.5,3.4-1.4,4.6-2.8c-0.8,0-2.4-0.1-3.2-0.2c-0.2-2.7,3.4-4.2,2.1-6.9
		c-1-2.1-0.6-4.3-0.2-6.5c-0.5,0-1.6,0.1-2.2,0.1c-1.3,0-2.5,0-3.8,0c-4-1.9-4.2-7.4-3.3-11.2c0.1-3.7,3.6-5.8,5.5-8.6
		c1.4-4.3-1.6-9.2-6-10c-0.3-2.9-1.7-5.4-3.4-7.6c0.7-3,1-6.4,3.5-8.6c-1.8-3.1-0.6-6.3,1.4-8.9c0.8,0.5,1.5,1,2.3,1.5
		c1.2-5.9,4.1-11.2,5.7-17c3.1-3.9,4.5-8.9,7.7-12.8c-5.7-1.1-5.7-8.3-2.9-12.3c1.5-2.6,2.4-5.5,3.9-8.1c2.2-2.4,5.9-2.6,8-5.2
		c1-2.6,1.6-5.4,3-7.9c2.2-2.5,4.4-5,7.1-7c2.2-1.5,2.7-4.4,4.8-6.1c3.2-2.5,5.6-5.9,8.6-8.7c-0.3-1.2-0.6-2.3-0.8-3.5
		c1.3-1.3,2.5-2.9,3.9-4.2c2.6-1.4,5.4-2.5,7.7-4.3c1.8-1.5,4.7-1.9,5.6-4.4c1.8-3.2,2-7,4.1-10c1.7-2.4,3.4-4.9,4.8-7.6
		c0.6-2.4,0.1-4.9,0.1-7.4c2.2-1,4.5-1.8,6.8-2.3c2.9,0.6,5.2,2.5,7.2,4.5c2-1.4,3.9-3.7,3.3-6.3c-0.5-2.2-0.6-4.6,0.5-6.7
		c4.1,0.3,7.5,3.9,11.7,2.3c0.1-0.5,0.4-1.4,0.6-1.9c0.2,1.1,0.7,2,1.2,3c1.4-1.7,2.5-3.8,4.5-5c2.9-1.5,4.5-4.5,6.9-6.6
		c0.1-0.5,0.3-1.5,0.4-2c-0.2-2,0.7-3.9,1.5-5.6c2.1-1.5,4.5-2.7,7.1-3c2.4,0.6,4.6,2,7,2.6c1.9-0.6,3.8-1.3,5.9-1.4l0,0.9
		c0,0.5,0,1.4,0,1.9c1.2-0.3,2.6-0.5,3.2-1.6c1.9-2.8,3.1-6.2,5.2-8.9c0.1,0.5,0.4,1.4,0.5,1.8c2.6-2.3,5.3-4.4,8.4-6
		c2.9-1.2,6.1-1.7,9-2.7c1.5,1,3,2,4.6,2.8c0.6-1.1,1.1-2.2,1.7-3.3c3.2,0.1,6.4,1.1,9.5,2c3.3,1,6.8,0.9,9.9,2.5
		C241.9,49.9,242.9,48.3,243.8,46.7 M356.8,68.1c-0.8,1.2,1.4,2.4,2.2,1.3C359.7,68.2,357.6,67,356.8,68.1 M419.2,121.7
		c1.4,0.1,2.8,0.3,4.1,0.4c-1.1-1.2-2.2-2.5-3.1-3.9C419.9,119.4,419.6,120.5,419.2,121.7 M229,127.8c-2-0.6-4.1-1.2-6.3-0.9
		c-5.3,0.5-10.7-0.1-16,0c-3.5,0.6-7.1,2-10.5,0c-4,3.4-9.3,1.5-14,2.4c-4.9,0.9-10.5,1-14.2,4.8c-4.2,4.3-11.5,3.9-15.2,8.9
		c-2.3,3.3-5.7,5.6-8.5,8.6c-1.7,2.3-2.8,5.1-4.7,7.3c-3.8,4.3-6.1,9.6-8.2,14.9c-4.2,5.8-5.4,12.9-7.5,19.6
		c-2.4,7.4-2,15.3-2.7,22.9c-0.1,3.5,2.6,6.9,1.1,10.4c-1.7,4.1-1.4,8.6-1.1,13c-0.5,4.5-0.4,9-0.8,13.5c1,7.1-0.7,14.1-0.3,21.2
		c0.9,5.9-1.4,12.1,2.1,17.5c-0.6,0-1.6,0-2.2,0c0.9,6.1-0.3,12.2,0.1,18.4c-0.5,5.3,2.9,9.9,3,15.1c-0.1,3.7,1.5,7,2.5,10.4
		c1.4,3.9,2,8.1,4.2,11.7c1.9,3.2,2.5,7.2,5,10.1c4.9,5.8,8,13.2,14.1,17.9c5.4,5.7,12.5,9.2,19.5,12.3c4.7,0.2,9,2,13.5,3
		c5.4-0.2,10.6,1.9,16,1.2c5.7,0.9,11.5,2.9,17.2,0.8c0.5,1,1,1.9,1.5,2.9c3-0.6,6-0.5,9-0.1c2.1,0.5,4.2-0.8,6.3,0
		c4.2,1.2,8.6,0.4,12.9,0.1c1.2,0.4,2.3,1.1,3.5,1.8c0.9-1,1.9-1.8,3.1-2.4c0.5,0.5,1.6,1.4,2.1,1.9c3.3,0.3,6.7,0.7,10.1,0.8
		c6-0.9,12.3,0.3,18.2-1.5c2.5-1,5,0.5,7.5,0.4c7.3-0.4,15.5,1.6,21.7-3.5c0.8,0.6,1.6,1.3,2.4,2c2.8-0.5,5.5-0.1,8.3-0.1
		c3.4-0.9,6.7-2.4,10.2-3c4.4-0.7,8.3-3.1,12.8-2.9c5.6-2.5,11.2-5,17.1-7c0.3-1.1,0.6-2.1,0.9-3.2c5.3-1.1,7.5-6.5,11.5-9.4
		c2.8-3.2,4.5-7.3,7.4-10.5c3.3-3.5,4-8.5,6.9-12.3c2.9-7.5,5.6-15.1,6.7-23.1c0.4-2.8,1.6-5.5,2.1-8.3c0.2-3.1,1.3-6.6-1.3-9
		c1.2-3.4,1.5-7,1.7-10.5c1.3-8.1,2.3-16.6-0.3-24.6c-0.2-4.2,2.1-9-0.5-12.9c2.1-3.6,0.8-8,1.2-11.9c0.5-5.8-1.6-11.4-2.6-17.1
		c0.3-5.1,1.3-10.1,2.4-15.1c1.1-6.7-0.8-13.3-2.9-19.6c-2-11.8-6.4-23.2-12.4-33.6c-4.5-4.9-7.7-10.9-13.2-14.8
		c-2.3-1.6-3.7-4.3-6.3-5.5c-4.6-2-8.7-5-13.5-6.6c-9-2.4-18-4.7-27.2-5.8c-0.8-0.6-1.6-1.2-2.4-1.9c-0.4,0.4-1.1,1.1-1.4,1.5
		c-1.5-0.5-3-1-4.4-1.5c-1,0.7-2.1,1.5-3.1,2.2c-4.2-0.9-8.4-2.9-12.7-1.8c-3.8,1-7.8,0.7-11.7,0.3c-3-0.5-5.7,1.4-8.6,1.4
		c-3.3,0.2-6.4-1.6-9.7-0.9c-3.4,0.7-6.9,0.9-10.4,1.2c-2.9,0.2-5.6-1.2-8.5-0.9c-5.5,0.5-11.3-0.1-16.4-2.2
		C231.8,126.1,230.4,127,229,127.8 M429.4,139.1C429.5,142.4,432.4,137.6,429.4,139.1 M76.7,183.3c-0.7,1.2,1.2,2.6,2.1,1.6
		C79.6,183.7,77.6,182.4,76.7,183.3 M451.2,195.5c-1.1,0.8,0.1,2.9,1.3,2C453.6,196.7,452.4,194.6,451.2,195.5 M57.3,235.6
		c-0.9,1.1-0.7,1.8,0.7,2C59,236.4,58.8,235.7,57.3,235.6 M426.4,381.1C426.5,384.4,429.4,379.6,426.4,381.1 M161.3,429.1
		C161.6,432.4,164.4,427.5,161.3,429.1 M330.3,457.1c-1.4,0.6-1.4,1.3-0.1,2C331.6,458.5,331.6,457.8,330.3,457.1 M272.6,461.2
		c0.2,1.4,0.9,1.6,2.1,0.7C274.5,460.6,273.8,460.3,272.6,461.2z"/>
	<path class="st0" d="M233.6,146.1c1.4-0.4,1.9,0,1.4,1.4C233.7,148,233.2,147.5,233.6,146.1z"/>
	<path class="st0" d="M271.9,149.7c5.7-0.8,11.6-2.1,17.3-1c7.3,0.6,14.6,0.2,22,0.3c15.5,1.5,30.3,7.3,43.6,15.3
		c6.7,5.3,10.9,12.9,14.9,20.2c1.7,6.3,3.8,12.8,3.5,19.4c-0.1,3.7,0.3,7.5,0.5,11.2c-0.8,14.3-0.4,28.6-0.5,42.8
		c0.4,8.3,0.5,16.8-0.9,25c-0.2,4.9,0.6,9.9-0.4,14.8c-1.8,8.4,0.6,17.1-1.4,25.5c-0.8,3.7-1.2,7.5-1.8,11.2
		c-2.2,5.6-3.9,11.6-7.2,16.8c-9.4,7.1-19.9,14.5-32.2,14.8c-4.6,2.1-9.7,2.4-14.6,3.4c-4.2,0.4-8.8,1.4-12.5-1.3
		c-4,3.2-9.2,1.1-13.8,2c-1.7,0.9-2.8,3.4-5,2.6c-1.6-0.8-2.9-2.6-4.8-2.1c-6.6,1.4-13.4,0.1-20.1,1.5c-4,1-8-1.5-11.9,0.2
		c-2.5,1.2-5-1.3-7.6-0.5c-1.4,0.4-2.9,0.1-4.3-0.2c-2.2,0.8-4.7,0.9-7,0.6c-3.3-0.5-6.8-0.1-10.1-1c-3.9-0.9-7.8-0.1-11.7,0.1
		c-8-1-16-2.3-23.8-4.6c-4.3-2-8.6-4.3-13.2-5.8c-3.4-3.3-7.3-6.1-10-10c-2.3-4-7.5-6.3-7.3-11.6c-0.8-0.6-1.6-1.2-2.3-1.9
		c-2.1-7.1-2-14.7-4.4-21.7c0.1-5.1-2.7-10.1-1.3-15.1c0.4-4,0.8-8.2-0.5-12.1c-0.8-2.7-0.1-5.5,0.2-8.2c1.1-6.5-0.1-13.2,1.2-19.7
		c1.2-9.5-0.7-19.3,1.2-28.8c-0.2-2.2-1.8-4.5-0.8-6.7c1.4-3.9,1.1-8.2,0.7-12.3c-0.4-5.6,2.6-10.9,2.6-16.5
		c-0.3-4.6,4.1-8.8,1.6-13.4c0.4,0.1,1.2,0.4,1.6,0.5c3.1-7.6,8.6-14,13.7-20.3c2.3-3.2,6.4-4.2,9.4-6.7c2.9-2.3,6.5-4.4,10.3-4
		c4,0.1,7.9-1.5,11.8-0.7c1.5,0.2,2.9-0.5,4.4-0.8c7.6-1.2,15.2-0.1,22.9-0.8c3.8,0,7.6-0.3,11.4,0.3c5,1.1,10.3-2.5,14.8,0.9
		c2.7-1.7,5.7-1.1,8.7-1C263.3,149.9,267.6,150.1,271.9,149.7 M330.6,177.4c-5.4,1.8-11.4,6.2-10.5,12.6
		c-0.8,10.4,12.7,17.6,21.2,12.1c2.3-1.7,4.7-4.1,4.9-7.1c0.6-4.7,0-10-3.3-13.6C339.7,178.2,335,175.9,330.6,177.4 M256.7,189.1
		c-10.6,1.8-21,4.4-30.9,8.6c-9.4,5-18.6,11.2-24.9,20c-11,11.5-15.5,27.8-16.1,43.4c-0.7,13.5,4.2,26.4,10.1,38.2
		c2.5,5.2,7,8.9,10.6,13.3c12,11.5,27.5,18.5,43.3,22.8c2.1,0.7,4.4,0.2,6.6,0.1c10.4,1.3,20.8-2,30.4-5.8
		c12.2-4.2,21.6-13.6,29.9-23.2c5-6.6,10.3-13.3,12.7-21.4c2.6-7.4,3.7-15.3,4-23.1c1-4.6-1-9-1.7-13.5c-1.3-8.2-4.4-16.2-8.7-23.3
		c-3-5.5-7.7-9.6-11.5-14.5c-8.2-8.1-18.1-15-29.5-17.6c-3-0.4-5.6-2.4-8.8-2.2C267,190.6,261.9,189,256.7,189.1z"/>
	<path class="st0" d="M131.3,188.2c1.6-0.5,2.2,0.1,1.6,1.7C131.4,190.3,130.8,189.8,131.3,188.2z"/>
	<path class="st0" d="M335.5,198.1C338.4,196.6,335.5,201.4,335.5,198.1z"/>
	<path class="st0" d="M270.4,208.2C270.9,208.7,270.9,208.7,270.4,208.2z"/>
	<path class="st0" d="M249.5,213.5c6.7-1.4,13.5,0.6,19.9,2.3c5.2,2.1,10.9,3.1,15.7,6.2c8.8,5.6,15.6,14.2,19.2,23.9
		c4.6,13.4,3.6,28.6-3.1,41.1c-4.1,9.6-12.4,17.1-21.9,21.2c-7.9,4.5-17.3,5.1-26.1,4.6c-6.6-1.7-13.2-4.1-18.8-8.1
		c-7-3.4-11.5-9.9-16.3-15.6c-1.9-2.9-3.4-6-5.4-8.8c-1.6-6.2-4.2-12.5-3.9-19c1.3-4.5,1.6-9.2,3.1-13.6c2.1-7.2,6.2-13.5,10.6-19.5
		C229.5,220.7,239.3,215.3,249.5,213.5z"/>
	<path class="st0" d="M134.5,241.2C137.4,239.6,134.7,244.5,134.5,241.2z"/>
	<path class="st0" d="M316.4,296.2C316.9,296.8,316.9,296.8,316.4,296.2z"/>
	<path class="st0" d="M299.5,301.3C300,301.8,300,301.8,299.5,301.3z"/>
	<path class="st0" d="M280.4,313.1c1.6-0.5,2.2,0,1.6,1.7C280.4,315.3,279.8,314.7,280.4,313.1z"/>
	<path class="st0" d="M289.3,377.2C289.9,377.7,289.9,377.7,289.3,377.2z"/>
	<path class="st0" d="M188.5,379.1C191.5,377.5,188.6,382.4,188.5,379.1z"/>
</g>
<g id="_x23_2c3123fe">
	<path class="st1" d="M188.9,63c0.7-1.1,2.8-1.1,3.2,0.3c-0.6,1.2-2.1,1.4-3.2,1.6C188.8,64.4,188.8,63.5,188.9,63z"/>
	<path class="st1" d="M356.8,68.1c0.8-1.1,2.9,0.1,2.2,1.3C358.1,70.5,356,69.3,356.8,68.1z"/>
	<path class="st1" d="M166.6,69.9l0.8-0.3c-0.1,0.5-0.3,1.5-0.4,2l-0.6-0.6L166.6,69.9z"/>
	<path class="st1" d="M229,127.8c1.4-0.9,2.7-1.7,4.1-2.6c5.1,2.2,10.9,2.7,16.4,2.2c2.9-0.3,5.6,1.1,8.5,0.9
		c3.5-0.2,7-0.5,10.4-1.2c3.3-0.8,6.4,1.1,9.7,0.9c2.9,0,5.6-1.9,8.6-1.4c3.9,0.5,7.9,0.7,11.7-0.3c4.3-1.1,8.5,0.9,12.7,1.8
		c1-0.7,2.1-1.5,3.1-2.2c1.5,0.5,2.9,1,4.4,1.5c0.3-0.4,1-1.1,1.4-1.5c0.8,0.7,1.6,1.3,2.4,1.9c9.2,1.1,18.2,3.4,27.2,5.8
		c4.8,1.6,8.9,4.6,13.5,6.6c2.6,1.2,3.9,3.9,6.3,5.5c5.5,3.9,8.8,9.9,13.2,14.8c6,10.4,10.4,21.8,12.4,33.6c2.1,6.3,4,12.9,2.9,19.6
		c-1.1,5-2.1,10-2.4,15.1c1.1,5.7,3.1,11.2,2.6,17.1c-0.4,4,1,8.3-1.2,11.9c2.6,3.9,0.3,8.6,0.5,12.9c2.6,8,1.7,16.5,0.3,24.6
		c-0.1,3.6-0.4,7.1-1.7,10.5c2.6,2.4,1.5,5.9,1.3,9c-0.5,2.8-1.7,5.4-2.1,8.3c-1.1,8-3.8,15.6-6.7,23.1c-2.9,3.8-3.7,8.7-6.9,12.3
		c-2.9,3.2-4.6,7.3-7.4,10.5c-4.1,2.9-6.2,8.3-11.5,9.4c-0.3,1.1-0.6,2.1-0.9,3.2c-5.8,1.9-11.4,4.5-17.1,7
		c-4.5-0.3-8.4,2.2-12.8,2.9c-3.5,0.6-6.8,2.2-10.2,3c-2.8,0-5.5-0.4-8.3,0.1c-0.8-0.7-1.6-1.3-2.4-2c-6.2,5-14.4,3.1-21.7,3.5
		c-2.5,0.2-5-1.3-7.5-0.4c-5.9,1.8-12.2,0.6-18.2,1.5c-3.4-0.1-6.7-0.5-10.1-0.8c-0.5-0.5-1.6-1.4-2.1-1.9c-1.2,0.6-2.2,1.4-3.1,2.4
		c-1.1-0.6-2.2-1.3-3.5-1.8c-4.3,0.2-8.7,1.1-12.9-0.1c-2.1-0.8-4.2,0.5-6.3,0c-3-0.4-6-0.6-9,0.1c-0.5-1-1-2-1.5-2.9
		c-5.7,2.1-11.5,0-17.2-0.8c-5.4,0.7-10.6-1.5-16-1.2c-4.5-1-8.9-2.8-13.5-3c-7-3.1-14.2-6.6-19.5-12.3c-6.2-4.7-9.2-12.1-14.1-17.9
		c-2.5-2.9-3.2-6.8-5-10.1c-2.2-3.6-2.7-7.8-4.2-11.7c-1.1-3.4-2.6-6.8-2.5-10.4c-0.1-5.2-3.5-9.8-3-15.1
		c-0.4-6.1,0.8-12.3-0.1-18.4c0.5,0,1.6,0,2.2,0c-3.5-5.4-1.2-11.6-2.1-17.5c-0.3-7.1,1.4-14.1,0.3-21.2c0.4-4.5,0.3-9,0.8-13.5
		c-0.3-4.4-0.6-8.9,1.1-13c1.6-3.5-1.2-6.9-1.1-10.4c0.8-7.7,0.3-15.5,2.7-22.9c2.1-6.7,3.3-13.8,7.5-19.6
		c2.1-5.3,4.4-10.6,8.2-14.9c1.9-2.2,2.9-5,4.7-7.3c2.7-2.9,6.1-5.2,8.5-8.6c3.7-5,10.9-4.6,15.2-8.9c3.7-3.7,9.3-3.8,14.2-4.8
		c4.7-0.9,10,1.1,14-2.4c3.4,2,7,0.6,10.5,0c5.3-0.1,10.7,0.5,16,0C224.9,126.6,227,127.2,229,127.8 M233.6,146.1
		c-0.4,1.4,0.1,1.9,1.4,1.4C235.5,146.1,235,145.7,233.6,146.1 M271.9,149.7c-4.3,0.4-8.6,0.2-12.9,0.9c-2.9,0-6-0.7-8.7,1
		c-4.5-3.4-9.8,0.1-14.8-0.9c-3.8-0.6-7.6-0.3-11.4-0.3c-7.6,0.6-15.3-0.5-22.9,0.8c-1.5,0.2-2.9,1-4.4,0.8
		c-3.9-0.8-7.8,0.8-11.8,0.7c-3.8-0.4-7.4,1.8-10.3,4c-3,2.5-7,3.4-9.4,6.7c-5.1,6.4-10.6,12.8-13.7,20.3c-0.4-0.1-1.2-0.4-1.6-0.5
		c2.5,4.6-2,8.8-1.6,13.4c0.1,5.6-2.9,10.8-2.6,16.5c0.3,4.1,0.7,8.3-0.7,12.3c-1,2.2,0.5,4.5,0.8,6.7c-1.9,9.5,0,19.2-1.2,28.8
		c-1.3,6.5-0.1,13.2-1.2,19.7c-0.3,2.7-1.1,5.5-0.2,8.2c1.2,3.9,0.9,8.1,0.5,12.1c-1.4,5,1.4,10,1.3,15.1c2.4,7,2.3,14.6,4.4,21.7
		c0.7,0.7,1.5,1.3,2.3,1.9c-0.3,5.3,4.9,7.6,7.3,11.6c2.7,3.9,6.6,6.7,10,10c4.6,1.5,8.8,3.7,13.2,5.8c7.7,2.4,15.7,3.6,23.8,4.6
		c3.9-0.2,7.8-0.9,11.7-0.1c3.3,0.9,6.7,0.4,10.1,1c2.3,0.3,4.8,0.1,7-0.6c1.4,0.3,2.8,0.7,4.3,0.2c2.6-0.8,5,1.7,7.6,0.5
		c3.9-1.7,7.9,0.8,11.9-0.2c6.7-1.3,13.5,0,20.1-1.5c1.9-0.5,3.2,1.3,4.8,2.1c2.2,0.8,3.3-1.8,5-2.6c4.6-0.9,9.9,1.2,13.8-2
		c3.7,2.6,8.3,1.7,12.5,1.3c4.9-1,10-1.3,14.6-3.4c12.3-0.3,22.7-7.6,32.2-14.8c3.3-5.2,4.9-11.1,7.2-16.8c0.6-3.7,1-7.5,1.8-11.2
		c1.9-8.4-0.5-17.1,1.4-25.5c1-4.9,0.2-9.9,0.4-14.8c1.5-8.2,1.3-16.7,0.9-25c0-14.3-0.3-28.6,0.5-42.8c-0.2-3.7-0.5-7.5-0.5-11.2
		c0.3-6.6-1.8-13.1-3.5-19.4c-4-7.4-8.2-15-14.9-20.2c-13.2-8.1-28.1-13.9-43.6-15.3c-7.3-0.1-14.7,0.3-22-0.3
		C283.5,147.6,277.6,148.9,271.9,149.7 M131.3,188.2c-0.5,1.6,0,2.2,1.6,1.7C133.5,188.2,133,187.7,131.3,188.2 M134.5,241.2
		C134.7,244.5,137.4,239.6,134.5,241.2 M289.3,377.2C289.9,377.7,289.9,377.7,289.3,377.2 M188.5,379.1
		C188.6,382.4,191.5,377.5,188.5,379.1z"/>
	<path class="st1" d="M429.4,139.1C432.4,137.6,429.5,142.4,429.4,139.1z"/>
	<path class="st1" d="M330.6,177.4c4.5-1.5,9.1,0.8,12.3,3.9c3.3,3.6,3.8,8.9,3.3,13.6c-0.2,3.1-2.6,5.4-4.9,7.1
		c-8.5,5.6-22-1.7-21.2-12.1C319.1,183.6,325.2,179.2,330.6,177.4 M335.5,198.1C335.5,201.4,338.4,196.6,335.5,198.1z"/>
	<path class="st1" d="M76.7,183.3c0.9-0.9,2.9,0.4,2.1,1.6C77.9,185.9,75.9,184.5,76.7,183.3z"/>
	<path class="st1" d="M256.7,189.1c5.2-0.1,10.3,1.6,15.5,1.9c3.1-0.1,5.7,1.9,8.8,2.2c11.4,2.6,21.2,9.5,29.5,17.6
		c3.8,4.9,8.5,9,11.5,14.5c4.3,7.1,7.4,15.1,8.7,23.3c0.7,4.5,2.7,8.9,1.7,13.5c-0.3,7.8-1.4,15.7-4,23.1
		c-2.3,8.1-7.7,14.7-12.7,21.4c-8.3,9.5-17.7,19-29.9,23.2c-9.6,3.8-20,7.1-30.4,5.8c-2.2,0.1-4.4,0.5-6.6-0.1
		c-15.9-4.2-31.4-11.3-43.3-22.8c-3.6-4.4-8.1-8.1-10.6-13.3c-6-11.8-10.8-24.8-10.1-38.2c0.7-15.6,5.1-31.8,16.1-43.4
		c6.3-8.8,15.5-15,24.9-20C235.7,193.5,246.1,190.9,256.7,189.1 M270.4,208.2C270.9,208.7,270.9,208.7,270.4,208.2 M249.5,213.5
		c-10.3,1.8-20.1,7.1-27.2,14.7c-4.4,6-8.5,12.3-10.6,19.5c-1.5,4.4-1.8,9.1-3.1,13.6c-0.3,6.5,2.3,12.8,3.9,19
		c2.1,2.8,3.6,5.9,5.4,8.8c4.9,5.7,9.4,12.2,16.3,15.6c5.6,4,12.2,6.4,18.8,8.1c8.9,0.4,18.3-0.1,26.1-4.6
		c9.5-4.2,17.8-11.6,21.9-21.2c6.6-12.5,7.7-27.7,3.1-41.1c-3.6-9.8-10.4-18.3-19.2-23.9c-4.8-3.1-10.4-4.1-15.7-6.2
		C263,214.1,256.2,212.1,249.5,213.5 M316.4,296.2C316.9,296.8,316.9,296.8,316.4,296.2 M299.5,301.3
		C300,301.8,300,301.8,299.5,301.3 M280.4,313.1c-0.5,1.6,0,2.2,1.6,1.7C282.5,313.1,282,312.6,280.4,313.1z"/>
	<path class="st1" d="M451.2,195.5c1.2-0.9,2.5,1.2,1.3,2C451.3,198.4,450,196.3,451.2,195.5z"/>
	<path class="st1" d="M461.3,201l0.9,0C463.4,203.1,460,203.1,461.3,201z"/>
	<path class="st1" d="M57.3,235.6c1.4,0.2,1.7,0.8,0.7,2C56.7,237.4,56.4,236.7,57.3,235.6z"/>
	<path class="st1" d="M53.4,270.2c1.3,0,2.5,0,3.8,0c-1.1,1.1-2.3,2.1-3.6,3C53.6,272.5,53.5,271,53.4,270.2z"/>
	<path class="st1" d="M63.6,331.9c0.2,0.5,0.6,1.5,0.8,2l-0.9-0.2l-0.4-1L63.6,331.9z"/>
	<path class="st1" d="M426.4,381.1C429.4,379.6,426.5,384.4,426.4,381.1z"/>
	<path class="st1" d="M161.3,429.1C164.4,427.5,161.6,432.4,161.3,429.1z"/>
	<path class="st1" d="M337.9,452.7c2.1,0.3,4.1,0.6,6.2,0.6c-0.7,1.1-1.4,2.1-2.1,3.2c-0.3-0.2-0.8-0.7-1.1-1
		C339.9,454.6,338.9,453.6,337.9,452.7z"/>
	<path class="st1" d="M194.7,454.7c1.7,0.8,3.1,2.1,4.4,3.5C197.4,457.3,195.9,456.1,194.7,454.7z"/>
	<path class="st1" d="M308.3,457c2.9-1.5,6.2-2.2,9.5-2.6c0,0.6,0.1,1.8,0.1,2.4C315.1,454.3,311.3,456.4,308.3,457z"/>
	<path class="st1" d="M330.3,457.1c1.3,0.7,1.3,1.3-0.1,2C328.9,458.4,329,457.8,330.3,457.1z"/>
	<path class="st1" d="M272.6,461.2c1.2-0.9,1.9-0.6,2.1,0.7C273.5,462.8,272.8,462.6,272.6,461.2z"/>
</g>
</svg>
