<?xml version="1.0" encoding="utf-8"?>
<!-- Generator: Adobe Illustrator 28.2.0, SVG Export Plug-In . SVG Version: 6.00 Build 0)  -->
<svg version="1.1"
	 id="svg2" xmlns:inkscape="http://www.inkscape.org/namespaces/inkscape" xmlns:svg="http://www.w3.org/2000/svg" xmlns:sodipodi="http://sodipodi.sourceforge.net/DTD/sodipodi-0.dtd" xmlns:rdf="http://www.w3.org/1999/02/22-rdf-syntax-ns#" xmlns:cc="http://creativecommons.org/ns#" xmlns:dc="http://purl.org/dc/elements/1.1/" inkscape:version="1.0.1 (3bc2e813f5, 2020-09-07)"
	 xmlns="http://www.w3.org/2000/svg" xmlns:xlink="http://www.w3.org/1999/xlink" x="0px" y="0px" viewBox="0 0 76.9 88.4"
	 style="enable-background:new 0 0 76.9 88.4;" xml:space="preserve">
<style type="text/css">
	.st0{fill:#FD6440;}
	.st1{fill:#1C1C1B;}
	.st2{clip-path:url(#SVGID_00000109731177571440918830000010977032308217323934_);}
	.st3{fill:#89BD24;}
</style>
<sodipodi:namedview  bordercolor="#666666" borderopacity="1" gridtolerance="10" guidetolerance="10" id="namedview4" inkscape:current-layer="g34" inkscape:cx="54.957439" inkscape:cy="179.34282" inkscape:document-rotation="0" inkscape:pageopacity="0" inkscape:pageshadow="2" inkscape:window-height="1014" inkscape:window-maximized="1" inkscape:window-width="1920" inkscape:window-x="0" inkscape:window-y="29" inkscape:zoom="1.305" objecttolerance="10" pagecolor="#ffffff" showgrid="false">
	</sodipodi:namedview>
<g id="g10" transform="matrix(1.3333333,0,0,-1.3333333,-278.3759,512.67614)" inkscape:groupmode="layer" inkscape:label="272308-P5MS3L-335">
	<g id="g12" transform="translate(50.6712,461.0608)">
		<path id="path14" class="st0" d="M0,0h-6.9l19.6-24.9L-6.9-49.8H0l19.6,24.9L0,0z"/>
	</g>
	<g id="g16" transform="translate(61.9182,461.0608)">
		<path id="path18" class="st0" d="M0,0h-6.9l19.6-24.9L-6.9-49.8H0l19.6,24.9L0,0z"/>
	</g>
	<g id="g20" transform="translate(73.1653,461.0608)">
		<path id="path22" class="st0" d="M0,0h-6.9l19.6-24.9L-6.9-49.8H0l19.6,24.9L0,0z"/>
	</g>
	<g id="g24" transform="translate(143.4173,458.2923)">
		<path id="path26" class="st1" d="M0,0h-12.5L8.8-22.1l-21.3-22.1H0l21.3,22.1L0,0z"/>
	</g>
	<g id="g28" transform="translate(166.4309,458.2923)">
		<path id="path30" class="st1" d="M0,0h-12.5L8.8-22.1l-21.3-22.1H0l21.3,22.1L0,0z"/>
	</g>
	<g id="g32">
		<g>
			<defs>
				<rect id="SVGID_1_" x="-83.3" y="-83.3" width="666.7" height="666.7"/>
			</defs>
			<clipPath id="SVGID_00000043424296447868564810000001754090451816392892_">
				<use xlink:href="#SVGID_1_"  style="overflow:visible;"/>
			</clipPath>
			<g id="g34" style="clip-path:url(#SVGID_00000043424296447868564810000001754090451816392892_);">
				<g id="g40" transform="translate(230.7469,417.929)">
					<path id="path42" class="st0" d="M0,0l-0.1,36.5c0,6.5,7.8,9.7,12.4,5.1l18.3-18.3c2.8-2.9,2.9-7.5,0-10.3L12.4-5.2
						C7.9-9.7,0-6.5,0,0"/>
				</g>
				<g id="g44" transform="translate(361.7849,436.1443)">
					<path id="path46" class="st0" d="M0,0l-31.8,31.8V14h-31.3v-28h31.3v-17.8L0,0z"/>
				</g>
				<g id="g48" transform="translate(462.5496,84.1043)">
					<path id="path50" class="st0" d="M0,0l-38.8,31.8l9.6-17.8h-28.7v-28h28.7l-9.6-17.8L0,0z"/>
				</g>
				<g id="g52" transform="translate(313.0808,240.907)">
					<path id="path54" class="st0" d="M0,0v46.5l37-23.2L0,0z M15.7,58.5c-19.5,0-35.3-15.8-35.3-35.3C-19.5,3.8-3.8-12,15.7-12
						S51,3.8,51,23.2C51,42.7,35.2,58.5,15.7,58.5"/>
				</g>
				<g id="g56" transform="translate(85.6917,351.3753)">
					<path id="path58" class="st0" d="M0,0l-46.6,31.8L-27.8,0l-18.8-31.8L0,0z"/>
				</g>
				<g id="g60" transform="translate(184.7522,84.1043)">
					<path id="path62" class="st0" d="M0,0l-71.5,25.6L-54.3,0l-17.2-25.6L0,0z"/>
				</g>
				<g id="g64" transform="translate(73.7586,286.0135)">
					<path id="path66" class="st1" d="M0,0l-5-4.8L8.1-18.4h-45.5v-6.9H8.1L-5-38.9l5-4.8l20.3,21.9L0,0z"/>
				</g>
				<g id="g68" transform="translate(267.6189,193.0486)">
					<path id="path70" class="st1" d="M0,0l-11-0.2L3.9-15.7h-51.8v-7.9H3.9L-11-39l10.8-0.3l18,19.7L0,0z"/>
				</g>
				<g id="g72" transform="translate(265.2244,264.1507)">
					<path id="path74" class="st1" d="M0,0c0,0.1,0,0.2,0,0.3c-0.1,1.9-0.8,3.7-2.1,5.2l-19,20.7c-3,3.3-8.2,3.5-11.5,0.5
						c-3.3-3-3.5-8.2-0.5-11.5l14-15.2l-14-15.2c-3-3.3-2.8-8.5,0.5-11.5c3.3-3,8.5-2.8,11.5,0.5l19,20.7C-0.8-4.1-0.1-2.2,0-0.3
						C0-0.2,0-0.1,0,0"/>
				</g>
				<g id="g76" transform="rotate(90,-73.603612,310.90093)">
					<path id="path78" class="st3" d="M0,0c-0.1,1.9-0.8,3.7-2.1,5.2l-19,20.7c-3,3.3-8.2,3.5-11.5,0.5c-3.3-3-3.5-8.2-0.5-11.5
						l7.5-8.1h-33.5c-3.9,0-7.1-3.2-7.1-7.1c0-3.9,3.2-7.1,7.1-7.1h33.5l-7.5-8.1c-3-3.3-2.8-8.4,0.5-11.5c3.3-3,8.5-2.8,11.5,0.5
						l19,20.7C-0.8-4.4-0.1-2.5,0-0.7c0,0.1,0,0.2,0,0.3C0-0.2,0-0.1,0,0"/>
				</g>
				<g id="g80" transform="translate(59.5652,59.616)">
					<path id="path82" class="st1" d="M0,0h-20.5L5.2,25.7L-17.9,49H2.8l23.3-23.3L0,0z"/>
				</g>
				<g id="g84" transform="translate(156.2122,371.1092)">
					<path id="path86" class="st1" d="M0,0c-1.3,1.3-3.4,1.3-4.7,0C-6-1.3-6-3.4-4.7-4.7L9.6-19L-6.2-34.8c-1.3-1.3-1.3-3.4,0-4.7
						c0.6-0.6,1.5-1,2.4-1s1.7,0.3,2.4,1L19-19L0,0z"/>
				</g>
				<g id="g88" transform="translate(139.9734,371.1092)">
					<path id="path90" class="st1" d="M0,0c-1.3,1.3-3.4,1.3-4.7,0C-6-1.3-6-3.4-4.7-4.7L9.6-19L-6.2-34.8c-1.3-1.3-1.3-3.4,0-4.7
						c0.6-0.6,1.5-1,2.4-1s1.7,0.3,2.4,1L19-19L0,0z"/>
				</g>
				<g id="g92" transform="translate(429.4109,382.4983)">
					<path id="path94" class="st1" d="M0,0l-14.8-14.8l4.8-4.8h-32.6v-20.9H-10l-6.9-6.9l14.8-14.8l32.2,32.2L0,0z"/>
				</g>
				<g id="g96" transform="translate(335.8328,201.9754)">
					<path id="path98" class="st1" d="M0,0h-6.7l-0.2-0.2l24.1-27.2L-9.1-57.2h7l26.4,29.8L0,0z"/>
				</g>
				<g id="g100" transform="translate(323.2566,201.9754)">
					<path id="path102" class="st1" d="M0,0h-6.7l-0.2-0.2l24.1-27.2L-9.1-57.2h7l26.4,29.8L0,0z"/>
				</g>
				<g id="g104" transform="translate(263.6638,87.9295)">
					<path id="path106" class="st1" d="M0,0l-23,22.9c-2,2-5.3,2-7.3,0c-2-2-2-5.3,0-7.3l19.5-19.4l-19.5-19.4c-2-2-2-5.3,0-7.3
						c2-2,5.3-2,7.3,0L0-7.6c1.1,1.1,1.6,2.4,1.5,3.8C1.6-2.4,1.1-1.1,0,0"/>
				</g>
				<g id="g108" transform="translate(237.2151,84.1043)">
					<path id="path110" class="st1" d="M0,0c0,1.4-0.5,2.8-1.5,3.8l-11.6,11.4c-2,2-5.3,2-7.3,0c-2-2-2-5.3,0-7.3l8-7.9l-8-7.9
						c-2-2-2.1-5.3,0-7.3c2-2,5.3-2.1,7.3,0L-1.5-3.8C-0.5-2.8,0-1.4,0,0"/>
				</g>
				<g id="g112" transform="translate(158.99,147.4871)">
					<path id="path114" class="st1" d="M0,0h-18v51.8H0l23.4-25.9L0,0z"/>
				</g>
				<g id="g116" transform="translate(436.1277,410.2547)">
					<path id="path118" class="st1" d="M0,0h-39.2L-18,25.9l-21.2,25.9H0l23.4-25.9L0,0z"/>
				</g>
				<g id="g120" transform="translate(71.7811,199.2654)">
					<path id="path122" class="st0" d="M0,0h-18l9.8-12.3h-21.2v-27.2h21.2L-18-51.8H0l23.4,25.9L0,0z"/>
				</g>
				<g id="g124" transform="translate(414.7371,295.5096)">
					<path id="path126" class="st0" d="M0,0c-2.8,0-5-2.2-5-5s2.2-5,5-5s5,2.2,5,5S2.8,0,0,0"/>
				</g>
				<g id="g128" transform="translate(414.7371,282.3343)">
					<path id="path130" class="st0" d="M0,0c-2.8,0-5-2.2-5-5s2.2-5,5-5s5,2.2,5,5S2.8,0,0,0"/>
				</g>
				<g id="g132" transform="translate(414.7371,269.1585)">
					<path id="path134" class="st0" d="M0,0c-2.8,0-5-2.2-5-5s2.2-5,5-5s5,2.2,5,5S2.8,0,0,0"/>
				</g>
				<g id="g136" transform="translate(414.7371,255.9832)">
					<path id="path138" class="st0" d="M0,0c-2.8,0-5-2.2-5-5c0-2.8,2.2-5,5-5s5,2.2,5,5C5-2.2,2.8,0,0,0"/>
				</g>
				<g id="g140" transform="translate(414.7371,242.8074)">
					<path id="path142" class="st0" d="M0,0c-2.8,0-5-2.2-5-5c0-2.8,2.2-5,5-5s5,2.2,5,5C5-2.2,2.8,0,0,0"/>
				</g>
				<g id="g144" transform="translate(428.2137,282.3343)">
					<path id="path146" class="st0" d="M0,0c-2.8,0-5-2.2-5-5s2.2-5,5-5s5,2.2,5,5S2.8,0,0,0"/>
				</g>
				<g id="g148" transform="translate(428.2137,269.1585)">
					<path id="path150" class="st0" d="M0,0c-2.8,0-5-2.2-5-5s2.2-5,5-5s5,2.2,5,5S2.8,0,0,0"/>
				</g>
				<g id="g152" transform="translate(428.2137,255.9832)">
					<path id="path154" class="st0" d="M0,0c-2.8,0-5-2.2-5-5c0-2.8,2.2-5,5-5s5,2.2,5,5C5-2.2,2.8,0,0,0"/>
				</g>
				<g id="g156" transform="translate(441.6902,269.1585)">
					<path id="path158" class="st0" d="M0,0c-2.8,0-5-2.2-5-5s2.2-5,5-5c2.8,0,5,2.2,5,5S2.8,0,0,0"/>
				</g>
				<g id="g160" transform="translate(316.7371,382.3572)">
					<path id="path162" class="st0" d="M0,0c-1.8,0-3.2-1.4-3.2-3.2S-1.8-6.5,0-6.5c1.8,0,3.2,1.4,3.2,3.2S1.8,0,0,0"/>
				</g>
				<g id="g164" transform="translate(316.7371,373.1067)">
					<path id="path166" class="st0" d="M0,0c-1.8,0-3.2-1.4-3.2-3.2S-1.8-6.5,0-6.5c1.8,0,3.2,1.4,3.2,3.2S1.8,0,0,0"/>
				</g>
				<g id="g168" transform="translate(316.7371,363.8562)">
					<path id="path170" class="st0" d="M0,0c-1.8,0-3.2-1.4-3.2-3.2S-1.8-6.5,0-6.5c1.8,0,3.2,1.4,3.2,3.2S1.8,0,0,0"/>
				</g>
				<g id="g172" transform="translate(316.7371,354.6053)">
					<path id="path174" class="st0" d="M0,0c-1.8,0-3.2-1.4-3.2-3.2S-1.8-6.5,0-6.5c1.8,0,3.2,1.4,3.2,3.2S1.8,0,0,0"/>
				</g>
				<g id="g176" transform="translate(316.7371,345.3548)">
					<path id="path178" class="st0" d="M0,0c-1.8,0-3.2-1.4-3.2-3.2S-1.8-6.5,0-6.5c1.8,0,3.2,1.4,3.2,3.2S1.8,0,0,0"/>
				</g>
				<g id="g180" transform="translate(316.7371,336.1043)">
					<path id="path182" class="st0" d="M0,0c-1.8,0-3.2-1.4-3.2-3.2S-1.8-6.5,0-6.5c1.8,0,3.2,1.4,3.2,3.2S1.8,0,0,0"/>
				</g>
				<g id="g184" transform="translate(316.7371,326.8538)">
					<path id="path186" class="st0" d="M0,0c-1.8,0-3.2-1.4-3.2-3.2S-1.8-6.5,0-6.5c1.8,0,3.2,1.4,3.2,3.2S1.8,0,0,0"/>
				</g>
				<g id="g188" transform="translate(325.5574,373.1067)">
					<path id="path190" class="st0" d="M0,0c-1.8,0-3.2-1.4-3.2-3.2S-1.8-6.5,0-6.5S3.2-5,3.2-3.2S1.8,0,0,0"/>
				</g>
				<g id="g192" transform="translate(325.5574,363.8562)">
					<path id="path194" class="st0" d="M0,0c-1.8,0-3.2-1.4-3.2-3.2S-1.8-6.5,0-6.5S3.2-5,3.2-3.2S1.8,0,0,0"/>
				</g>
				<g id="g196" transform="translate(325.5574,354.6053)">
					<path id="path198" class="st0" d="M0,0c-1.8,0-3.2-1.4-3.2-3.2S-1.8-6.5,0-6.5S3.2-5,3.2-3.2S1.8,0,0,0"/>
				</g>
				<g id="g200" transform="translate(325.5574,345.3548)">
					<path id="path202" class="st0" d="M0,0c-1.8,0-3.2-1.4-3.2-3.2S-1.8-6.5,0-6.5S3.2-5,3.2-3.2S1.8,0,0,0"/>
				</g>
				<g id="g204" transform="translate(325.5574,336.1043)">
					<path id="path206" class="st0" d="M0,0c-1.8,0-3.2-1.4-3.2-3.2S-1.8-6.5,0-6.5S3.2-5,3.2-3.2S1.8,0,0,0"/>
				</g>
				<g id="g208" transform="translate(334.3777,363.8562)">
					<path id="path210" class="st0" d="M0,0c-1.8,0-3.2-1.4-3.2-3.2S-1.8-6.5,0-6.5c1.8,0,3.2,1.4,3.2,3.2S1.8,0,0,0"/>
				</g>
				<g id="g212" transform="translate(334.3777,354.6053)">
					<path id="path214" class="st0" d="M0,0c-1.8,0-3.2-1.4-3.2-3.2S-1.8-6.5,0-6.5c1.8,0,3.2,1.4,3.2,3.2S1.8,0,0,0"/>
				</g>
				<g id="g216" transform="translate(334.3777,345.3548)">
					<path id="path218" class="st0" d="M0,0c-1.8,0-3.2-1.4-3.2-3.2S-1.8-6.5,0-6.5c1.8,0,3.2,1.4,3.2,3.2S1.8,0,0,0"/>
				</g>
				<g id="g220" transform="translate(343.199,354.6053)">
					<path id="path222" class="st0" d="M0,0c-1.8,0-3.2-1.4-3.2-3.2S-1.8-6.5,0-6.5c1.8,0,3.2,1.4,3.2,3.2S1.8,0,0,0"/>
				</g>
				<g id="g224" transform="translate(438.6736,204.7)">
					<path id="path226" class="st0" d="M0,0h-30.6L-10-31.3l-20.6-31.3H0l20.6,31.3L0,0z"/>
				</g>
				<g id="g228" transform="translate(398.9803,204.7)">
					<path id="path230" class="st0" d="M0,0h-12L8.6-31.3L-12-62.6H0l20.6,31.3L0,0z"/>
				</g>
				<g id="g232" transform="translate(126.033,288.7688)">
					<path id="path234" class="st0" d="M0,0c-2.3,0-4.3-1.9-4.3-4.3c0-2.4,1.9-4.3,4.3-4.3s4.3,1.9,4.3,4.3C4.3-1.9,2.3,0,0,0"/>
				</g>
				<g id="g236" transform="translate(145.3665,288.7688)">
					<path id="path238" class="st0" d="M0,0c-2.3,0-4.3-1.9-4.3-4.3c0-2.4,1.9-4.3,4.3-4.3s4.3,1.9,4.3,4.3C4.3-1.9,2.3,0,0,0"/>
				</g>
				<g id="g240" transform="translate(164.7005,288.7688)">
					<path id="path242" class="st0" d="M0,0c-2.3,0-4.3-1.9-4.3-4.3c0-2.4,1.9-4.3,4.3-4.3s4.3,1.9,4.3,4.3C4.3-1.9,2.3,0,0,0"/>
				</g>
				<g id="g244" transform="translate(184.034,288.7688)">
					<path id="path246" class="st0" d="M0,0c-2.3,0-4.3-1.9-4.3-4.3c0-2.4,1.9-4.3,4.3-4.3s4.3,1.9,4.3,4.3C4.3-1.9,2.3,0,0,0"/>
				</g>
				<g id="g248" transform="translate(135.5706,278.4578)">
					<path id="path250" class="st0" d="M0,0c-2.3,0-4.3-1.9-4.3-4.3c0-2.4,1.9-4.3,4.3-4.3s4.3,1.9,4.3,4.3C4.3-1.9,2.3,0,0,0"/>
				</g>
				<g id="g252" transform="translate(154.9046,278.4578)">
					<path id="path254" class="st0" d="M0,0c-2.3,0-4.3-1.9-4.3-4.3c0-2.4,1.9-4.3,4.3-4.3s4.3,1.9,4.3,4.3C4.3-1.9,2.3,0,0,0"/>
				</g>
				<g id="g256" transform="translate(174.2381,278.4578)">
					<path id="path258" class="st0" d="M0,0c-2.3,0-4.3-1.9-4.3-4.3c0-2.4,1.9-4.3,4.3-4.3s4.3,1.9,4.3,4.3C4.3-1.9,2.3,0,0,0"/>
				</g>
				<g id="g260" transform="translate(193.5721,278.4578)">
					<path id="path262" class="st0" d="M0,0c-2.3,0-4.3-1.9-4.3-4.3c0-2.4,1.9-4.3,4.3-4.3s4.3,1.9,4.3,4.3C4.3-1.9,2.3,0,0,0"/>
				</g>
				<g id="g264" transform="translate(145.3665,268.4041)">
					<path id="path266" class="st0" d="M0,0c-2.3,0-4.3-1.9-4.3-4.3c0-2.4,1.9-4.3,4.3-4.3s4.3,1.9,4.3,4.3C4.3-1.9,2.3,0,0,0"/>
				</g>
				<g id="g268" transform="translate(164.7005,268.4041)">
					<path id="path270" class="st0" d="M0,0c-2.3,0-4.3-1.9-4.3-4.3c0-2.4,1.9-4.3,4.3-4.3s4.3,1.9,4.3,4.3C4.3-1.9,2.3,0,0,0"/>
				</g>
				<g id="g272" transform="translate(184.034,268.4041)">
					<path id="path274" class="st0" d="M0,0c-2.3,0-4.3-1.9-4.3-4.3c0-2.4,1.9-4.3,4.3-4.3s4.3,1.9,4.3,4.3C4.3-1.9,2.3,0,0,0"/>
				</g>
				<g id="g276" transform="translate(203.368,268.4041)">
					<path id="path278" class="st0" d="M0,0c-2.3,0-4.3-1.9-4.3-4.3c0-2.4,1.9-4.3,4.3-4.3s4.3,1.9,4.3,4.3C4.3-1.9,2.3,0,0,0"/>
				</g>
				<g id="g280" transform="translate(135.5706,258.0926)">
					<path id="path282" class="st0" d="M0,0c-2.3,0-4.3-1.9-4.3-4.3c0-2.4,1.9-4.3,4.3-4.3s4.3,1.9,4.3,4.3C4.3-1.9,2.3,0,0,0"/>
				</g>
				<g id="g284" transform="translate(154.9046,258.0926)">
					<path id="path286" class="st0" d="M0,0c-2.3,0-4.3-1.9-4.3-4.3c0-2.4,1.9-4.3,4.3-4.3s4.3,1.9,4.3,4.3C4.3-1.9,2.3,0,0,0"/>
				</g>
				<g id="g288" transform="translate(174.2381,258.0926)">
					<path id="path290" class="st0" d="M0,0c-2.3,0-4.3-1.9-4.3-4.3c0-2.4,1.9-4.3,4.3-4.3s4.3,1.9,4.3,4.3C4.3-1.9,2.3,0,0,0"/>
				</g>
				<g id="g292" transform="translate(193.5721,258.0926)">
					<path id="path294" class="st0" d="M0,0c-2.3,0-4.3-1.9-4.3-4.3c0-2.4,1.9-4.3,4.3-4.3s4.3,1.9,4.3,4.3C4.3-1.9,2.3,0,0,0"/>
				</g>
				<g id="g296" transform="translate(126.033,248.0388)">
					<path id="path298" class="st0" d="M0,0c-2.3,0-4.3-1.9-4.3-4.3c0-2.4,1.9-4.3,4.3-4.3s4.3,1.9,4.3,4.3C4.3-1.9,2.3,0,0,0"/>
				</g>
				<g id="g300" transform="translate(145.3665,248.0388)">
					<path id="path302" class="st0" d="M0,0c-2.3,0-4.3-1.9-4.3-4.3c0-2.4,1.9-4.3,4.3-4.3s4.3,1.9,4.3,4.3C4.3-1.9,2.3,0,0,0"/>
				</g>
				<g id="g304" transform="translate(164.7005,248.0388)">
					<path id="path306" class="st0" d="M0,0c-2.3,0-4.3-1.9-4.3-4.3c0-2.4,1.9-4.3,4.3-4.3s4.3,1.9,4.3,4.3C4.3-1.9,2.3,0,0,0"/>
				</g>
				<g id="g308" transform="translate(184.034,248.0388)">
					<path id="path310" class="st0" d="M0,0c-2.3,0-4.3-1.9-4.3-4.3c0-2.4,1.9-4.3,4.3-4.3s4.3,1.9,4.3,4.3C4.3-1.9,2.3,0,0,0"/>
				</g>
				<g id="g312" transform="translate(389.0349,86.3641)">
					<path id="path314" class="st0" d="M0,0c-1.2,0-2.3-1-2.3-2.3s1-2.3,2.3-2.3s2.3,1,2.3,2.3S1.2,0,0,0"/>
				</g>
				<g id="g316" transform="translate(381.0008,93.6697)">
					<path id="path318" class="st0" d="M0,0c-1.2,0-2.3-1-2.3-2.3s1-2.3,2.3-2.3s2.3,1,2.3,2.3S1.2,0,0,0"/>
				</g>
				<g id="g320" transform="translate(381.0008,86.3641)">
					<path id="path322" class="st0" d="M0,0c-1.2,0-2.3-1-2.3-2.3s1-2.3,2.3-2.3s2.3,1,2.3,2.3S1.2,0,0,0"/>
				</g>
				<g id="g324" transform="translate(381.0008,79.0584)">
					<path id="path326" class="st0" d="M0,0c-1.2,0-2.3-1-2.3-2.3s1-2.3,2.3-2.3s2.3,1,2.3,2.3S1.2,0,0,0"/>
				</g>
				<g id="g328" transform="translate(372.9676,100.9754)">
					<path id="path330" class="st0" d="M0,0c-1.2,0-2.3-1-2.3-2.3c0-1.2,1-2.3,2.3-2.3c1.2,0,2.3,1,2.3,2.3C2.3-1,1.2,0,0,0"/>
				</g>
				<g id="g332" transform="translate(372.9676,93.6697)">
					<path id="path334" class="st0" d="M0,0c-1.2,0-2.3-1-2.3-2.3s1-2.3,2.3-2.3c1.2,0,2.3,1,2.3,2.3S1.2,0,0,0"/>
				</g>
				<g id="g336" transform="translate(372.9676,86.3641)">
					<path id="path338" class="st0" d="M0,0c-1.2,0-2.3-1-2.3-2.3s1-2.3,2.3-2.3c1.2,0,2.3,1,2.3,2.3S1.2,0,0,0"/>
				</g>
				<g id="g340" transform="translate(372.9676,79.0584)">
					<path id="path342" class="st0" d="M0,0c-1.2,0-2.3-1-2.3-2.3s1-2.3,2.3-2.3c1.2,0,2.3,1,2.3,2.3S1.2,0,0,0"/>
				</g>
				<g id="g344" transform="translate(372.9676,71.7518)">
					<path id="path346" class="st0" d="M0,0c-1.2,0-2.3-1-2.3-2.3c0-1.2,1-2.3,2.3-2.3c1.2,0,2.3,1,2.3,2.3C2.3-1,1.2,0,0,0"/>
				</g>
				<g id="g348" transform="translate(364.9334,108.2811)">
					<path id="path350" class="st0" d="M0,0c-1.2,0-2.3-1-2.3-2.3c0-1.2,1-2.3,2.3-2.3s2.3,1,2.3,2.3C2.3-1,1.2,0,0,0"/>
				</g>
				<g id="g352" transform="translate(364.9334,100.9754)">
					<path id="path354" class="st0" d="M0,0c-1.2,0-2.3-1-2.3-2.3c0-1.2,1-2.3,2.3-2.3s2.3,1,2.3,2.3C2.3-1,1.2,0,0,0"/>
				</g>
				<g id="g356" transform="translate(364.9334,93.6697)">
					<path id="path358" class="st0" d="M0,0c-1.2,0-2.3-1-2.3-2.3s1-2.3,2.3-2.3s2.3,1,2.3,2.3S1.2,0,0,0"/>
				</g>
				<g id="g360" transform="translate(364.9334,86.3641)">
					<path id="path362" class="st0" d="M0,0c-1.2,0-2.3-1-2.3-2.3s1-2.3,2.3-2.3s2.3,1,2.3,2.3S1.2,0,0,0"/>
				</g>
				<g id="g364" transform="translate(364.9334,79.0584)">
					<path id="path366" class="st0" d="M0,0c-1.2,0-2.3-1-2.3-2.3s1-2.3,2.3-2.3s2.3,1,2.3,2.3S1.2,0,0,0"/>
				</g>
				<g id="g368" transform="translate(364.9334,71.7518)">
					<path id="path370" class="st0" d="M0,0c-1.2,0-2.3-1-2.3-2.3c0-1.2,1-2.3,2.3-2.3s2.3,1,2.3,2.3C2.3-1,1.2,0,0,0"/>
				</g>
				<g id="g372" transform="translate(364.9334,64.4461)">
					<path id="path374" class="st0" d="M0,0c-1.2,0-2.3-1-2.3-2.3s1-2.3,2.3-2.3s2.3,1,2.3,2.3S1.2,0,0,0"/>
				</g>
				<g id="g376" transform="translate(356.8992,115.5877)">
					<path id="path378" class="st0" d="M0,0c-1.2,0-2.3-1-2.3-2.3s1-2.3,2.3-2.3s2.3,1,2.3,2.3S1.2,0,0,0"/>
				</g>
				<g id="g380" transform="translate(356.8992,108.2811)">
					<path id="path382" class="st0" d="M0,0c-1.2,0-2.3-1-2.3-2.3c0-1.2,1-2.3,2.3-2.3s2.3,1,2.3,2.3C2.3-1,1.2,0,0,0"/>
				</g>
				<g id="g384" transform="translate(356.8992,100.9754)">
					<path id="path386" class="st0" d="M0,0c-1.2,0-2.3-1-2.3-2.3c0-1.2,1-2.3,2.3-2.3s2.3,1,2.3,2.3C2.3-1,1.2,0,0,0"/>
				</g>
				<g id="g388" transform="translate(356.8992,93.6697)">
					<path id="path390" class="st0" d="M0,0c-1.2,0-2.3-1-2.3-2.3s1-2.3,2.3-2.3s2.3,1,2.3,2.3S1.2,0,0,0"/>
				</g>
				<g id="g392" transform="translate(356.8992,86.3641)">
					<path id="path394" class="st0" d="M0,0c-1.2,0-2.3-1-2.3-2.3s1-2.3,2.3-2.3s2.3,1,2.3,2.3S1.2,0,0,0"/>
				</g>
				<g id="g396" transform="translate(356.8992,79.0584)">
					<path id="path398" class="st0" d="M0,0c-1.2,0-2.3-1-2.3-2.3s1-2.3,2.3-2.3s2.3,1,2.3,2.3S1.2,0,0,0"/>
				</g>
				<g id="g400" transform="translate(356.8992,71.7518)">
					<path id="path402" class="st0" d="M0,0c-1.2,0-2.3-1-2.3-2.3c0-1.2,1-2.3,2.3-2.3s2.3,1,2.3,2.3C2.3-1,1.2,0,0,0"/>
				</g>
				<g id="g404" transform="translate(356.8992,64.4461)">
					<path id="path406" class="st0" d="M0,0c-1.2,0-2.3-1-2.3-2.3s1-2.3,2.3-2.3s2.3,1,2.3,2.3S1.2,0,0,0"/>
				</g>
				<g id="g408" transform="translate(356.8992,57.1404)">
					<path id="path410" class="st0" d="M0,0c-1.2,0-2.3-1-2.3-2.3s1-2.3,2.3-2.3s2.3,1,2.3,2.3S1.2,0,0,0"/>
				</g>
				<g id="g412" transform="translate(348.865,122.8934)">
					<path id="path414" class="st0" d="M0,0c-1.2,0-2.3-1-2.3-2.3s1-2.3,2.3-2.3s2.3,1,2.3,2.3S1.2,0,0,0"/>
				</g>
				<g id="g416" transform="translate(348.865,115.5877)">
					<path id="path418" class="st0" d="M0,0c-1.2,0-2.3-1-2.3-2.3s1-2.3,2.3-2.3s2.3,1,2.3,2.3S1.2,0,0,0"/>
				</g>
				<g id="g420" transform="translate(348.865,108.2811)">
					<path id="path422" class="st0" d="M0,0c-1.2,0-2.3-1-2.3-2.3c0-1.2,1-2.3,2.3-2.3s2.3,1,2.3,2.3C2.3-1,1.2,0,0,0"/>
				</g>
				<g id="g424" transform="translate(348.865,100.9754)">
					<path id="path426" class="st0" d="M0,0c-1.2,0-2.3-1-2.3-2.3c0-1.2,1-2.3,2.3-2.3s2.3,1,2.3,2.3C2.3-1,1.2,0,0,0"/>
				</g>
				<g id="g428" transform="translate(348.865,93.6697)">
					<path id="path430" class="st0" d="M0,0c-1.2,0-2.3-1-2.3-2.3s1-2.3,2.3-2.3s2.3,1,2.3,2.3S1.2,0,0,0"/>
				</g>
				<g id="g432" transform="translate(348.865,86.3641)">
					<path id="path434" class="st0" d="M0,0c-1.2,0-2.3-1-2.3-2.3s1-2.3,2.3-2.3s2.3,1,2.3,2.3S1.2,0,0,0"/>
				</g>
				<g id="g436" transform="translate(348.865,79.0584)">
					<path id="path438" class="st0" d="M0,0c-1.2,0-2.3-1-2.3-2.3s1-2.3,2.3-2.3s2.3,1,2.3,2.3S1.2,0,0,0"/>
				</g>
				<g id="g440" transform="translate(348.865,71.7518)">
					<path id="path442" class="st0" d="M0,0c-1.2,0-2.3-1-2.3-2.3c0-1.2,1-2.3,2.3-2.3s2.3,1,2.3,2.3C2.3-1,1.2,0,0,0"/>
				</g>
				<g id="g444" transform="translate(348.865,64.4461)">
					<path id="path446" class="st0" d="M0,0c-1.2,0-2.3-1-2.3-2.3s1-2.3,2.3-2.3s2.3,1,2.3,2.3S1.2,0,0,0"/>
				</g>
				<g id="g448" transform="translate(348.865,57.1404)">
					<path id="path450" class="st0" d="M0,0c-1.2,0-2.3-1-2.3-2.3s1-2.3,2.3-2.3s2.3,1,2.3,2.3S1.2,0,0,0"/>
				</g>
				<g id="g452" transform="translate(348.865,49.8347)">
					<path id="path454" class="st0" d="M0,0c-1.2,0-2.3-1-2.3-2.3s1-2.3,2.3-2.3s2.3,1,2.3,2.3S1.2,0,0,0"/>
				</g>
				<g id="g456" transform="translate(340.8308,108.2811)">
					<path id="path458" class="st0" d="M0,0c-1.2,0-2.3-1-2.3-2.3c0-1.2,1-2.3,2.3-2.3c1.2,0,2.3,1,2.3,2.3C2.3-1,1.2,0,0,0"/>
				</g>
				<g id="g460" transform="translate(340.8308,100.9754)">
					<path id="path462" class="st0" d="M0,0c-1.2,0-2.3-1-2.3-2.3c0-1.2,1-2.3,2.3-2.3c1.2,0,2.3,1,2.3,2.3C2.3-1,1.2,0,0,0"/>
				</g>
				<g id="g464" transform="translate(340.8308,93.6697)">
					<path id="path466" class="st0" d="M0,0c-1.2,0-2.3-1-2.3-2.3s1-2.3,2.3-2.3c1.2,0,2.3,1,2.3,2.3S1.2,0,0,0"/>
				</g>
				<g id="g468" transform="translate(340.8308,86.3641)">
					<path id="path470" class="st0" d="M0,0c-1.2,0-2.3-1-2.3-2.3s1-2.3,2.3-2.3c1.2,0,2.3,1,2.3,2.3S1.2,0,0,0"/>
				</g>
				<g id="g472" transform="translate(340.8308,79.0584)">
					<path id="path474" class="st0" d="M0,0c-1.2,0-2.3-1-2.3-2.3s1-2.3,2.3-2.3c1.2,0,2.3,1,2.3,2.3S1.2,0,0,0"/>
				</g>
				<g id="g476" transform="translate(340.8308,71.7518)">
					<path id="path478" class="st0" d="M0,0c-1.2,0-2.3-1-2.3-2.3c0-1.2,1-2.3,2.3-2.3c1.2,0,2.3,1,2.3,2.3C2.3-1,1.2,0,0,0"/>
				</g>
				<g id="g480" transform="translate(340.8308,64.4461)">
					<path id="path482" class="st0" d="M0,0c-1.2,0-2.3-1-2.3-2.3s1-2.3,2.3-2.3c1.2,0,2.3,1,2.3,2.3S1.2,0,0,0"/>
				</g>
				<g id="g484" transform="translate(332.7976,108.2811)">
					<path id="path486" class="st0" d="M0,0c-1.2,0-2.3-1-2.3-2.3c0-1.2,1-2.3,2.3-2.3s2.3,1,2.3,2.3C2.3-1,1.2,0,0,0"/>
				</g>
				<g id="g488" transform="translate(332.7976,100.9754)">
					<path id="path490" class="st0" d="M0,0c-1.2,0-2.3-1-2.3-2.3c0-1.2,1-2.3,2.3-2.3s2.3,1,2.3,2.3C2.3-1,1.2,0,0,0"/>
				</g>
				<g id="g492" transform="translate(332.7976,93.6697)">
					<path id="path494" class="st0" d="M0,0c-1.2,0-2.3-1-2.3-2.3s1-2.3,2.3-2.3s2.3,1,2.3,2.3S1.2,0,0,0"/>
				</g>
				<g id="g496" transform="translate(332.7976,86.3641)">
					<path id="path498" class="st0" d="M0,0c-1.2,0-2.3-1-2.3-2.3s1-2.3,2.3-2.3s2.3,1,2.3,2.3S1.2,0,0,0"/>
				</g>
				<g id="g500" transform="translate(332.7976,79.0584)">
					<path id="path502" class="st0" d="M0,0c-1.2,0-2.3-1-2.3-2.3s1-2.3,2.3-2.3s2.3,1,2.3,2.3S1.2,0,0,0"/>
				</g>
				<g id="g504" transform="translate(332.7976,71.7518)">
					<path id="path506" class="st0" d="M0,0c-1.2,0-2.3-1-2.3-2.3c0-1.2,1-2.3,2.3-2.3s2.3,1,2.3,2.3C2.3-1,1.2,0,0,0"/>
				</g>
				<g id="g508" transform="translate(332.7976,64.4461)">
					<path id="path510" class="st0" d="M0,0c-1.2,0-2.3-1-2.3-2.3s1-2.3,2.3-2.3s2.3,1,2.3,2.3S1.2,0,0,0"/>
				</g>
				<g id="g512" transform="translate(324.7635,108.2811)">
					<path id="path514" class="st0" d="M0,0c-1.2,0-2.3-1-2.3-2.3c0-1.2,1-2.3,2.3-2.3s2.3,1,2.3,2.3C2.3-1,1.2,0,0,0"/>
				</g>
				<g id="g516" transform="translate(324.7635,100.9754)">
					<path id="path518" class="st0" d="M0,0c-1.2,0-2.3-1-2.3-2.3c0-1.2,1-2.3,2.3-2.3s2.3,1,2.3,2.3C2.3-1,1.2,0,0,0"/>
				</g>
				<g id="g520" transform="translate(324.7635,93.6697)">
					<path id="path522" class="st0" d="M0,0c-1.2,0-2.3-1-2.3-2.3s1-2.3,2.3-2.3s2.3,1,2.3,2.3S1.2,0,0,0"/>
				</g>
				<g id="g524" transform="translate(324.7635,86.3641)">
					<path id="path526" class="st0" d="M0,0c-1.2,0-2.3-1-2.3-2.3s1-2.3,2.3-2.3s2.3,1,2.3,2.3S1.2,0,0,0"/>
				</g>
				<g id="g528" transform="translate(324.7635,79.0584)">
					<path id="path530" class="st0" d="M0,0c-1.2,0-2.3-1-2.3-2.3s1-2.3,2.3-2.3s2.3,1,2.3,2.3S1.2,0,0,0"/>
				</g>
				<g id="g532" transform="translate(324.7635,71.7518)">
					<path id="path534" class="st0" d="M0,0c-1.2,0-2.3-1-2.3-2.3c0-1.2,1-2.3,2.3-2.3s2.3,1,2.3,2.3C2.3-1,1.2,0,0,0"/>
				</g>
				<g id="g536" transform="translate(324.7635,64.4461)">
					<path id="path538" class="st0" d="M0,0c-1.2,0-2.3-1-2.3-2.3s1-2.3,2.3-2.3s2.3,1,2.3,2.3S1.2,0,0,0"/>
				</g>
				<g id="g540" transform="translate(316.7293,108.2811)">
					<path id="path542" class="st0" d="M0,0c-1.2,0-2.3-1-2.3-2.3c0-1.2,1-2.3,2.3-2.3s2.3,1,2.3,2.3C2.3-1,1.2,0,0,0"/>
				</g>
				<g id="g544" transform="translate(316.7293,100.9754)">
					<path id="path546" class="st0" d="M0,0c-1.2,0-2.3-1-2.3-2.3c0-1.2,1-2.3,2.3-2.3s2.3,1,2.3,2.3C2.3-1,1.2,0,0,0"/>
				</g>
				<g id="g548" transform="translate(316.7293,93.6697)">
					<path id="path550" class="st0" d="M0,0c-1.2,0-2.3-1-2.3-2.3s1-2.3,2.3-2.3s2.3,1,2.3,2.3S1.2,0,0,0"/>
				</g>
				<g id="g552" transform="translate(316.7293,86.3641)">
					<path id="path554" class="st0" d="M0,0c-1.2,0-2.3-1-2.3-2.3s1-2.3,2.3-2.3s2.3,1,2.3,2.3S1.2,0,0,0"/>
				</g>
				<g id="g556" transform="translate(316.7293,79.0584)">
					<path id="path558" class="st0" d="M0,0c-1.2,0-2.3-1-2.3-2.3s1-2.3,2.3-2.3s2.3,1,2.3,2.3S1.2,0,0,0"/>
				</g>
				<g id="g560" transform="translate(316.7293,71.7518)">
					<path id="path562" class="st0" d="M0,0c-1.2,0-2.3-1-2.3-2.3c0-1.2,1-2.3,2.3-2.3s2.3,1,2.3,2.3C2.3-1,1.2,0,0,0"/>
				</g>
				<g id="g564" transform="translate(316.7293,64.4461)">
					<path id="path566" class="st0" d="M0,0c-1.2,0-2.3-1-2.3-2.3s1-2.3,2.3-2.3s2.3,1,2.3,2.3S1.2,0,0,0"/>
				</g>
				<g id="g568" transform="translate(308.6951,108.2811)">
					<path id="path570" class="st0" d="M0,0c-1.2,0-2.3-1-2.3-2.3c0-1.2,1-2.3,2.3-2.3s2.3,1,2.3,2.3C2.3-1,1.2,0,0,0"/>
				</g>
				<g id="g572" transform="translate(308.6951,100.9754)">
					<path id="path574" class="st0" d="M0,0c-1.2,0-2.3-1-2.3-2.3c0-1.2,1-2.3,2.3-2.3s2.3,1,2.3,2.3C2.3-1,1.2,0,0,0"/>
				</g>
				<g id="g576" transform="translate(308.6951,93.6697)">
					<path id="path578" class="st0" d="M0,0c-1.2,0-2.3-1-2.3-2.3s1-2.3,2.3-2.3s2.3,1,2.3,2.3S1.2,0,0,0"/>
				</g>
				<g id="g580" transform="translate(308.6951,86.3641)">
					<path id="path582" class="st0" d="M0,0c-1.2,0-2.3-1-2.3-2.3s1-2.3,2.3-2.3s2.3,1,2.3,2.3S1.2,0,0,0"/>
				</g>
				<g id="g584" transform="translate(308.6951,79.0584)">
					<path id="path586" class="st0" d="M0,0c-1.2,0-2.3-1-2.3-2.3s1-2.3,2.3-2.3s2.3,1,2.3,2.3S1.2,0,0,0"/>
				</g>
				<g id="g588" transform="translate(308.6951,71.7518)">
					<path id="path590" class="st0" d="M0,0c-1.2,0-2.3-1-2.3-2.3c0-1.2,1-2.3,2.3-2.3s2.3,1,2.3,2.3C2.3-1,1.2,0,0,0"/>
				</g>
				<g id="g592" transform="translate(308.6951,64.4461)">
					<path id="path594" class="st0" d="M0,0c-1.2,0-2.3-1-2.3-2.3s1-2.3,2.3-2.3s2.3,1,2.3,2.3S1.2,0,0,0"/>
				</g>
				<g id="g596" transform="translate(300.6619,108.2811)">
					<path id="path598" class="st0" d="M0,0c-1.2,0-2.3-1-2.3-2.3c0-1.2,1-2.3,2.3-2.3c1.2,0,2.3,1,2.3,2.3C2.3-1,1.2,0,0,0"/>
				</g>
				<g id="g600" transform="translate(300.6619,100.9754)">
					<path id="path602" class="st0" d="M0,0c-1.2,0-2.3-1-2.3-2.3c0-1.2,1-2.3,2.3-2.3c1.2,0,2.3,1,2.3,2.3C2.3-1,1.2,0,0,0"/>
				</g>
				<g id="g604" transform="translate(300.6619,93.6697)">
					<path id="path606" class="st0" d="M0,0c-1.2,0-2.3-1-2.3-2.3s1-2.3,2.3-2.3c1.2,0,2.3,1,2.3,2.3S1.2,0,0,0"/>
				</g>
				<g id="g608" transform="translate(300.6619,86.3641)">
					<path id="path610" class="st0" d="M0,0c-1.2,0-2.3-1-2.3-2.3s1-2.3,2.3-2.3c1.2,0,2.3,1,2.3,2.3S1.2,0,0,0"/>
				</g>
				<g id="g612" transform="translate(300.6619,79.0584)">
					<path id="path614" class="st0" d="M0,0c-1.2,0-2.3-1-2.3-2.3s1-2.3,2.3-2.3c1.2,0,2.3,1,2.3,2.3S1.2,0,0,0"/>
				</g>
				<g id="g616" transform="translate(300.6619,71.7518)">
					<path id="path618" class="st0" d="M0,0c-1.2,0-2.3-1-2.3-2.3c0-1.2,1-2.3,2.3-2.3c1.2,0,2.3,1,2.3,2.3C2.3-1,1.2,0,0,0"/>
				</g>
				<g id="g620" transform="translate(300.6619,64.4461)">
					<path id="path622" class="st0" d="M0,0c-1.2,0-2.3-1-2.3-2.3s1-2.3,2.3-2.3c1.2,0,2.3,1,2.3,2.3S1.2,0,0,0"/>
				</g>
			</g>
		</g>
	</g>
</g>
</svg>
